<?xml version="1.0" encoding="UTF-8" standalone="no"?>
<svg
   width="377.21912"
   zoomAndPan="magnify"
   viewBox="0 0 282.91434 48.421862"
   height="64.562485"
   preserveAspectRatio="xMidYMid"
   version="1.0"
   id="svg124"
   xmlns="http://www.w3.org/2000/svg"
   xmlns:svg="http://www.w3.org/2000/svg">
  <defs
     id="defs5">
    <clipPath
       id="c89c80bd7d">
      <path
         d="m 41.972656,186.66406 h 72.597654 v 11.97656 H 41.972656 Z m 0,0"
         clip-rule="nonzero"
         id="path1" />
    </clipPath>
    <clipPath
       id="a32930632e">
      <path
         d="m 51,150.20312 h 54 V 184 H 51 Z m 0,0"
         clip-rule="nonzero"
         id="path2" />
    </clipPath>
    <clipPath
       id="cd2d83b21b">
      <path
         d="m 82,160 h 7.652344 v 5 H 82 Z m 0,0"
         clip-rule="nonzero"
         id="path3" />
    </clipPath>
    <clipPath
       id="b1b29c9195">
      <path
         d="m 71,156.19922 h 13 v 23.25 H 71 Z m 0,0"
         clip-rule="nonzero"
         id="path4" />
    </clipPath>
    <clipPath
       id="c50e8c63f3">
      <path
         d="M 65.652344,171 H 73 v 5 h -7.347656 z m 0,0"
         clip-rule="nonzero"
         id="path5" />
    </clipPath>
  </defs>
  <g
     clip-path="url(#c89c80bd7d)"
     id="g6"
     transform="translate(-41.972656,-150.21875)">
    <path
       fill="#f58e00"
       d="M 88.746094,195.59375 H 67.800781 c -0.144531,0 -0.238281,-0.15234 -0.171875,-0.28125 l 1.613282,-3.10547 c 0.03125,-0.0625 0.09766,-0.10156 0.167968,-0.10156 h 17.722656 c 0.07422,0 0.140626,0.0391 0.171876,0.10156 l 1.613281,3.10547 c 0.06641,0.12891 -0.02734,0.28125 -0.171875,0.28125 z m 25.363286,0.35156 -8.67579,-8.67578 c -0.29687,-0.29687 -0.69531,-0.46094 -1.11718,-0.46094 H 52.230469 c -0.421875,0 -0.824219,0.16407 -1.117188,0.46094 l -8.675781,8.67578 c -0.296875,0.29688 -0.464844,0.69922 -0.464844,1.11719 0,0.87109 0.707032,1.57812 1.582032,1.57812 h 69.437502 c 0.87109,0 1.57812,-0.70703 1.57812,-1.57812 0,-0.41797 -0.16406,-0.82031 -0.46093,-1.11719"
       fill-opacity="1"
       fill-rule="nonzero"
       id="path6" />
  </g>
  <g
     clip-path="url(#a32930632e)"
     id="g7"
     transform="translate(-41.972656,-150.21875)">
    <path
       fill="#f58e00"
       d="M 102.375,150.21875 H 54.171875 c -1.394531,0 -2.535156,1.14062 -2.535156,2.53516 V 181.375 c 0,1.39453 1.140625,2.53516 2.535156,2.53516 H 102.375 c 1.39453,0 2.53516,-1.14063 2.53516,-2.53516 v -28.62109 c 0,-1.39454 -1.14063,-2.53516 -2.53516,-2.53516 z m -0.39844,2.93359 v 27.82032 H 54.570312 v -27.82032 h 47.406248"
       fill-opacity="1"
       fill-rule="nonzero"
       id="path7" />
  </g>
  <g
     clip-path="url(#cd2d83b21b)"
     id="g8"
     transform="translate(-41.972656,-150.21875)">
    <path
       fill="#000000"
       d="m 89.160156,162.42969 c -0.210937,-0.22657 -0.566406,-0.24219 -0.792968,-0.0312 -0.476563,0.44531 -1.03125,0.74218 -1.617188,0.9375 l -3.003906,-3.00782 c -0.222656,-0.21875 -0.578125,-0.21875 -0.796875,0 -0.21875,0.22266 -0.21875,0.57422 0,0.79688 l 2.492187,2.48828 c -0.675781,0.0742 -1.339844,0.0547 -1.914062,-0.004 -0.308594,-0.0273 -0.582032,0.19532 -0.613282,0.50391 -0.03125,0.30859 0.195313,0.58203 0.503907,0.61328 0.347656,0.0352 0.722656,0.0586 1.113281,0.0586 1.515625,0 3.277344,-0.33204 4.601562,-1.5625 0.226563,-0.21094 0.238282,-0.56641 0.02734,-0.79297"
       fill-opacity="1"
       fill-rule="nonzero"
       id="path8" />
  </g>
  <g
     clip-path="url(#b1b29c9195)"
     id="g9"
     transform="translate(-41.972656,-150.21875)">
    <path
       fill="#000000"
       d="m 82.421875,164.32422 c -0.01563,-0.0469 -1.5625,-4.66797 0.746094,-7.1211 0.214843,-0.22265 0.203125,-0.57812 -0.02344,-0.79296 -0.226562,-0.21094 -0.582031,-0.19922 -0.792969,0.0234 -2.75,2.91797 -1.101562,7.92969 -0.992187,8.2461 0.05078,0.17578 0.984375,3.27734 -0.847656,5.53906 l -5.203125,-5.20313 c 0.472656,-0.375 0.976562,-0.6289 1.492187,-0.80078 l 2.957031,2.95703 c 0.109376,0.10938 0.25,0.16407 0.394532,0.16407 0.144531,0 0.289062,-0.0547 0.398437,-0.16407 0.21875,-0.21875 0.21875,-0.57421 0,-0.79296 l -2.433593,-2.4336 c 0.605468,-0.0547 1.1875,-0.0234 1.695312,0.043 0.304688,0.043 0.589844,-0.17187 0.628906,-0.48047 0.04297,-0.30859 -0.171875,-0.58984 -0.480468,-0.6289 -0.75,-0.10157 -1.875,-0.15625 -3.054688,0.14062 -0.05859,0.008 -0.121094,0.0234 -0.179688,0.0508 -0.898437,0.25391 -1.820312,0.71485 -2.632812,1.51953 0,0.004 0,0.004 0,0.004 -1.164062,1.15625 -1.789062,2.73047 -1.808594,4.55469 -0.01563,1.3125 0.277344,2.3125 0.339844,2.5039 0,0.004 0,0.008 0.0039,0.0117 0.01563,0.0469 1.5625,4.66797 -0.746094,7.1211 -0.214843,0.22265 -0.203124,0.57812 0.02344,0.79296 0.109375,0.10157 0.246094,0.15235 0.382812,0.15235 0.152344,0 0.300782,-0.0586 0.410157,-0.17578 2.75,-2.92188 1.097656,-7.9375 0.992187,-8.2461 -0.05469,-0.17968 -0.976562,-3.24218 0.820313,-5.5039 l 5.195312,5.19922 c -0.46875,0.35937 -0.96875,0.60937 -1.476562,0.77734 l -2.96875,-2.96875 c -0.21875,-0.21875 -0.574219,-0.21875 -0.792969,0 -0.21875,0.21875 -0.21875,0.57422 0,0.79297 l 2.441406,2.4414 c -0.597656,0.0508 -1.171875,0.0195 -1.671875,-0.0469 -0.304687,-0.043 -0.589843,0.17187 -0.628906,0.48047 -0.04297,0.30469 0.171875,0.58984 0.480469,0.6289 0.332031,0.0469 0.734375,0.082 1.179687,0.082 1.378907,0 3.183594,-0.33594 4.636719,-1.7461 0.0078,-0.008 0.01172,-0.0117 0.01953,-0.0195 0.0039,0 0.0039,-0.004 0.0078,-0.008 0.0078,-0.008 0.01563,-0.0156 0.02344,-0.0234 1.160157,-1.15234 1.785157,-2.72266 1.808594,-4.54687 0.01563,-1.3086 -0.277344,-2.32032 -0.339844,-2.50782 0,-0.008 -0.0039,-0.0117 -0.0039,-0.0156"
       fill-opacity="1"
       fill-rule="nonzero"
       id="path9" />
  </g>
  <g
     clip-path="url(#c50e8c63f3)"
     id="g10"
     transform="translate(-41.972656,-150.21875)">
    <path
       fill="#000000"
       d="m 71.648438,174.94531 -2.503907,-2.5039 c 0.832031,-0.14844 1.671875,-0.13282 2.378907,-0.0625 0.308593,0.0312 0.582031,-0.19532 0.613281,-0.50391 0.03125,-0.30859 -0.195313,-0.58203 -0.503907,-0.61328 -2.417968,-0.24219 -4.394531,0.27734 -5.714843,1.5039 -0.226563,0.21094 -0.238281,0.56641 -0.02734,0.79297 0.109375,0.1211 0.257813,0.17969 0.410156,0.17969 0.136719,0 0.273438,-0.0508 0.382813,-0.14844 0.371094,-0.34375 0.789062,-0.60156 1.230468,-0.79297 l 2.941407,2.94141 c 0.109375,0.10938 0.253906,0.16406 0.394531,0.16406 0.144531,0 0.289062,-0.0547 0.398438,-0.16406 0.21875,-0.21875 0.21875,-0.57422 0,-0.79297"
       fill-opacity="1"
       fill-rule="nonzero"
       id="path10" />
  </g>
  <g
     fill="#000000"
     fill-opacity="1"
     id="g13"
     transform="translate(-41.972656,-150.21875)">
    <g
       transform="translate(115.08903,174.48761)"
       id="g12">
      <g
         id="g11">
        <path
           d="M 25.425781,0 V -16.070312 H 19.09375 l -5.722656,8.386718 -5.6875,-8.386718 H 1.316406 V 0 h 7.136719 v -5.980469 l 3.601563,5.113281 H 14.6875 l 3.632812,-5.113281 V 0 Z m 0,0"
           id="path11" />
      </g>
    </g>
  </g>
  <g
     fill="#000000"
     fill-opacity="1"
     id="g16"
     transform="translate(-41.972656,-150.21875)">
    <g
       transform="translate(144.33905,174.48761)"
       id="g15">
      <g
         id="g14">
        <path
           d="m 1.316406,-16.070312 v 8.421874 c 0,5.078126 3.441406,7.9375 9.546875,7.9375 6.074219,0 9.515625,-2.859374 9.515625,-7.9375 v -8.421874 h -7.105468 v 8.421874 c 0,1.894532 -0.867188,2.957032 -2.410157,2.957032 -1.542969,0 -2.410156,-1.0625 -2.410156,-2.957032 v -8.421874 z m 0,0"
           id="path13" />
      </g>
    </g>
  </g>
  <g
     fill="#000000"
     fill-opacity="1"
     id="g19"
     transform="translate(-41.972656,-150.21875)">
    <g
       transform="translate(168.51049,174.48761)"
       id="g18">
      <g
         id="g17">
        <path
           d="M 18.355469,-4.980469 H 8.453125 V -16.070312 H 1.316406 V 0 h 17.039063 z m 0,0"
           id="path16" />
      </g>
    </g>
  </g>
  <g
     fill="#000000"
     fill-opacity="1"
     id="g22"
     transform="translate(-41.972656,-150.21875)">
    <g
       transform="translate(190.43192,174.48761)"
       id="g21">
      <g
         id="g20">
        <path
           d="m 20.25,-11.089844 v -4.980468 H 1.1875 v 4.980468 H 7.167969 V 0 h 7.101562 v -11.089844 z m 0,0"
           id="path19" />
      </g>
    </g>
  </g>
  <g
     fill="#000000"
     fill-opacity="1"
     id="g25"
     transform="translate(-41.972656,-150.21875)">
    <g
       transform="translate(214.34623,174.48761)"
       id="g24">
      <g
         id="g23">
        <path
           d="M 8.453125,-16.070312 H 1.316406 V 0 h 7.136719 z m 0,0"
           id="path22" />
      </g>
    </g>
  </g>
  <g
     fill="#000000"
     fill-opacity="1"
     id="g28"
     transform="translate(-41.972656,-150.21875)">
    <g
       transform="translate(226.59266,174.48761)"
       id="g27">
      <g
         id="g26">
        <path
           d="M 13.757812,-16.070312 H 1.316406 V 0 h 7.136719 v -5.65625 h 5.496094 c 4.113281,-0.097656 6.429687,-1.960938 6.429687,-5.175781 0,-3.34375 -2.378906,-5.238281 -6.621094,-5.238281 z M 12.3125,-9.898438 H 8.453125 v -1.929687 H 12.3125 c 1.089844,0.03125 1.703125,0.386719 1.703125,0.996094 0,0.609375 -0.613281,0.933593 -1.703125,0.933593 z m 0,0"
           id="path25" />
      </g>
    </g>
  </g>
  <g
     fill="#000000"
     fill-opacity="1"
     id="g31"
     transform="translate(-41.972656,-150.21875)">
    <g
       transform="translate(250.28197,174.48761)"
       id="g30">
      <g
         id="g29">
        <path
           d="M 18.355469,-4.980469 H 8.453125 V -16.070312 H 1.316406 V 0 h 17.039063 z m 0,0"
           id="path28" />
      </g>
    </g>
  </g>
  <g
     fill="#000000"
     fill-opacity="1"
     id="g34"
     transform="translate(-41.972656,-150.21875)">
    <g
       transform="translate(272.20341,174.48761)"
       id="g33">
      <g
         id="g32">
        <path
           d="M 22.019531,-16.070312 H 14.464844 L 11.21875,-11.3125 7.9375,-16.070312 H 0.417969 l 7.230469,9.578124 V 0 h 7.105468 v -6.492188 z m 0,0"
           id="path31" />
      </g>
    </g>
  </g>
  <g
     fill="#f58e00"
     fill-opacity="1"
     id="g37"
     transform="translate(-41.972656,-150.21875)">
    <g
       transform="translate(116.58903,189.56205)"
       id="g36">
      <g
         id="g35">
        <path
           d="M 4.3125,0 4.296875,-2.515625 3.0625,-0.4375 H 2.640625 L 1.40625,-2.453125 V 0 H 0.5 v -4.1875 h 0.796875 l 1.5625,2.609375 L 4.40625,-4.1875 H 5.203125 L 5.21875,0 Z m 0,0"
           id="path34" />
      </g>
    </g>
  </g>
  <g
     fill="#f58e00"
     fill-opacity="1"
     id="g40"
     transform="translate(-41.972656,-150.21875)">
    <g
       transform="translate(125.78845,189.56205)"
       id="g39">
      <g
         id="g38">
        <path
           d="m 2.359375,0.078125 c -0.605469,0 -1.074219,-0.1640625 -1.40625,-0.5 -0.335937,-0.332031 -0.5,-0.804687 -0.5,-1.421875 V -4.1875 H 1.4375 v 2.3125 c 0,0.75 0.304688,1.125 0.921875,1.125 0.300781,0 0.53125,-0.085938 0.6875,-0.265625 0.164063,-0.1875 0.25,-0.472656 0.25,-0.859375 V -4.1875 H 4.25 v 2.34375 c 0,0.617188 -0.167969,1.089844 -0.5,1.421875 -0.335938,0.3359375 -0.796875,0.5 -1.390625,0.5 z m 0,0"
           id="path37" />
      </g>
    </g>
  </g>
  <g
     fill="#f58e00"
     fill-opacity="1"
     id="g43"
     transform="translate(-41.972656,-150.21875)">
    <g
       transform="translate(133.98897,189.56205)"
       id="g42">
      <g
         id="g41">
        <path
           d="m 0.5,-4.1875 h 0.96875 v 3.390625 H 3.5625 V 0 H 0.5 Z m 0,0"
           id="path40" />
      </g>
    </g>
  </g>
  <g
     fill="#f58e00"
     fill-opacity="1"
     id="g46"
     transform="translate(-41.972656,-150.21875)">
    <g
       transform="translate(141.08891,189.56205)"
       id="g45">
      <g
         id="g44">
        <path
           d="M 1.359375,-3.40625 H 0.03125 V -4.1875 h 3.640625 v 0.78125 H 2.328125 V 0 h -0.96875 z m 0,0"
           id="path43" />
      </g>
    </g>
  </g>
  <g
     fill="#f58e00"
     fill-opacity="1"
     id="g49"
     transform="translate(-41.972656,-150.21875)">
    <g
       transform="translate(148.27258,189.56205)"
       id="g48">
      <g
         id="g47">
        <path
           d="M 0.5,-4.1875 H 1.46875 V 0 H 0.5 Z m 0,0"
           id="path46" />
      </g>
    </g>
  </g>
  <g
     fill="#f58e00"
     fill-opacity="1"
     id="g52"
     transform="translate(-41.972656,-150.21875)">
    <g
       transform="translate(153.72165,189.56205)"
       id="g51">
      <g
         id="g50">
        <path
           d="m 2.3125,-4.1875 c 0.363281,0 0.679688,0.0625 0.953125,0.1875 0.28125,0.125 0.492187,0.304688 0.640625,0.53125 0.144531,0.21875 0.21875,0.484375 0.21875,0.796875 0,0.3125 -0.074219,0.585937 -0.21875,0.8125 -0.148438,0.230469 -0.359375,0.40625 -0.640625,0.53125 C 2.992188,-1.210938 2.675781,-1.15625 2.3125,-1.15625 H 1.46875 V 0 H 0.5 v -4.1875 z m -0.0625,2.25 c 0.289062,0 0.507812,-0.0625 0.65625,-0.1875 0.15625,-0.132812 0.234375,-0.316406 0.234375,-0.546875 0,-0.226563 -0.078125,-0.40625 -0.234375,-0.53125 C 2.757812,-3.335938 2.539062,-3.40625 2.25,-3.40625 H 1.46875 v 1.46875 z m 0,0"
           id="path49" />
      </g>
    </g>
  </g>
  <g
     fill="#f58e00"
     fill-opacity="1"
     id="g55"
     transform="translate(-41.972656,-150.21875)">
    <g
       transform="translate(161.58721,189.56205)"
       id="g54">
      <g
         id="g53">
        <path
           d="m 0.5,-4.1875 h 0.96875 v 3.390625 H 3.5625 V 0 H 0.5 Z m 0,0"
           id="path52" />
      </g>
    </g>
  </g>
  <g
     fill="#f58e00"
     fill-opacity="1"
     id="g58"
     transform="translate(-41.972656,-150.21875)">
    <g
       transform="translate(168.68715,189.56205)"
       id="g57">
      <g
         id="g56">
        <path
           d="M 3.734375,-0.78125 V 0 H 0.5 v -4.1875 h 3.15625 v 0.78125 H 1.453125 V -2.5 H 3.40625 v 0.75 H 1.453125 v 0.96875 z m 0,0"
           id="path55" />
      </g>
    </g>
  </g>
  <g
     fill="#f58e00"
     fill-opacity="1"
     id="g61"
     transform="translate(-41.972656,-150.21875)">
    <g
       transform="translate(176.18784,189.56205)"
       id="g60">
      <g
         id="g59">
        <path
           d="M 3.140625,0 2.125,-1.453125 1.125,0 H 0.015625 L 1.5625,-2.125 0.09375,-4.1875 H 1.203125 L 2.15625,-2.828125 3.109375,-4.1875 H 4.15625 L 2.6875,-2.171875 4.25,0 Z m 0,0"
           id="path58" />
      </g>
    </g>
  </g>
  <g
     fill="#f58e00"
     fill-opacity="1"
     id="g67"
     transform="translate(-41.972656,-150.21875)">
    <g
       transform="translate(189.12563,189.56205)"
       id="g66">
      <g
         id="g65">
        <path
           d="M 0.5,-4.1875 H 1.46875 V 0 H 0.5 Z m 0,0"
           id="path64" />
      </g>
    </g>
  </g>
  <g
     fill="#f58e00"
     fill-opacity="1"
     id="g70"
     transform="translate(-41.972656,-150.21875)">
    <g
       transform="translate(194.5747,189.56205)"
       id="g69">
      <g
         id="g68">
        <path
           d="M 4.34375,-4.1875 V 0 H 3.546875 L 1.453125,-2.546875 V 0 H 0.5 V -4.1875 H 1.296875 L 3.375,-1.640625 V -4.1875 Z m 0,0"
           id="path67" />
      </g>
    </g>
  </g>
  <g
     fill="#f58e00"
     fill-opacity="1"
     id="g76"
     transform="translate(-41.972656,-150.21875)">
    <g
       transform="translate(208.07475,189.56205)"
       id="g75">
      <g
         id="g74">
        <path
           d="M 1.875,0.078125 C 1.539062,0.078125 1.21875,0.03125 0.90625,-0.0625 0.601562,-0.15625 0.359375,-0.269531 0.171875,-0.40625 L 0.5,-1.140625 c 0.175781,0.125 0.390625,0.230469 0.640625,0.3125 0.25,0.085937 0.492187,0.125 0.734375,0.125 0.28125,0 0.484375,-0.039063 0.609375,-0.125 C 2.617188,-0.910156 2.6875,-1.019531 2.6875,-1.15625 2.6875,-1.25 2.644531,-1.328125 2.5625,-1.390625 2.488281,-1.460938 2.390625,-1.519531 2.265625,-1.5625 2.148438,-1.601562 1.988281,-1.644531 1.78125,-1.6875 1.457031,-1.769531 1.191406,-1.847656 0.984375,-1.921875 0.785156,-1.992188 0.613281,-2.113281 0.46875,-2.28125 0.320312,-2.445312 0.25,-2.671875 0.25,-2.953125 c 0,-0.25 0.0625,-0.46875 0.1875,-0.65625 0.132812,-0.195313 0.332031,-0.351563 0.59375,-0.46875 0.269531,-0.125 0.597656,-0.1875 0.984375,-0.1875 0.269531,0 0.53125,0.039063 0.78125,0.109375 0.257813,0.0625 0.484375,0.152344 0.671875,0.265625 L 3.171875,-3.15625 C 2.785156,-3.375 2.398438,-3.484375 2.015625,-3.484375 c -0.273437,0 -0.476563,0.046875 -0.609375,0.140625 -0.125,0.085938 -0.1875,0.199219 -0.1875,0.34375 0,0.148438 0.070312,0.257812 0.21875,0.328125 0.144531,0.0625 0.375,0.125 0.6875,0.1875 0.320312,0.085937 0.582031,0.164063 0.78125,0.234375 0.207031,0.074219 0.382812,0.195312 0.53125,0.359375 0.144531,0.167969 0.21875,0.386719 0.21875,0.65625 0,0.242187 -0.070312,0.460937 -0.203125,0.65625 C 3.316406,-0.378906 3.113281,-0.21875 2.84375,-0.09375 2.582031,0.0195312 2.257812,0.078125 1.875,0.078125 Z m 0,0"
           id="path73" />
      </g>
    </g>
  </g>
  <g
     fill="#f58e00"
     fill-opacity="1"
     id="g79"
     transform="translate(-41.972656,-150.21875)">
    <g
       transform="translate(215.37806,189.56205)"
       id="g78">
      <g
         id="g77">
        <path
           d="M 0.5,-4.1875 H 1.46875 V 0 H 0.5 Z m 0,0"
           id="path76" />
      </g>
    </g>
  </g>
  <g
     fill="#f58e00"
     fill-opacity="1"
     id="g82"
     transform="translate(-41.972656,-150.21875)">
    <g
       transform="translate(220.82713,189.56205)"
       id="g81">
      <g
         id="g80">
        <path
           d="m 0.5,-4.1875 h 0.96875 v 3.390625 H 3.5625 V 0 H 0.5 Z m 0,0"
           id="path79" />
      </g>
    </g>
  </g>
  <g
     fill="#f58e00"
     fill-opacity="1"
     id="g85"
     transform="translate(-41.972656,-150.21875)">
    <g
       transform="translate(227.92706,189.56205)"
       id="g84">
      <g
         id="g83">
        <path
           d="M 0.5,-4.1875 H 1.46875 V 0 H 0.5 Z m 0,0"
           id="path82" />
      </g>
    </g>
  </g>
  <g
     fill="#f58e00"
     fill-opacity="1"
     id="g88"
     transform="translate(-41.972656,-150.21875)">
    <g
       transform="translate(233.37613,189.56205)"
       id="g87">
      <g
         id="g86">
        <path
           d="m 2.5,0.078125 c -0.429688,0 -0.8125,-0.09375 -1.15625,-0.28125 C 1,-0.390625 0.726562,-0.644531 0.53125,-0.96875 0.332031,-1.300781 0.234375,-1.675781 0.234375,-2.09375 c 0,-0.414062 0.097656,-0.785156 0.296875,-1.109375 0.195312,-0.332031 0.46875,-0.59375 0.8125,-0.78125 0.34375,-0.1875 0.726562,-0.28125 1.15625,-0.28125 0.363281,0 0.691406,0.070313 0.984375,0.203125 0.300781,0.125 0.550781,0.308594 0.75,0.546875 l -0.625,0.578125 c -0.28125,-0.332031 -0.632813,-0.5 -1.046875,-0.5 -0.261719,0 -0.496094,0.058594 -0.703125,0.171875 -0.199219,0.117187 -0.355469,0.277344 -0.46875,0.484375 -0.117187,0.199219 -0.171875,0.429688 -0.171875,0.6875 0,0.261719 0.054688,0.496094 0.171875,0.703125 0.113281,0.199219 0.269531,0.355469 0.46875,0.46875 C 2.066406,-0.804688 2.300781,-0.75 2.5625,-0.75 c 0.414062,0 0.765625,-0.164062 1.046875,-0.5 l 0.625,0.578125 c -0.199219,0.242187 -0.449219,0.429687 -0.75,0.5625 -0.292969,0.125 -0.621094,0.1875 -0.984375,0.1875 z m 0,0"
           id="path85" />
      </g>
    </g>
  </g>
  <g
     fill="#f58e00"
     fill-opacity="1"
     id="g91"
     transform="translate(-41.972656,-150.21875)">
    <g
       transform="translate(241.24768,189.56205)"
       id="g90">
      <g
         id="g89">
        <path
           d="m 2.53125,0.078125 c -0.4375,0 -0.835938,-0.09375 -1.1875,-0.28125 C 1,-0.390625 0.726562,-0.648438 0.53125,-0.984375 0.332031,-1.316406 0.234375,-1.6875 0.234375,-2.09375 0.234375,-2.5 0.332031,-2.867188 0.53125,-3.203125 0.726562,-3.535156 1,-3.796875 1.34375,-3.984375 c 0.351562,-0.1875 0.75,-0.28125 1.1875,-0.28125 0.425781,0 0.8125,0.09375 1.15625,0.28125 0.351562,0.1875 0.628906,0.449219 0.828125,0.78125 C 4.710938,-2.867188 4.8125,-2.5 4.8125,-2.09375 c 0,0.40625 -0.101562,0.777344 -0.296875,1.109375 -0.199219,0.335937 -0.476563,0.59375 -0.828125,0.78125 -0.34375,0.1875 -0.730469,0.28125 -1.15625,0.28125 z m 0,-0.828125 c 0.238281,0 0.457031,-0.054688 0.65625,-0.171875 0.207031,-0.113281 0.367188,-0.269531 0.484375,-0.46875 0.113281,-0.207031 0.171875,-0.441406 0.171875,-0.703125 0,-0.257812 -0.058594,-0.488281 -0.171875,-0.6875 C 3.554688,-2.988281 3.394531,-3.148438 3.1875,-3.265625 2.988281,-3.378906 2.769531,-3.4375 2.53125,-3.4375 c -0.25,0 -0.476562,0.058594 -0.671875,0.171875 -0.199219,0.117187 -0.355469,0.277344 -0.46875,0.484375 -0.117187,0.199219 -0.171875,0.429688 -0.171875,0.6875 0,0.261719 0.054688,0.496094 0.171875,0.703125 0.113281,0.199219 0.269531,0.355469 0.46875,0.46875 C 2.054688,-0.804688 2.28125,-0.75 2.53125,-0.75 Z m 0,0"
           id="path88" />
      </g>
    </g>
  </g>
  <g
     fill="#f58e00"
     fill-opacity="1"
     id="g97"
     transform="translate(-41.972656,-150.21875)">
    <g
       transform="translate(254.96305,189.56205)"
       id="g96">
      <g
         id="g95">
        <path
           d="m 2.3125,-4.1875 c 0.363281,0 0.679688,0.0625 0.953125,0.1875 0.28125,0.125 0.492187,0.304688 0.640625,0.53125 0.144531,0.21875 0.21875,0.484375 0.21875,0.796875 0,0.3125 -0.074219,0.585937 -0.21875,0.8125 -0.148438,0.230469 -0.359375,0.40625 -0.640625,0.53125 C 2.992188,-1.210938 2.675781,-1.15625 2.3125,-1.15625 H 1.46875 V 0 H 0.5 v -4.1875 z m -0.0625,2.25 c 0.289062,0 0.507812,-0.0625 0.65625,-0.1875 0.15625,-0.132812 0.234375,-0.316406 0.234375,-0.546875 0,-0.226563 -0.078125,-0.40625 -0.234375,-0.53125 C 2.757812,-3.335938 2.539062,-3.40625 2.25,-3.40625 H 1.46875 v 1.46875 z m 0,0"
           id="path94" />
      </g>
    </g>
  </g>
  <g
     fill="#f58e00"
     fill-opacity="1"
     id="g100"
     transform="translate(-41.972656,-150.21875)">
    <g
       transform="translate(262.82861,189.56205)"
       id="g99">
      <g
         id="g98">
        <path
           d="m 2.5,0.078125 c -0.429688,0 -0.8125,-0.09375 -1.15625,-0.28125 C 1,-0.390625 0.726562,-0.644531 0.53125,-0.96875 0.332031,-1.300781 0.234375,-1.675781 0.234375,-2.09375 c 0,-0.414062 0.097656,-0.785156 0.296875,-1.109375 0.195312,-0.332031 0.46875,-0.59375 0.8125,-0.78125 0.34375,-0.1875 0.726562,-0.28125 1.15625,-0.28125 0.363281,0 0.691406,0.070313 0.984375,0.203125 0.300781,0.125 0.550781,0.308594 0.75,0.546875 l -0.625,0.578125 c -0.28125,-0.332031 -0.632813,-0.5 -1.046875,-0.5 -0.261719,0 -0.496094,0.058594 -0.703125,0.171875 -0.199219,0.117187 -0.355469,0.277344 -0.46875,0.484375 -0.117187,0.199219 -0.171875,0.429688 -0.171875,0.6875 0,0.261719 0.054688,0.496094 0.171875,0.703125 0.113281,0.199219 0.269531,0.355469 0.46875,0.46875 C 2.066406,-0.804688 2.300781,-0.75 2.5625,-0.75 c 0.414062,0 0.765625,-0.164062 1.046875,-0.5 l 0.625,0.578125 c -0.199219,0.242187 -0.449219,0.429687 -0.75,0.5625 -0.292969,0.125 -0.621094,0.1875 -0.984375,0.1875 z m 0,0"
           id="path97" />
      </g>
    </g>
  </g>
  <g
     fill="#f58e00"
     fill-opacity="1"
     id="g103"
     transform="translate(-41.972656,-150.21875)">
    <g
       transform="translate(270.70015,189.56205)"
       id="g102">
      <g
         id="g101">
        <path
           d="m 3.171875,0 -0.8125,-1.171875 H 1.46875 V 0 H 0.5 v -4.1875 h 1.8125 c 0.363281,0 0.679688,0.0625 0.953125,0.1875 0.28125,0.125 0.492187,0.304688 0.640625,0.53125 0.144531,0.21875 0.21875,0.484375 0.21875,0.796875 0,0.3125 -0.074219,0.585937 -0.21875,0.8125 -0.148438,0.21875 -0.359375,0.390625 -0.640625,0.515625 L 4.203125,0 Z m -0.03125,-2.671875 c 0,-0.226563 -0.078125,-0.40625 -0.234375,-0.53125 C 2.757812,-3.335938 2.539062,-3.40625 2.25,-3.40625 H 1.46875 V -1.9375 H 2.25 C 2.539062,-1.9375 2.757812,-2 2.90625,-2.125 3.0625,-2.257812 3.140625,-2.441406 3.140625,-2.671875 Z m 0,0"
           id="path100" />
      </g>
    </g>
  </g>
  <g
     fill="#f58e00"
     fill-opacity="1"
     id="g109"
     transform="translate(-41.972656,-150.21875)">
    <g
       transform="translate(283.76356,189.56205)"
       id="g108">
      <g
         id="g107">
        <path
           d="m 0.5,-4.1875 h 1.90625 c 0.445312,0 0.84375,0.089844 1.1875,0.265625 0.351562,0.167969 0.625,0.414063 0.8125,0.734375 0.195312,0.3125 0.296875,0.679688 0.296875,1.09375 0,0.417969 -0.101563,0.789062 -0.296875,1.109375 C 4.21875,-0.671875 3.945312,-0.425781 3.59375,-0.25 3.25,-0.0820312 2.851562,0 2.40625,0 H 0.5 Z m 1.859375,3.390625 c 0.414063,0 0.75,-0.113281 1,-0.34375 0.25,-0.238281 0.375,-0.554687 0.375,-0.953125 0,-0.394531 -0.125,-0.707031 -0.375,-0.9375 -0.25,-0.238281 -0.585937,-0.359375 -1,-0.359375 H 1.46875 v 2.59375 z m 0,0"
           id="path106" />
      </g>
    </g>
  </g>
  <g
     fill="#f58e00"
     fill-opacity="1"
     id="g112"
     transform="translate(-41.972656,-150.21875)">
    <g
       transform="translate(292.19136,189.56205)"
       id="g111">
      <g
         id="g110">
        <path
           d="M 3.734375,-0.78125 V 0 H 0.5 v -4.1875 h 3.15625 v 0.78125 H 1.453125 V -2.5 H 3.40625 v 0.75 H 1.453125 v 0.96875 z m 0,0"
           id="path109" />
      </g>
    </g>
  </g>
  <g
     fill="#f58e00"
     fill-opacity="1"
     id="g115"
     transform="translate(-41.972656,-150.21875)">
    <g
       transform="translate(299.69206,189.56205)"
       id="g114">
      <g
         id="g113">
        <path
           d="M 1.875,0.078125 C 1.539062,0.078125 1.21875,0.03125 0.90625,-0.0625 0.601562,-0.15625 0.359375,-0.269531 0.171875,-0.40625 L 0.5,-1.140625 c 0.175781,0.125 0.390625,0.230469 0.640625,0.3125 0.25,0.085937 0.492187,0.125 0.734375,0.125 0.28125,0 0.484375,-0.039063 0.609375,-0.125 C 2.617188,-0.910156 2.6875,-1.019531 2.6875,-1.15625 2.6875,-1.25 2.644531,-1.328125 2.5625,-1.390625 2.488281,-1.460938 2.390625,-1.519531 2.265625,-1.5625 2.148438,-1.601562 1.988281,-1.644531 1.78125,-1.6875 1.457031,-1.769531 1.191406,-1.847656 0.984375,-1.921875 0.785156,-1.992188 0.613281,-2.113281 0.46875,-2.28125 0.320312,-2.445312 0.25,-2.671875 0.25,-2.953125 c 0,-0.25 0.0625,-0.46875 0.1875,-0.65625 0.132812,-0.195313 0.332031,-0.351563 0.59375,-0.46875 0.269531,-0.125 0.597656,-0.1875 0.984375,-0.1875 0.269531,0 0.53125,0.039063 0.78125,0.109375 0.257813,0.0625 0.484375,0.152344 0.671875,0.265625 L 3.171875,-3.15625 C 2.785156,-3.375 2.398438,-3.484375 2.015625,-3.484375 c -0.273437,0 -0.476563,0.046875 -0.609375,0.140625 -0.125,0.085938 -0.1875,0.199219 -0.1875,0.34375 0,0.148438 0.070312,0.257812 0.21875,0.328125 0.144531,0.0625 0.375,0.125 0.6875,0.1875 0.320312,0.085937 0.582031,0.164063 0.78125,0.234375 0.207031,0.074219 0.382812,0.195312 0.53125,0.359375 0.144531,0.167969 0.21875,0.386719 0.21875,0.65625 0,0.242187 -0.070312,0.460937 -0.203125,0.65625 C 3.316406,-0.378906 3.113281,-0.21875 2.84375,-0.09375 2.582031,0.0195312 2.257812,0.078125 1.875,0.078125 Z m 0,0"
           id="path112" />
      </g>
    </g>
  </g>
  <g
     fill="#f58e00"
     fill-opacity="1"
     id="g118"
     transform="translate(-41.972656,-150.21875)">
    <g
       transform="translate(306.99536,189.56205)"
       id="g117">
      <g
         id="g116">
        <path
           d="M 0.5,-4.1875 H 1.46875 V 0 H 0.5 Z m 0,0"
           id="path115" />
      </g>
    </g>
  </g>
  <g
     fill="#f58e00"
     fill-opacity="1"
     id="g121"
     transform="translate(-41.972656,-150.21875)">
    <g
       transform="translate(312.44443,189.56205)"
       id="g120">
      <g
         id="g119">
        <path
           d="M 3.328125,-2.15625 H 4.21875 v 1.703125 C 3.988281,-0.285156 3.722656,-0.15625 3.421875,-0.0625 3.117188,0.03125 2.816406,0.078125 2.515625,0.078125 c -0.4375,0 -0.828125,-0.09375 -1.171875,-0.28125 C 1,-0.390625 0.726562,-0.644531 0.53125,-0.96875 0.332031,-1.300781 0.234375,-1.675781 0.234375,-2.09375 c 0,-0.414062 0.097656,-0.785156 0.296875,-1.109375 0.195312,-0.332031 0.46875,-0.59375 0.8125,-0.78125 0.351562,-0.1875 0.75,-0.28125 1.1875,-0.28125 0.375,0 0.707031,0.0625 1,0.1875 0.300781,0.125 0.554688,0.308594 0.765625,0.546875 l -0.625,0.5625 C 3.367188,-3.28125 3.003906,-3.4375 2.578125,-3.4375 c -0.261719,0 -0.496094,0.058594 -0.703125,0.171875 -0.210938,0.117187 -0.371094,0.277344 -0.484375,0.484375 -0.117187,0.199219 -0.171875,0.429688 -0.171875,0.6875 0,0.261719 0.054688,0.496094 0.171875,0.703125 0.113281,0.199219 0.269531,0.355469 0.46875,0.46875 0.207031,0.117187 0.445313,0.171875 0.71875,0.171875 0.269531,0 0.519531,-0.0625 0.75,-0.1875 z m 0,0"
           id="path118" />
      </g>
    </g>
  </g>
  <g
     fill="#f58e00"
     fill-opacity="1"
     id="g124"
     transform="translate(-41.972656,-150.21875)">
    <g
       transform="translate(320.54325,189.56205)"
       id="g123">
      <g
         id="g122">
        <path
           d="M 4.34375,-4.1875 V 0 H 3.546875 L 1.453125,-2.546875 V 0 H 0.5 V -4.1875 H 1.296875 L 3.375,-1.640625 V -4.1875 Z m 0,0"
           id="path121" />
      </g>
    </g>
  </g>
</svg>
