<?xml version="1.0" encoding="UTF-8" standalone="no"?>
<svg
   width="324.63498"
   zoomAndPan="magnify"
   viewBox="0 0 243.47623 40.499988"
   height="53.999985"
   preserveAspectRatio="xMidYMid"
   version="1.0"
   id="svg110"
   sodipodi:docname="4.svg"
   xmlns:inkscape="http://www.inkscape.org/namespaces/inkscape"
   xmlns:sodipodi="http://sodipodi.sourceforge.net/DTD/sodipodi-0.dtd"
   xmlns="http://www.w3.org/2000/svg"
   xmlns:svg="http://www.w3.org/2000/svg">
  <sodipodi:namedview
     id="namedview110"
     pagecolor="#ffffff"
     bordercolor="#000000"
     borderopacity="0.25"
     inkscape:showpageshadow="2"
     inkscape:pageopacity="0.0"
     inkscape:pagecheckerboard="0"
     inkscape:deskcolor="#d1d1d1" />
  <defs
     id="defs2">
    <clipPath
       id="00291cfe22">
      <path
         d="M 65.792969,167.1875 H 106.29297 V 200 H 65.792969 Z m 0,0"
         clip-rule="nonzero"
         id="path1" />
    </clipPath>
    <clipPath
       id="403e5b16e6">
      <path
         d="m 76,200 h 19 v 7.6875 H 76 Z m 0,0"
         clip-rule="nonzero"
         id="path2" />
    </clipPath>
  </defs>
  <g
     clip-path="url(#00291cfe22)"
     id="g3"
     transform="translate(-65.792968,-167.1875)">
    <path
       fill="#f58e00"
       d="M 105.20703,194.03516 H 66.996094 v -24.05469 c 0,-0.88672 0.699218,-1.58594 1.589844,-1.58594 h 35.031252 c 0.89062,0 1.58984,0.69922 1.58984,1.58594 z M 103.62109,167.1875 H 68.585938 c -1.523438,0 -2.792969,1.26953 -2.792969,2.79297 v 26.91015 c 0,1.52344 1.269531,2.79297 2.792969,2.79297 h 35.031252 c 1.52344,0 2.79297,-1.26953 2.79297,-2.79297 v -26.91015 c 0,-1.52344 -1.26953,-2.79297 -2.79297,-2.79297 h 0.004"
       fill-opacity="1"
       fill-rule="nonzero"
       id="path3" />
  </g>
  <g
     clip-path="url(#403e5b16e6)"
     id="g4"
     transform="translate(-65.792968,-167.1875)">
    <path
       fill="#f58e00"
       d="m 94.542969,205.83594 v 1.33593 c 0,0.31641 -0.253907,0.63282 -0.632813,0.63282 H 77.027344 c -0.320313,0 -0.636719,-0.25391 -0.636719,-0.63282 v -1.39453 c 0,-1.14453 0.828125,-2.03125 1.90625,-2.22265 l 1.839844,-2.66407 h 10.726562 l 1.839844,2.66407 c 1.015625,0.2539 1.839844,1.14453 1.839844,2.28125"
       fill-opacity="1"
       fill-rule="nonzero"
       id="path4" />
  </g>
  <path
     fill="#f58e00"
     d="m 10.789063,9.328118 v -5.32812 c 0,-0.31641 0.257813,-0.63281 0.636719,-0.63281 3.296875,0 5.964844,2.66406 5.964844,5.96093 0,0.32032 -0.253906,0.63672 -0.632813,0.63672 h -5.332031 c -0.320312,0 -0.636719,-0.2539 -0.636719,-0.63672"
     fill-opacity="1"
     fill-rule="nonzero"
     id="path5" />
  <path
     fill="#f58e00"
     d="m 14.914063,11.804688 c 0,3.30078 -2.664062,5.96484 -5.964843,5.96484 -3.296876,0 -5.96875,-2.66406 -5.96875,-5.96484 0,-3.30078 2.671874,-5.96485 5.96875,-5.96485 0.316406,0 0.636718,0.25 0.636718,0.63282 v 4.76171 h 4.757813 c 0.316406,0 0.570312,0.25391 0.570312,0.57032"
     fill-opacity="1"
     fill-rule="nonzero"
     id="path6" />
  <path
     fill="#f58e00"
     d="m 24.882813,16.628908 v 8.4414 c 0,0.31641 -0.257812,0.63281 -0.636719,0.63281 h -2.667968 c -0.316406,0 -0.632813,-0.25 -0.632813,-0.63281 v -8.4414 c 0,-0.31641 0.253907,-0.63672 0.632813,-0.63672 h 2.730468 c 0.316407,0 0.574219,0.32031 0.574219,0.63672"
     fill-opacity="1"
     fill-rule="nonzero"
     id="path7" />
  <path
     fill="#f58e00"
     d="m 31.164063,20.945308 v 4.125 c 0,0.31641 -0.257812,0.63281 -0.636719,0.63281 h -2.730468 c -0.316406,0 -0.632813,-0.25 -0.632813,-0.63281 v -4.125 c 0,-0.3164 0.253907,-0.63672 0.632813,-0.63672 h 2.730468 c 0.378907,0 0.636719,0.32032 0.636719,0.63672"
     fill-opacity="1"
     fill-rule="nonzero"
     id="path8" />
  <path
     fill="#f58e00"
     d="m 18.597657,20.308588 v 4.82422 c 0,0.32031 -0.257813,0.63281 -0.636719,0.63281 H 15.23047 c -0.316407,0 -0.632813,-0.2539 -0.632813,-0.63281 v -4.82422 c 0,-0.3164 0.253906,-0.63281 0.632813,-0.63281 h 2.730468 c 0.378906,0 0.636719,0.25391 0.636719,0.63281"
     fill-opacity="1"
     fill-rule="nonzero"
     id="path9" />
  <path
     fill="#f58e00"
     d="m 37.445312,13.582028 v 11.48828 c 0,0.31641 -0.2539,0.63281 -0.63672,0.63281 h -2.730466 c -0.3125,0 -0.632813,-0.25 -0.632813,-0.63281 v -11.48828 c 0,-0.31641 0.257813,-0.63672 0.632813,-0.63672 h 2.730466 c 0.38282,0.0664 0.63672,0.32031 0.63672,0.63672"
     fill-opacity="1"
     fill-rule="nonzero"
     id="path10" />
  <path
     fill="#f58e00"
     d="m 30.843751,15.550778 c 1.714843,2.09375 -1.269531,4.82422 -3.171875,2.92188 -0.574219,-0.51172 -0.761719,-1.26954 -0.574219,-2.03516 0,-0.0625 0,-0.0625 0.06641,-0.125 l -2.855469,-1.96875 c -0.761718,0.63281 -1.96875,0.69922 -2.796874,-0.12891 l -2.722657,1.58594 c 0.316407,1.40234 -0.703125,2.67188 -2.097656,2.67188 -1.203125,0 -2.160156,-0.95313 -2.160156,-2.16016 0,-0.69922 0.320312,-1.33203 0.828125,-1.71484 0.570312,-0.38282 1.207031,-0.57032 1.902344,-0.38282 0.316406,0.0664 0.632812,0.25782 0.890624,0.50782 l 2.726563,-1.58594 c -0.0625,-0.19141 -0.0625,-0.31641 -0.0625,-0.50781 0,-1.20313 0.953125,-2.15625 2.160156,-2.15625 1.394531,0 2.472657,1.33203 2.09375,2.79296 v 0.0625 l 2.855469,1.96875 c 0.570312,-0.4414 1.332031,-0.57421 2.03125,-0.38281 l 3.996094,-5.90234 c -0.316406,-0.37891 -0.507813,-0.82422 -0.507813,-1.32813 0,-0.70312 0.320313,-1.26953 0.824219,-1.71484 1.20703,-0.95703 3.04688,-0.32031 3.42969,1.20312 0.125,0.63672 0,1.33204 -0.38281,1.83985 -0.50782,0.63672 -1.39454,1.01953 -2.34766,0.69922 l -4.125001,5.83984"
     fill-opacity="1"
     fill-rule="nonzero"
     id="path11" />
  <g
     fill="#000000"
     fill-opacity="1"
     id="g14"
     transform="translate(-65.792968,-167.1875)">
    <g
       transform="translate(119.29321,188.93882)"
       id="g13">
      <g
         id="g12">
        <path
           d="M 1.316406,0 H 8.457031 V -7.363281 L 14.308594,-0.03125 20.386719,0 V -16.078125 H 13.28125 v 7.300781 L 7.394531,-16.109375 H 1.316406 Z m 0,0"
           id="path12" />
      </g>
    </g>
  </g>
  <g
     fill="#000000"
     fill-opacity="1"
     id="g17"
     transform="translate(-65.792968,-167.1875)">
    <g
       transform="translate(143.46573,188.93882)"
       id="g16">
      <g
         id="g15">
        <path
           d="m 11.445312,0.289062 c 6.625,0 10.355469,-3.023437 10.355469,-8.328124 0,-5.304688 -3.730469,-8.328126 -10.355469,-8.328126 -6.621093,0 -10.382812,3.023438 -10.382812,8.328126 0,5.304687 3.761719,8.328124 10.382812,8.328124 z m 0.03516,-4.984374 c -2.15625,0 -3.34375,-1.1875 -3.34375,-3.34375 0,-2.152344 1.1875,-3.34375 3.34375,-3.34375 2.089843,0 3.246093,1.191406 3.246093,3.34375 0,2.15625 -1.15625,3.34375 -3.246093,3.34375 z m 0,0"
           id="path14" />
      </g>
    </g>
  </g>
  <g
     fill="#000000"
     fill-opacity="1"
     id="g20"
     transform="translate(-65.792968,-167.1875)">
    <g
       transform="translate(168.82754,188.93882)"
       id="g19">
      <g
         id="g18">
        <path
           d="M 25.433594,0 V -16.078125 H 19.097656 L 13.375,-7.683594 7.683594,-16.078125 H 1.316406 V 0 h 7.140625 v -5.980469 l 3.601563,5.113281 h 2.636718 l 3.632813,-5.113281 V 0 Z m 0,0"
           id="path17" />
      </g>
    </g>
  </g>
  <g
     fill="#000000"
     fill-opacity="1"
     id="g23"
     transform="translate(-65.792968,-167.1875)">
    <g
       transform="translate(198.07864,188.93882)"
       id="g22">
      <g
         id="g21">
        <path
           d="M 15.917969,-2.445312 17.105469,0 h 6.847656 L 15.722656,-16.078125 H 8.585938 L 0.226562,0 h 6.878907 l 1.222656,-2.445312 z m -2.027344,-4.015626 h -3.539063 l 1.800782,-3.988281 z m 0,0"
           id="path20" />
      </g>
    </g>
  </g>
  <g
     fill="#000000"
     fill-opacity="1"
     id="g26"
     transform="translate(-65.792968,-167.1875)">
    <g
       transform="translate(224.75831,188.93882)"
       id="g25">
      <g
         id="g24">
        <path
           d="M 10.578125,-16.078125 H 1.316406 V 0 h 9.261719 c 6.269531,0 9.808594,-2.894531 9.808594,-8.039062 0,-5.144532 -3.539063,-8.039063 -9.808594,-8.039063 z m 0.191406,11.09375 h -2.3125 v -6.109375 h 2.3125 c 1.609375,0 2.542969,1.09375 2.542969,3.054688 0,1.960937 -0.933594,3.054687 -2.542969,3.054687 z m 0,0"
           id="path23" />
      </g>
    </g>
  </g>
  <g
     fill="#000000"
     fill-opacity="1"
     id="g29"
     transform="translate(-65.792968,-167.1875)">
    <g
       transform="translate(248.6094,188.93882)"
       id="g28">
      <g
         id="g27">
        <path
           d="M 8.457031,-16.078125 H 1.316406 V 0 h 7.140625 z m 0,0"
           id="path26" />
      </g>
    </g>
  </g>
  <g
     fill="#000000"
     fill-opacity="1"
     id="g32"
     transform="translate(-65.792968,-167.1875)">
    <g
       transform="translate(260.85691,188.93882)"
       id="g31">
      <g
         id="g30">
        <path
           d="m 13.664062,-6.914062 6.945313,0.902343 c -1.09375,4.019531 -4.566406,6.300781 -9.644531,6.300781 -6.335938,0 -9.902344,-3.023437 -9.902344,-8.328124 0,-5.304688 3.566406,-8.328126 9.902344,-8.328126 5.113281,0 8.585937,2.285157 9.644531,6.304688 l -6.945313,0.867188 c -0.320312,-1.382813 -1.285156,-2.1875 -2.667968,-2.1875 -1.832032,0 -2.859375,1.191406 -2.859375,3.34375 0,2.15625 1.027343,3.34375 2.859375,3.34375 1.414062,0 2.410156,-0.804688 2.667968,-2.21875 z m 0,0"
           id="path29" />
      </g>
    </g>
  </g>
  <g
     fill="#f58e00"
     fill-opacity="1"
     id="g35"
     transform="translate(-65.792968,-167.1875)">
    <g
       transform="translate(120.79321,203.57363)"
       id="g34">
      <g
         id="g33">
        <path
           d="m 3.171875,0 -0.8125,-1.171875 H 1.46875 V 0 H 0.5 v -4.1875 h 1.8125 c 0.363281,0 0.679688,0.0625 0.953125,0.1875 0.28125,0.125 0.492187,0.304688 0.640625,0.53125 0.144531,0.21875 0.21875,0.484375 0.21875,0.796875 0,0.3125 -0.074219,0.585937 -0.21875,0.8125 -0.148438,0.21875 -0.359375,0.390625 -0.640625,0.515625 L 4.203125,0 Z m -0.03125,-2.671875 c 0,-0.226563 -0.078125,-0.40625 -0.234375,-0.53125 C 2.757812,-3.335938 2.539062,-3.40625 2.25,-3.40625 H 1.46875 V -1.9375 H 2.25 C 2.539062,-1.9375 2.757812,-2 2.90625,-2.125 3.0625,-2.257812 3.140625,-2.441406 3.140625,-2.671875 Z m 0,0"
           id="path32" />
      </g>
    </g>
  </g>
  <g
     fill="#f58e00"
     fill-opacity="1"
     id="g38"
     transform="translate(-65.792968,-167.1875)">
    <g
       transform="translate(128.67672,203.57363)"
       id="g37">
      <g
         id="g36">
        <path
           d="M 3.734375,-0.78125 V 0 H 0.5 v -4.1875 h 3.15625 v 0.78125 H 1.453125 V -2.5 H 3.40625 v 0.75 H 1.453125 v 0.96875 z m 0,0"
           id="path35" />
      </g>
    </g>
  </g>
  <g
     fill="#f58e00"
     fill-opacity="1"
     id="g41"
     transform="translate(-65.792968,-167.1875)">
    <g
       transform="translate(136.17741,203.57363)"
       id="g40">
      <g
         id="g39">
        <path
           d="M 3.25,-0.890625 H 1.3125 L 0.9375,0 H -0.046875 L 1.8125,-4.1875 H 2.765625 L 4.640625,0 H 3.625 Z m -0.296875,-0.75 -0.671875,-1.59375 -0.65625,1.59375 z m 0,0"
           id="path38" />
      </g>
    </g>
  </g>
  <g
     fill="#f58e00"
     fill-opacity="1"
     id="g44"
     transform="translate(-65.792968,-167.1875)">
    <g
       transform="translate(144.24634,203.57363)"
       id="g43">
      <g
         id="g42">
        <path
           d="m 0.5,-4.1875 h 0.96875 v 3.390625 H 3.5625 V 0 H 0.5 Z m 0,0"
           id="path41" />
      </g>
    </g>
  </g>
  <g
     fill="#f58e00"
     fill-opacity="1"
     id="g47"
     transform="translate(-65.792968,-167.1875)">
    <g
       transform="translate(151.34628,203.57363)"
       id="g46">
      <g
         id="g45">
        <path
           d="M 1.359375,-3.40625 H 0.03125 V -4.1875 h 3.640625 v 0.78125 H 2.328125 V 0 h -0.96875 z m 0,0"
           id="path44" />
      </g>
    </g>
  </g>
  <g
     fill="#f58e00"
     fill-opacity="1"
     id="g50"
     transform="translate(-65.792968,-167.1875)">
    <g
       transform="translate(158.52995,203.57363)"
       id="g49">
      <g
         id="g48">
        <path
           d="M 0.5,-4.1875 H 1.46875 V 0 H 0.5 Z m 0,0"
           id="path47" />
      </g>
    </g>
  </g>
  <g
     fill="#f58e00"
     fill-opacity="1"
     id="g53"
     transform="translate(-65.792968,-167.1875)">
    <g
       transform="translate(163.97902,203.57363)"
       id="g52">
      <g
         id="g51">
        <path
           d="M 4.3125,0 4.296875,-2.515625 3.0625,-0.4375 H 2.640625 L 1.40625,-2.453125 V 0 H 0.5 v -4.1875 h 0.796875 l 1.5625,2.609375 L 4.40625,-4.1875 H 5.203125 L 5.21875,0 Z m 0,0"
           id="path50" />
      </g>
    </g>
  </g>
  <g
     fill="#f58e00"
     fill-opacity="1"
     id="g56"
     transform="translate(-65.792968,-167.1875)">
    <g
       transform="translate(173.17844,203.57363)"
       id="g55">
      <g
         id="g54">
        <path
           d="M 3.734375,-0.78125 V 0 H 0.5 v -4.1875 h 3.15625 v 0.78125 H 1.453125 V -2.5 H 3.40625 v 0.75 H 1.453125 v 0.96875 z m 0,0"
           id="path53" />
      </g>
    </g>
  </g>
  <g
     fill="#f58e00"
     fill-opacity="1"
     id="g62"
     transform="translate(-65.792968,-167.1875)">
    <g
       transform="translate(185.85904,203.57363)"
       id="g61">
      <g
         id="g60">
        <path
           d="M 1.875,0.078125 C 1.539062,0.078125 1.21875,0.03125 0.90625,-0.0625 0.601562,-0.15625 0.359375,-0.269531 0.171875,-0.40625 L 0.5,-1.140625 c 0.175781,0.125 0.390625,0.230469 0.640625,0.3125 0.25,0.085937 0.492187,0.125 0.734375,0.125 0.28125,0 0.484375,-0.039063 0.609375,-0.125 C 2.617188,-0.910156 2.6875,-1.019531 2.6875,-1.15625 2.6875,-1.25 2.644531,-1.328125 2.5625,-1.390625 2.488281,-1.460938 2.390625,-1.519531 2.265625,-1.5625 2.148438,-1.601562 1.988281,-1.644531 1.78125,-1.6875 1.457031,-1.769531 1.191406,-1.847656 0.984375,-1.921875 0.785156,-1.992188 0.613281,-2.113281 0.46875,-2.28125 0.320312,-2.445312 0.25,-2.671875 0.25,-2.953125 c 0,-0.25 0.0625,-0.46875 0.1875,-0.65625 0.132812,-0.195313 0.332031,-0.351563 0.59375,-0.46875 0.269531,-0.125 0.597656,-0.1875 0.984375,-0.1875 0.269531,0 0.53125,0.039063 0.78125,0.109375 0.257813,0.0625 0.484375,0.152344 0.671875,0.265625 L 3.171875,-3.15625 C 2.785156,-3.375 2.398438,-3.484375 2.015625,-3.484375 c -0.273437,0 -0.476563,0.046875 -0.609375,0.140625 -0.125,0.085938 -0.1875,0.199219 -0.1875,0.34375 0,0.148438 0.070312,0.257812 0.21875,0.328125 0.144531,0.0625 0.375,0.125 0.6875,0.1875 0.320312,0.085937 0.582031,0.164063 0.78125,0.234375 0.207031,0.074219 0.382812,0.195312 0.53125,0.359375 0.144531,0.167969 0.21875,0.386719 0.21875,0.65625 0,0.242187 -0.070312,0.460937 -0.203125,0.65625 C 3.316406,-0.378906 3.113281,-0.21875 2.84375,-0.09375 2.582031,0.0195312 2.257812,0.078125 1.875,0.078125 Z m 0,0"
           id="path59" />
      </g>
    </g>
  </g>
  <g
     fill="#f58e00"
     fill-opacity="1"
     id="g65"
     transform="translate(-65.792968,-167.1875)">
    <g
       transform="translate(193.16234,203.57363)"
       id="g64">
      <g
         id="g63">
        <path
           d="M 3.734375,-0.78125 V 0 H 0.5 v -4.1875 h 3.15625 v 0.78125 H 1.453125 V -2.5 H 3.40625 v 0.75 H 1.453125 v 0.96875 z m 0,0"
           id="path62" />
      </g>
    </g>
  </g>
  <g
     fill="#f58e00"
     fill-opacity="1"
     id="g68"
     transform="translate(-65.792968,-167.1875)">
    <g
       transform="translate(200.66304,203.57363)"
       id="g67">
      <g
         id="g66">
        <path
           d="m 5.03125,0.453125 c -0.136719,0.164063 -0.304688,0.289063 -0.5,0.375 -0.1875,0.09375 -0.402344,0.140625 -0.640625,0.140625 -0.3125,0 -0.59375,-0.070312 -0.84375,-0.203125 C 2.796875,0.628906 2.507812,0.390625 2.1875,0.046875 1.8125,0.00390625 1.472656,-0.113281 1.171875,-0.3125 c -0.292969,-0.195312 -0.523437,-0.445312 -0.6875,-0.75 -0.167969,-0.3125 -0.25,-0.65625 -0.25,-1.03125 0,-0.40625 0.097656,-0.773438 0.296875,-1.109375 0.195312,-0.332031 0.46875,-0.59375 0.8125,-0.78125 0.351562,-0.1875 0.75,-0.28125 1.1875,-0.28125 0.425781,0 0.8125,0.09375 1.15625,0.28125 0.351562,0.1875 0.628906,0.449219 0.828125,0.78125 C 4.710938,-2.867188 4.8125,-2.5 4.8125,-2.09375 c 0,0.492188 -0.136719,0.917969 -0.40625,1.28125 -0.273438,0.367188 -0.632812,0.621094 -1.078125,0.765625 0.09375,0.1015625 0.1875,0.175781 0.28125,0.21875 C 3.703125,0.222656 3.800781,0.25 3.90625,0.25 c 0.257812,0 0.488281,-0.105469 0.6875,-0.3125 z M 1.21875,-2.09375 c 0,0.261719 0.054688,0.496094 0.171875,0.703125 0.113281,0.199219 0.269531,0.355469 0.46875,0.46875 C 2.054688,-0.804688 2.28125,-0.75 2.53125,-0.75 c 0.238281,0 0.457031,-0.054688 0.65625,-0.171875 0.207031,-0.113281 0.367188,-0.269531 0.484375,-0.46875 0.113281,-0.207031 0.171875,-0.441406 0.171875,-0.703125 0,-0.257812 -0.058594,-0.488281 -0.171875,-0.6875 C 3.554688,-2.988281 3.394531,-3.148438 3.1875,-3.265625 2.988281,-3.378906 2.769531,-3.4375 2.53125,-3.4375 c -0.25,0 -0.476562,0.058594 -0.671875,0.171875 -0.199219,0.117187 -0.355469,0.277344 -0.46875,0.484375 -0.117187,0.199219 -0.171875,0.429688 -0.171875,0.6875 z m 0,0"
           id="path65" />
      </g>
    </g>
  </g>
  <g
     fill="#f58e00"
     fill-opacity="1"
     id="g71"
     transform="translate(-65.792968,-167.1875)">
    <g
       transform="translate(209.19852,203.57363)"
       id="g70">
      <g
         id="g69">
        <path
           d="m 2.359375,0.078125 c -0.605469,0 -1.074219,-0.1640625 -1.40625,-0.5 -0.335937,-0.332031 -0.5,-0.804687 -0.5,-1.421875 V -4.1875 H 1.4375 v 2.3125 c 0,0.75 0.304688,1.125 0.921875,1.125 0.300781,0 0.53125,-0.085938 0.6875,-0.265625 0.164063,-0.1875 0.25,-0.472656 0.25,-0.859375 V -4.1875 H 4.25 v 2.34375 c 0,0.617188 -0.167969,1.089844 -0.5,1.421875 -0.335938,0.3359375 -0.796875,0.5 -1.390625,0.5 z m 0,0"
           id="path68" />
      </g>
    </g>
  </g>
  <g
     fill="#f58e00"
     fill-opacity="1"
     id="g74"
     transform="translate(-65.792968,-167.1875)">
    <g
       transform="translate(217.39905,203.57363)"
       id="g73">
      <g
         id="g72">
        <path
           d="M 3.734375,-0.78125 V 0 H 0.5 v -4.1875 h 3.15625 v 0.78125 H 1.453125 V -2.5 H 3.40625 v 0.75 H 1.453125 v 0.96875 z m 0,0"
           id="path71" />
      </g>
    </g>
  </g>
  <g
     fill="#f58e00"
     fill-opacity="1"
     id="g77"
     transform="translate(-65.792968,-167.1875)">
    <g
       transform="translate(224.89974,203.57363)"
       id="g76">
      <g
         id="g75">
        <path
           d="M 4.34375,-4.1875 V 0 H 3.546875 L 1.453125,-2.546875 V 0 H 0.5 V -4.1875 H 1.296875 L 3.375,-1.640625 V -4.1875 Z m 0,0"
           id="path74" />
      </g>
    </g>
  </g>
  <g
     fill="#f58e00"
     fill-opacity="1"
     id="g80"
     transform="translate(-65.792968,-167.1875)">
    <g
       transform="translate(233.2199,203.57363)"
       id="g79">
      <g
         id="g78">
        <path
           d="m 2.5,0.078125 c -0.429688,0 -0.8125,-0.09375 -1.15625,-0.28125 C 1,-0.390625 0.726562,-0.644531 0.53125,-0.96875 0.332031,-1.300781 0.234375,-1.675781 0.234375,-2.09375 c 0,-0.414062 0.097656,-0.785156 0.296875,-1.109375 0.195312,-0.332031 0.46875,-0.59375 0.8125,-0.78125 0.34375,-0.1875 0.726562,-0.28125 1.15625,-0.28125 0.363281,0 0.691406,0.070313 0.984375,0.203125 0.300781,0.125 0.550781,0.308594 0.75,0.546875 l -0.625,0.578125 c -0.28125,-0.332031 -0.632813,-0.5 -1.046875,-0.5 -0.261719,0 -0.496094,0.058594 -0.703125,0.171875 -0.199219,0.117187 -0.355469,0.277344 -0.46875,0.484375 -0.117187,0.199219 -0.171875,0.429688 -0.171875,0.6875 0,0.261719 0.054688,0.496094 0.171875,0.703125 0.113281,0.199219 0.269531,0.355469 0.46875,0.46875 C 2.066406,-0.804688 2.300781,-0.75 2.5625,-0.75 c 0.414062,0 0.765625,-0.164062 1.046875,-0.5 l 0.625,0.578125 c -0.199219,0.242187 -0.449219,0.429687 -0.75,0.5625 -0.292969,0.125 -0.621094,0.1875 -0.984375,0.1875 z m 0,0"
           id="path77" />
      </g>
    </g>
  </g>
  <g
     fill="#f58e00"
     fill-opacity="1"
     id="g83"
     transform="translate(-65.792968,-167.1875)">
    <g
       transform="translate(241.09144,203.57363)"
       id="g82">
      <g
         id="g81">
        <path
           d="M 3.734375,-0.78125 V 0 H 0.5 v -4.1875 h 3.15625 v 0.78125 H 1.453125 V -2.5 H 3.40625 v 0.75 H 1.453125 v 0.96875 z m 0,0"
           id="path80" />
      </g>
    </g>
  </g>
  <g
     fill="#f58e00"
     fill-opacity="1"
     id="g89"
     transform="translate(-65.792968,-167.1875)">
    <g
       transform="translate(253.77204,203.57363)"
       id="g88">
      <g
         id="g87">
        <path
           d="M 3.25,-0.890625 H 1.3125 L 0.9375,0 H -0.046875 L 1.8125,-4.1875 H 2.765625 L 4.640625,0 H 3.625 Z m -0.296875,-0.75 -0.671875,-1.59375 -0.65625,1.59375 z m 0,0"
           id="path86" />
      </g>
    </g>
  </g>
  <g
     fill="#f58e00"
     fill-opacity="1"
     id="g92"
     transform="translate(-65.792968,-167.1875)">
    <g
       transform="translate(261.84096,203.57363)"
       id="g91">
      <g
         id="g90">
        <path
           d="M 4.34375,-4.1875 V 0 H 3.546875 L 1.453125,-2.546875 V 0 H 0.5 V -4.1875 H 1.296875 L 3.375,-1.640625 V -4.1875 Z m 0,0"
           id="path89" />
      </g>
    </g>
  </g>
  <g
     fill="#f58e00"
     fill-opacity="1"
     id="g95"
     transform="translate(-65.792968,-167.1875)">
    <g
       transform="translate(270.16112,203.57363)"
       id="g94">
      <g
         id="g93">
        <path
           d="M 3.25,-0.890625 H 1.3125 L 0.9375,0 H -0.046875 L 1.8125,-4.1875 H 2.765625 L 4.640625,0 H 3.625 Z m -0.296875,-0.75 -0.671875,-1.59375 -0.65625,1.59375 z m 0,0"
           id="path92" />
      </g>
    </g>
  </g>
  <g
     fill="#f58e00"
     fill-opacity="1"
     id="g98"
     transform="translate(-65.792968,-167.1875)">
    <g
       transform="translate(278.23004,203.57363)"
       id="g97">
      <g
         id="g96">
        <path
           d="m 0.5,-4.1875 h 0.96875 v 3.390625 H 3.5625 V 0 H 0.5 Z m 0,0"
           id="path95" />
      </g>
    </g>
  </g>
  <g
     fill="#f58e00"
     fill-opacity="1"
     id="g101"
     transform="translate(-65.792968,-167.1875)">
    <g
       transform="translate(285.32998,203.57363)"
       id="g100">
      <g
         id="g99">
        <path
           d="M 2.5,-1.484375 V 0 H 1.53125 v -1.5 l -1.609375,-2.6875 h 1.03125 L 2.0625,-2.328125 3.1875,-4.1875 h 0.953125 z m 0,0"
           id="path98" />
      </g>
    </g>
  </g>
  <g
     fill="#f58e00"
     fill-opacity="1"
     id="g104"
     transform="translate(-65.792968,-167.1875)">
    <g
       transform="translate(292.86058,203.57363)"
       id="g103">
      <g
         id="g102">
        <path
           d="M 1.875,0.078125 C 1.539062,0.078125 1.21875,0.03125 0.90625,-0.0625 0.601562,-0.15625 0.359375,-0.269531 0.171875,-0.40625 L 0.5,-1.140625 c 0.175781,0.125 0.390625,0.230469 0.640625,0.3125 0.25,0.085937 0.492187,0.125 0.734375,0.125 0.28125,0 0.484375,-0.039063 0.609375,-0.125 C 2.617188,-0.910156 2.6875,-1.019531 2.6875,-1.15625 2.6875,-1.25 2.644531,-1.328125 2.5625,-1.390625 2.488281,-1.460938 2.390625,-1.519531 2.265625,-1.5625 2.148438,-1.601562 1.988281,-1.644531 1.78125,-1.6875 1.457031,-1.769531 1.191406,-1.847656 0.984375,-1.921875 0.785156,-1.992188 0.613281,-2.113281 0.46875,-2.28125 0.320312,-2.445312 0.25,-2.671875 0.25,-2.953125 c 0,-0.25 0.0625,-0.46875 0.1875,-0.65625 0.132812,-0.195313 0.332031,-0.351563 0.59375,-0.46875 0.269531,-0.125 0.597656,-0.1875 0.984375,-0.1875 0.269531,0 0.53125,0.039063 0.78125,0.109375 0.257813,0.0625 0.484375,0.152344 0.671875,0.265625 L 3.171875,-3.15625 C 2.785156,-3.375 2.398438,-3.484375 2.015625,-3.484375 c -0.273437,0 -0.476563,0.046875 -0.609375,0.140625 -0.125,0.085938 -0.1875,0.199219 -0.1875,0.34375 0,0.148438 0.070312,0.257812 0.21875,0.328125 0.144531,0.0625 0.375,0.125 0.6875,0.1875 0.320312,0.085937 0.582031,0.164063 0.78125,0.234375 0.207031,0.074219 0.382812,0.195312 0.53125,0.359375 0.144531,0.167969 0.21875,0.386719 0.21875,0.65625 0,0.242187 -0.070312,0.460937 -0.203125,0.65625 C 3.316406,-0.378906 3.113281,-0.21875 2.84375,-0.09375 2.582031,0.0195312 2.257812,0.078125 1.875,0.078125 Z m 0,0"
           id="path101" />
      </g>
    </g>
  </g>
  <g
     fill="#f58e00"
     fill-opacity="1"
     id="g107"
     transform="translate(-65.792968,-167.1875)">
    <g
       transform="translate(300.16388,203.57363)"
       id="g106">
      <g
         id="g105">
        <path
           d="M 0.5,-4.1875 H 1.46875 V 0 H 0.5 Z m 0,0"
           id="path104" />
      </g>
    </g>
  </g>
  <g
     fill="#f58e00"
     fill-opacity="1"
     id="g110"
     transform="translate(-65.792968,-167.1875)">
    <g
       transform="translate(305.61295,203.57363)"
       id="g109">
      <g
         id="g108">
        <path
           d="M 1.875,0.078125 C 1.539062,0.078125 1.21875,0.03125 0.90625,-0.0625 0.601562,-0.15625 0.359375,-0.269531 0.171875,-0.40625 L 0.5,-1.140625 c 0.175781,0.125 0.390625,0.230469 0.640625,0.3125 0.25,0.085937 0.492187,0.125 0.734375,0.125 0.28125,0 0.484375,-0.039063 0.609375,-0.125 C 2.617188,-0.910156 2.6875,-1.019531 2.6875,-1.15625 2.6875,-1.25 2.644531,-1.328125 2.5625,-1.390625 2.488281,-1.460938 2.390625,-1.519531 2.265625,-1.5625 2.148438,-1.601562 1.988281,-1.644531 1.78125,-1.6875 1.457031,-1.769531 1.191406,-1.847656 0.984375,-1.921875 0.785156,-1.992188 0.613281,-2.113281 0.46875,-2.28125 0.320312,-2.445312 0.25,-2.671875 0.25,-2.953125 c 0,-0.25 0.0625,-0.46875 0.1875,-0.65625 0.132812,-0.195313 0.332031,-0.351563 0.59375,-0.46875 0.269531,-0.125 0.597656,-0.1875 0.984375,-0.1875 0.269531,0 0.53125,0.039063 0.78125,0.109375 0.257813,0.0625 0.484375,0.152344 0.671875,0.265625 L 3.171875,-3.15625 C 2.785156,-3.375 2.398438,-3.484375 2.015625,-3.484375 c -0.273437,0 -0.476563,0.046875 -0.609375,0.140625 -0.125,0.085938 -0.1875,0.199219 -0.1875,0.34375 0,0.148438 0.070312,0.257812 0.21875,0.328125 0.144531,0.0625 0.375,0.125 0.6875,0.1875 0.320312,0.085937 0.582031,0.164063 0.78125,0.234375 0.207031,0.074219 0.382812,0.195312 0.53125,0.359375 0.144531,0.167969 0.21875,0.386719 0.21875,0.65625 0,0.242187 -0.070312,0.460937 -0.203125,0.65625 C 3.316406,-0.378906 3.113281,-0.21875 2.84375,-0.09375 2.582031,0.0195312 2.257812,0.078125 1.875,0.078125 Z m 0,0"
           id="path107" />
      </g>
    </g>
  </g>
</svg>
