<?xml version="1.0" encoding="UTF-8" standalone="no"?>
<svg
   width="373.77145"
   zoomAndPan="magnify"
   viewBox="0 0 280.32859 101.41496"
   height="135.21996"
   preserveAspectRatio="xMidYMid"
   version="1.0"
   id="svg178"
   sodipodi:docname="nomads_logo.svg"
   xmlns:inkscape="http://www.inkscape.org/namespaces/inkscape"
   xmlns:sodipodi="http://sodipodi.sourceforge.net/DTD/sodipodi-0.dtd"
   xmlns="http://www.w3.org/2000/svg"
   xmlns:svg="http://www.w3.org/2000/svg">
  <sodipodi:namedview
     id="namedview178"
     pagecolor="#ffffff"
     bordercolor="#000000"
     borderopacity="0.25"
     inkscape:showpageshadow="2"
     inkscape:pageopacity="0.0"
     inkscape:pagecheckerboard="0"
     inkscape:deskcolor="#d1d1d1" />
  <defs
     id="defs8">
    <clipPath
       id="783a394957">
      <path
         d="m 145,126.44531 h 8 V 137 h -8 z m 0,0"
         clip-rule="nonzero"
         id="path1" />
    </clipPath>
    <clipPath
       id="a46adc216a">
      <path
         d="M 134.10156,138 H 142 v 11 h -7.89844 z m 0,0"
         clip-rule="nonzero"
         id="path2" />
    </clipPath>
    <clipPath
       id="752bde5bd0">
      <path
         d="m 150,153 h 6 v 3.44531 h -6 z m 0,0"
         clip-rule="nonzero"
         id="path3" />
    </clipPath>
    <clipPath
       id="b53a883c99">
      <path
         d="m 149,143 h 7.60156 v 11 H 149 Z m 0,0"
         clip-rule="nonzero"
         id="path4" />
    </clipPath>
    <clipPath
       id="297d3af03c">
      <path
         d="m 115,130 h 7.96094 v 7 H 115 Z m 0,0"
         clip-rule="nonzero"
         id="path5" />
    </clipPath>
    <clipPath
       id="b78419fb4d">
      <path
         d="m 102,126.44531 h 14 v 26.25 h -14 z m 0,0"
         clip-rule="nonzero"
         id="path6" />
    </clipPath>
    <clipPath
       id="fa8e14cd39">
      <path
         d="m 169.86328,123.6875 h 35.25 v 35.25 h -35.25 z m 0,0"
         clip-rule="nonzero"
         id="path7" />
    </clipPath>
    <clipPath
       id="08c7819c7a">
      <path
         d="m 48,133.27344 h 36.597656 v 20.25 H 48 Z m 0,0"
         clip-rule="nonzero"
         id="path8" />
    </clipPath>
  </defs>
  <g
     fill="#000000"
     fill-opacity="1"
     id="g11"
     inkscape:export-filename="g11.svg"
     inkscape:export-xdpi="96"
     inkscape:export-ydpi="96"
     transform="translate(-48.044059,-123.70703)">
    <g
       transform="translate(77.60784,192.95162)"
       id="g10">
      <g
         id="g9">
        <path
           d="m 1.960938,0 h 10.625 V -10.960938 L 21.296875,-0.046875 30.34375,0 V -23.929688 H 19.765625 v 10.863282 L 11.007812,-23.976562 H 1.960938 Z m 0,0"
           id="path9" />
      </g>
    </g>
  </g>
  <g
     fill="#000000"
     fill-opacity="1"
     id="g14"
     transform="translate(-48.044059,-123.70703)">
    <g
       transform="translate(113.58992,192.95162)"
       id="g13">
      <g
         id="g12">
        <path
           d="m 17.039062,0.429688 c 9.859376,0 15.410157,-4.496094 15.410157,-12.394532 0,-7.898437 -5.550781,-12.394531 -15.410157,-12.394531 -9.859374,0 -15.460937,4.496094 -15.460937,12.394531 0,7.898438 5.601563,12.394532 15.460937,12.394532 z m 0.04688,-7.417969 c -3.207032,0 -4.976563,-1.769531 -4.976563,-4.976563 0,-3.207031 1.769531,-4.976562 4.976563,-4.976562 3.109374,0 4.835937,1.769531 4.835937,4.976562 0,3.207032 -1.726563,4.976563 -4.835937,4.976563 z m 0,0"
           id="path11" />
      </g>
    </g>
  </g>
  <g
     fill="#000000"
     fill-opacity="1"
     id="g17"
     transform="translate(-48.044059,-123.70703)">
    <g
       transform="translate(151.34229,192.95162)"
       id="g16">
      <g
         id="g15">
        <path
           d="M 37.859375,0 V -23.929688 H 28.429688 L 19.910156,-11.4375 11.4375,-23.929688 H 1.960938 V 0 h 10.625 v -8.902344 l 5.363281,7.609375 h 3.921875 L 27.28125,-8.902344 V 0 Z m 0,0"
           id="path14" />
      </g>
    </g>
  </g>
  <g
     fill="#000000"
     fill-opacity="1"
     id="g20"
     transform="translate(-48.044059,-123.70703)">
    <g
       transform="translate(194.88402,192.95162)"
       id="g19">
      <g
         id="g18">
        <path
           d="M 23.691406,-3.636719 25.460938,0 H 35.65625 L 23.402344,-23.929688 h -10.625 L 0.335938,0 h 10.242187 l 1.816406,-3.636719 z m -3.015625,-5.984375 h -5.265625 l 2.679688,-5.933594 z m 0,0"
           id="path17" />
      </g>
    </g>
  </g>
  <g
     fill="#000000"
     fill-opacity="1"
     id="g23"
     transform="translate(-48.044059,-123.70703)">
    <g
       transform="translate(234.59808,192.95162)"
       id="g22">
      <g
         id="g21">
        <path
           d="M 15.746094,-23.929688 H 1.960938 V 0 h 13.785156 c 9.332031,0 14.597656,-4.308594 14.597656,-11.964844 0,-7.65625 -5.265625,-11.964844 -14.597656,-11.964844 z m 0.289062,16.511719 h -3.449218 v -9.09375 h 3.449218 c 2.390625,0 3.777344,1.628907 3.777344,4.546875 0,2.917969 -1.386719,4.546875 -3.777344,4.546875 z m 0,0"
           id="path20" />
      </g>
    </g>
  </g>
  <g
     fill="#000000"
     fill-opacity="1"
     id="g26"
     transform="translate(-48.044059,-123.70703)">
    <g
       transform="translate(270.10169,192.95162)"
       id="g25">
      <g
         id="g24">
        <path
           d="m 16.367188,0.335938 c -7.128907,0.046874 -12.25,-2.441407 -14.261719,-6.84375 l 8.566406,-2.011719 c 0.863281,1.578125 2.921875,2.488281 5.695313,2.488281 3.207031,0 4.980468,-0.476562 4.980468,-1.339844 0,-2.96875 -20.152344,0.097656 -20.152344,-8.949218 0,-5.167969 5.457032,-8.039063 15.125,-8.039063 7.132813,0 12.253907,2.488281 14.261719,6.9375 l -8.566406,2.011719 c -0.8125,-1.675782 -2.871094,-2.585938 -5.695313,-2.585938 -3.207031,0 -4.976562,0.480469 -4.976562,1.4375 0,2.582032 20.148438,-0.09766 20.148438,8.949219 0,5.214844 -5.457032,8.039063 -15.125,7.945313 z m 0,0"
           id="path23" />
      </g>
    </g>
  </g>
  <path
     stroke-linecap="butt"
     fill="none"
     stroke-linejoin="miter"
     d="M 280.32856,13.867195 H 161.0614"
     stroke="#000000"
     stroke-width="7.52411"
     stroke-opacity="1"
     stroke-miterlimit="4"
     id="path26" />
  <path
     stroke-linecap="butt"
     fill="none"
     stroke-linejoin="miter"
     d="M 276.56141,78.359385 V 16.511725"
     stroke="#000000"
     stroke-width="7.5"
     stroke-opacity="1"
     stroke-miterlimit="4"
     id="path27" />
  <path
     stroke-linecap="butt"
     fill="none"
     stroke-linejoin="miter"
     d="M 4.3387529,97.343754 H 67.666882"
     stroke="#000000"
     stroke-width="7.5"
     stroke-opacity="1"
     stroke-miterlimit="4"
     id="path28" />
  <path
     stroke-linecap="butt"
     fill="none"
     stroke-linejoin="miter"
     d="m 8.0848468,37.000003 v 61.84766"
     stroke="#000000"
     stroke-width="7.5"
     stroke-opacity="1"
     stroke-miterlimit="4"
     id="path29" />
  <path
     fill="#f58e00"
     d="m 100.03016,15.167975 c 0.14062,-0.16016 0.125,-0.40234 -0.0312,-0.55859 -0.16016,-0.14063 -0.42188,-0.1211 -0.5586,0.0352 l -8.57421,10.2461 c -0.14063,0.15625 -0.1211,0.41796 0.0352,0.55859 0.17578,0.13672 0.41797,0.12109 0.5586,-0.0352 z m -8.624999,10.71484 c -0.20703,-0.0703 -0.41797,0.0352 -0.50391,0.2461 -0.0703,0.1914 0.0352,0.41797 0.24219,0.48437 l 12.042969,4.33985 c 0.20703,0.0703 0.43359,-0.0352 0.5039,-0.22657 0.0703,-0.20703 -0.0352,-0.43359 -0.24218,-0.5039 z m 0,0"
     fill-opacity="1"
     fill-rule="nonzero"
     id="path30" />
  <path
     fill="#f58e00"
     d="m 99.194221,12.726565 c -0.15625,0.0703 -0.3125,0.15625 -0.43359,0.2461 -0.34766,0.25781 -0.5586,0.58984 -0.5586,0.95703 0,0.45312 0.3125,0.85156 0.80078,1.11328 0.40235,0.22656 0.97657,0.36719 1.585939,0.36719 0.60938,0 1.1875,-0.14063 1.60547,-0.36719 0.48828,-0.26172 0.78125,-0.66016 0.78125,-1.11328 0,-0.36719 -0.20703,-0.69922 -0.55469,-0.95703 -0.125,-0.0898 -0.28125,-0.17578 -0.4375,-0.2461 -0.0859,0.15625 -0.17578,0.3125 -0.26172,0.47266 l -0.0859,0.15625 c -0.29688,0.57422 -1.01172,0.80078 -1.60547,0.50391 -0.226559,-0.1211 -0.398439,-0.3125 -0.503909,-0.53907 -0.10547,-0.21093 -0.20703,-0.40234 -0.33203,-0.59375 z m 0,0"
     fill-opacity="1"
     fill-rule="nonzero"
     id="path31" />
  <g
     clip-path="url(#783a394957)"
     id="g32"
     transform="translate(-48.044059,-123.70703)">
    <path
       fill="#f58e00"
       d="m 152.17187,129.98828 c 0,-0.97656 -0.40234,-1.86719 -1.04687,-2.49219 -0.625,-0.64453 -1.51563,-1.04687 -2.49219,-1.04687 -0.97656,0 -1.86328,0.40234 -2.49219,1.04687 -0.64453,0.625 -1.04296,1.51563 -1.04296,2.49219 0,1.02734 1.35937,3.48438 2.36718,5.24219 0.0547,0.10547 0.125,0.21094 0.17578,0.3164 0.26172,0.45313 0.48829,0.85157 0.62891,1.13282 0.0312,0.0664 0.10156,0.13672 0.19141,0.1914 0.1914,0.0859 0.41797,0.0156 0.51953,-0.17578 0.16015,-0.27734 0.38672,-0.67969 0.64844,-1.14844 0.0508,-0.10546 0.12109,-0.21093 0.17187,-0.3164 1.01172,-1.75781 2.37109,-4.21485 2.37109,-5.24219 z m -4.77343,-1.25781 c 0.3125,-0.3125 0.74609,-0.50391 1.23437,-0.50391 0.97656,0 1.76172,0.78516 1.76172,1.74219 0,0.48828 -0.21094,0.92578 -0.52344,1.23828 -0.3125,0.3125 -0.75,0.52344 -1.23828,0.52344 -0.95703,0 -1.75781,-0.78516 -1.75781,-1.76172 0,-0.48828 0.20703,-0.92188 0.52344,-1.23828 z m 0,0"
       fill-opacity="1"
       fill-rule="evenodd"
       id="path32" />
  </g>
  <path
     fill="#f58e00"
     d="m 88.198131,24.417975 c -0.17188,0.0703 -0.3125,0.16016 -0.44922,0.24609 -0.33203,0.26172 -0.54297,0.59375 -0.54297,0.95703 0,0.45313 0.29687,0.85547 0.78516,1.11719 0.41796,0.22656 0.97656,0.36328 1.60156,0.36328 0.61328,0 1.16797,-0.13672 1.58594,-0.36328 0.48828,-0.26172 0.78515,-0.66406 0.78515,-1.11719 0,-0.36328 -0.20703,-0.69531 -0.53906,-0.95703 -0.14063,-0.0859 -0.28125,-0.17578 -0.45313,-0.24609 -0.0898,0.16016 -0.17578,0.31641 -0.26171,0.47266 l -0.0859,0.15625 c -0.29688,0.57421 -1.01172,0.80078 -1.58594,0.5039 -0.22656,-0.12109 -0.40234,-0.3125 -0.52344,-0.53906 -0.0898,-0.20703 -0.21093,-0.40234 -0.3164,-0.59375 z m 0,0"
     fill-opacity="1"
     fill-rule="nonzero"
     id="path33" />
  <g
     clip-path="url(#a46adc216a)"
     id="g34"
     transform="translate(-48.044059,-123.70703)">
    <path
       fill="#f58e00"
       d="m 141.15625,141.67969 c 0,-0.97657 -0.38281,-1.86328 -1.02734,-2.49219 -0.64454,-0.64453 -1.51563,-1.04688 -2.49219,-1.04688 -0.97266,0 -1.86328,0.40235 -2.50781,1.04688 -0.64454,0.62891 -1.02735,1.51562 -1.02735,2.49219 0,1.02734 1.35938,3.48437 2.35156,5.24609 0.0703,0.10156 0.1211,0.20703 0.19141,0.3125 0.24609,0.45313 0.47266,0.85156 0.62891,1.13281 0.0352,0.0703 0.0859,0.14063 0.17187,0.19141 0.19141,0.0859 0.4375,0.0156 0.52344,-0.17578 0.15625,-0.27735 0.38281,-0.67969 0.64453,-1.14844 0.0703,-0.10547 0.12109,-0.21094 0.19141,-0.3125 0.99609,-1.76172 2.35156,-4.21875 2.35156,-5.24609 z m -4.77344,-1.25391 c 0.33203,-0.31641 0.76563,-0.50781 1.25391,-0.50781 0.96094,0 1.74219,0.78515 1.74219,1.74219 0,0.48828 -0.19141,0.92578 -0.50391,1.23828 -0.33203,0.3125 -0.76563,0.52343 -1.23828,0.52343 -0.97266,0 -1.75781,-0.78515 -1.75781,-1.76171 0,-0.48829 0.1914,-0.92188 0.5039,-1.23438 z m 0,0"
       fill-opacity="1"
       fill-rule="evenodd"
       id="path34" />
  </g>
  <g
     clip-path="url(#752bde5bd0)"
     id="g35"
     transform="translate(-48.044059,-123.70703)">
    <path
       fill="#f58e00"
       d="m 151.92578,153.51172 c -0.15625,0.0703 -0.3125,0.15625 -0.43359,0.24219 -0.34766,0.26171 -0.5586,0.59375 -0.5586,0.96093 0,0.45313 0.29688,0.85157 0.78516,1.11328 0.41797,0.22657 0.99219,0.36719 1.60156,0.36719 0.60938,0 1.16797,-0.14062 1.58594,-0.36719 0.48828,-0.26171 0.80078,-0.66015 0.80078,-1.11328 0,-0.36718 -0.20703,-0.69922 -0.55469,-0.96093 -0.125,-0.0859 -0.28125,-0.17188 -0.4375,-0.24219 -0.0859,0.15625 -0.1914,0.3125 -0.27734,0.46875 l -0.0703,0.15625 c -0.3125,0.59375 -1.02735,0.80469 -1.60547,0.50781 -0.22656,-0.12109 -0.39844,-0.31641 -0.50391,-0.54297 -0.10547,-0.1914 -0.20703,-0.39844 -0.33203,-0.58984 z m 0,0"
       fill-opacity="1"
       fill-rule="nonzero"
       id="path35" />
  </g>
  <g
     clip-path="url(#b53a883c99)"
     id="g36"
     transform="translate(-48.044059,-123.70703)">
    <path
       fill="#f58e00"
       d="m 156.85937,147.0625 c 0,-0.97656 -0.40234,-1.84766 -1.04687,-2.49219 -0.625,-0.64453 -1.51563,-1.04297 -2.49219,-1.04297 -0.97656,0 -1.86328,0.39844 -2.50781,1.04297 -0.62891,0.64453 -1.02734,1.51563 -1.02734,2.49219 0,1.02734 1.35937,3.48437 2.35156,5.24609 0.0703,0.10547 0.14062,0.21094 0.1914,0.3125 0.26172,0.45313 0.48829,0.85547 0.62891,1.13282 0.0312,0.0898 0.10156,0.14062 0.17188,0.1914 0.1914,0.10547 0.4375,0.0195 0.53906,-0.17187 0.14062,-0.28125 0.36719,-0.67969 0.64844,-1.15235 0.0508,-0.10156 0.12109,-0.20703 0.17187,-0.3125 0.99219,-1.76172 2.37109,-4.21875 2.37109,-5.24609 z m -4.77734,-1.25391 c 0.31641,-0.3125 0.75,-0.5039 1.23828,-0.5039 0.96094,0 1.74219,0.78125 1.74219,1.74218 0,0.48829 -0.19141,0.92188 -0.50391,1.23829 -0.3125,0.32812 -0.75,0.51953 -1.23828,0.51953 -0.97656,0 -1.75781,-0.78125 -1.75781,-1.75782 0,-0.47265 0.19141,-0.92578 0.51953,-1.23828 z m 0,0"
       fill-opacity="1"
       fill-rule="evenodd"
       id="path36" />
  </g>
  <g
     clip-path="url(#297d3af03c)"
     id="g37"
     transform="translate(-48.044059,-123.70703)">
    <path
       fill="#f58e00"
       d="m 122.33594,133.43359 c -0.23828,-0.2539 -0.63672,-0.26562 -0.89063,-0.0312 -0.53125,0.4961 -1.15625,0.83203 -1.8125,1.05078 l -3.375,-3.37109 c -0.24609,-0.24609 -0.64453,-0.24609 -0.89062,0 -0.2461,0.24609 -0.2461,0.64453 0,0.89063 l 2.79687,2.79296 c -0.75781,0.082 -1.5039,0.0625 -2.14843,-0.004 -0.34766,-0.0352 -0.65625,0.21875 -0.6875,0.5625 -0.0352,0.34765 0.21484,0.65625 0.5625,0.6914 0.39062,0.0391 0.8125,0.0625 1.2539,0.0625 1.69922,0 3.67578,-0.37109 5.16016,-1.7539 0.2539,-0.23438 0.26953,-0.63281 0.0312,-0.89063"
       fill-opacity="1"
       fill-rule="nonzero"
       id="path37" />
  </g>
  <g
     clip-path="url(#b78419fb4d)"
     id="g38"
     transform="translate(-48.044059,-123.70703)">
    <path
       fill="#f58e00"
       d="m 114.77344,135.5625 c -0.0156,-0.0547 -1.75391,-5.23438 0.83984,-7.98828 0.23828,-0.25391 0.22656,-0.65234 -0.0273,-0.89063 -0.25391,-0.23828 -0.65235,-0.22656 -0.89063,0.0273 -3.08593,3.27343 -1.23437,8.89843 -1.11328,9.25 0.0586,0.19531 1.10547,3.67968 -0.95312,6.21484 l -5.83594,-5.83984 c 0.52734,-0.41797 1.09766,-0.70313 1.67187,-0.89844 l 3.32032,3.32031 c 0.12109,0.125 0.28125,0.1836 0.44531,0.1836 0.16016,0 0.32031,-0.0586 0.44531,-0.1836 0.2461,-0.24609 0.2461,-0.64453 0,-0.89062 l -2.73047,-2.73047 c 0.67969,-0.0625 1.33203,-0.0273 1.89844,0.0508 0.34766,0.0469 0.66406,-0.19531 0.71094,-0.53906 0.0469,-0.34766 -0.19531,-0.66407 -0.53906,-0.71094 -0.84375,-0.11328 -2.10547,-0.17188 -3.42969,0.16406 -0.0664,0.004 -0.13672,0.0234 -0.19922,0.0508 -1.00781,0.28516 -2.04688,0.80469 -2.95703,1.71094 -1.30469,1.29688 -2.00781,3.06641 -2.03125,5.10938 -0.0156,1.47656 0.3164,2.59765 0.38281,2.80859 0,0.008 0.004,0.0117 0.004,0.0195 0.0195,0.0508 1.7539,5.23438 -0.83594,7.98438 -0.23828,0.2539 -0.22656,0.65234 0.0273,0.89062 0.1211,0.11328 0.27735,0.17188 0.42969,0.17188 0.16797,0 0.33594,-0.0664 0.46094,-0.19922 3.08203,-3.27344 1.23047,-8.90235 1.11328,-9.25 -0.0625,-0.19922 -1.09766,-3.64063 0.91797,-6.17188 l 5.82812,5.82813 c -0.52343,0.40625 -1.08593,0.6875 -1.65234,0.875 l -3.33203,-3.33203 c -0.2461,-0.2461 -0.64453,-0.2461 -0.89063,0 -0.24609,0.24609 -0.24609,0.64453 0,0.89062 l 2.73828,2.73828 c -0.67187,0.0586 -1.3125,0.0234 -1.875,-0.0547 -0.34375,-0.0469 -0.66015,0.19532 -0.70703,0.54297 -0.0469,0.34375 0.19532,0.66016 0.53907,0.70703 0.37109,0.0508 0.82421,0.0898 1.32421,0.0898 1.54688,0 3.57032,-0.375 5.20313,-1.96094 0.008,-0.004 0.0156,-0.0117 0.0195,-0.0195 0.004,-0.004 0.008,-0.004 0.0117,-0.008 0.008,-0.008 0.0156,-0.0156 0.0234,-0.0273 1.30468,-1.29297 2.00781,-3.05859 2.03125,-5.10156 0.0195,-1.46875 -0.3125,-2.60156 -0.37891,-2.81641 -0.004,-0.004 -0.004,-0.0117 -0.008,-0.0156"
       fill-opacity="1"
       fill-rule="nonzero"
       id="path38" />
  </g>
  <path
     fill="#f58e00"
     d="m 54.643441,23.769535 -2.808594,-2.80859 c 0.933594,-0.16406 1.875004,-0.14844 2.664064,-0.0703 0.34766,0.0352 0.65625,-0.21875 0.69141,-0.5625 0.0352,-0.34766 -0.21875,-0.65625 -0.56641,-0.69141 -2.714845,-0.26953 -4.929689,0.31641 -6.410158,1.69141 -0.253906,0.23828 -0.269531,0.63671 -0.03125,0.89062 0.121094,0.13281 0.289063,0.19922 0.460938,0.19922 0.152344,0 0.304688,-0.0547 0.425781,-0.16797 0.417969,-0.38673 0.886719,-0.67579 1.386719,-0.88673 l 3.29688,3.29688 c 0.12109,0.125 0.28515,0.1875 0.44531,0.1875 0.16015,0 0.32031,-0.0625 0.44531,-0.1875 0.24609,-0.2461 0.24609,-0.64453 0,-0.89063"
     fill-opacity="1"
     fill-rule="nonzero"
     id="path39" />
  <path
     fill="#f58e00"
     d="m 142.16297,17.636725 c 0,0.35937 -0.0703,0.70312 -0.20703,1.03516 -0.13672,0.33203 -0.33203,0.625 -0.58594,0.8789 -0.2539,0.25391 -0.54687,0.44922 -0.8789,0.58594 -0.33204,0.13672 -0.67579,0.20703 -1.03516,0.20703 -0.35938,0 -0.70313,-0.0703 -1.03516,-0.20703 -0.33203,-0.13672 -0.625,-0.33203 -0.8789,-0.58594 -0.25391,-0.2539 -0.44922,-0.54687 -0.58594,-0.8789 -0.13672,-0.33204 -0.20703,-0.67579 -0.20703,-1.03516 0,-0.35938 0.0703,-0.70313 0.20703,-1.03516 0.13672,-0.33203 0.33203,-0.625 0.58594,-0.8789 0.2539,-0.25391 0.54687,-0.44922 0.8789,-0.58594 0.33203,-0.13672 0.67578,-0.20703 1.03516,-0.20703 0.35937,0 0.70312,0.0703 1.03516,0.20703 0.33203,0.13672 0.625,0.33203 0.8789,0.58594 0.25391,0.2539 0.44922,0.54687 0.58594,0.8789 0.13672,0.33203 0.20703,0.67578 0.20703,1.03516 z m 0,0"
     fill-opacity="1"
     fill-rule="nonzero"
     id="path40" />
  <g
     clip-path="url(#fa8e14cd39)"
     id="g41"
     transform="translate(-48.044059,-123.70703)">
    <path
       fill="#f58e00"
       d="m 205.13672,140.71094 h -4.01953 c -0.33594,-6.98047 -6.00391,-12.64844 -12.98438,-12.94141 v -4.0625 h -1.26562 v 4.01953 c -6.98047,0.33594 -12.64844,6.00391 -12.94532,12.98438 h -4.05859 v 1.26953 h 4.01953 c 0.33594,6.97656 6.00391,12.64453 12.98438,12.9414 v 4.01563 h 1.26562 v -4.01563 c 6.98047,-0.29687 12.64844,-5.96484 12.94531,-12.9414 h 4.01563 z m -5.75391,0 h -2.45312 c -0.29297,-4.73828 -4.10157,-8.50391 -8.83594,-8.83985 v -2.45312 c 6.08984,0.33594 10.99609,5.24219 11.28906,11.29297 z m -3.59375,1.26953 c -0.29687,4.05859 -3.55078,7.3164 -7.65625,7.65234 v -1.09765 h -1.26562 v 1.09765 c -4.0625,-0.29687 -7.32032,-3.55078 -7.65625,-7.65234 h 1.09765 v -1.26953 h -1.09765 c 0.29687,-4.0625 3.55078,-7.31641 7.65625,-7.65625 v 1.09765 h 1.26562 v -1.09765 c 4.0625,0.29687 7.31641,3.55078 7.65625,7.65625 h -1.09765 v 1.26953 z m -8.92187,-12.51953 v 2.45312 c -4.73828,0.29297 -8.50391,4.10156 -8.83985,8.83985 h -2.45312 c 0.33594,-6.09375 5.24219,-11 11.29297,-11.29297 z m -11.25391,12.51953 h 2.45313 c 0.29687,4.73437 4.10546,8.5 8.83984,8.83594 v 2.45312 c -6.08984,-0.33594 -10.99609,-5.24219 -11.29297,-11.28906 z m 12.51953,11.25 v -2.45313 c 4.73828,-0.29687 8.50391,-4.10547 8.83985,-8.83984 h 2.45312 c -0.33594,6.08984 -5.24219,10.99609 -11.29297,11.29297 z m 0,0"
       fill-opacity="1"
       fill-rule="nonzero"
       id="path41" />
  </g>
  <g
     clip-path="url(#08c7819c7a)"
     id="g42"
     transform="translate(-48.044059,-123.70703)">
    <path
       fill="#f58e00"
       d="m 83.800781,141.78516 c -2.105469,-2.75782 -4.769531,-4.90625 -7.917969,-6.38672 -2.953124,-1.39063 -6.273437,-2.125 -9.597656,-2.125 -3.382812,0 -6.757812,0.75781 -9.757812,2.19531 -3.195313,1.53125 -5.882813,3.74609 -7.992188,6.58984 -0.671875,0.90625 -0.65625,1.67969 0.05859,2.58203 4.382812,5.5586 10.203125,8.53125 17.296875,8.83594 h 0.01953 c 7.367188,-0.1914 13.207032,-2.98047 17.84375,-8.53125 0.914063,-1.09375 0.929688,-2.00781 0.04687,-3.16015 z m -32.148437,3.0039 c -0.734375,-0.76953 -1.042969,-1.14453 -1.042969,-1.45312 0,-0.33203 0.382813,-0.77344 1.007813,-1.46094 3.664062,-4.04688 9.046874,-6.36719 14.765624,-6.36719 3.5,0 6.882813,0.89453 9.78125,2.58985 1.824219,1.0664 3.535157,2.46484 5.226563,4.27343 0.664063,0.71094 0.664063,1.14844 0.01563,1.88282 -4.214844,4.75 -9.675781,6.86718 -17.703125,6.86718 h -0.121094 c -2.96875,-0.0391 -7.8125,-2.01562 -11.929687,-6.33203 z m 0,0"
       fill-opacity="1"
       fill-rule="nonzero"
       id="path42" />
  </g>
  <path
     fill="#f58e00"
     d="m 18.202035,26.046885 c 1.679687,0 3.265625,-0.66016 4.460937,-1.85938 1.222657,-1.22656 1.890625,-2.85937 1.886719,-4.60156 -0.0039,-1.6875 -0.65625,-3.27735 -1.839844,-4.47656 -1.1875,-1.19922 -2.769531,-1.875 -4.457031,-1.90235 -0.02734,0 -0.05859,0 -0.08984,0 -1.601562,0 -3.214843,0.70313 -4.429687,1.92578 -1.226563,1.23828 -1.925782,2.88672 -1.910156,4.52735 0.01172,1.62109 0.714843,3.24609 1.921874,4.46093 1.210938,1.21875 2.824219,1.91797 4.433594,1.92579 z m -0.0039,-2.3086 c -1.089844,0 -2.105469,-0.42187 -2.863282,-1.1875 -0.78125,-0.79297 -1.207031,-1.86328 -1.191406,-3.01953 0.02734,-2.25 1.824219,-4.02734 4.089844,-4.05078 h 0.04297 c 1.066407,0 2.054688,0.40234 2.78125,1.13281 0.777344,0.78906 1.203126,1.88672 1.191407,3.09375 -0.01563,2.33594 -1.71875,4.03125 -4.050781,4.03125 z m 0,0"
     fill-opacity="1"
     fill-rule="nonzero"
     id="path43" />
  <g
     fill="#f58e00"
     fill-opacity="1"
     id="g46"
     transform="translate(-48.044059,-123.70703)">
    <g
       transform="translate(131.67521,217.0687)"
       id="g45">
      <g
         id="g44">
        <path
           d="m 1.46875,-3.40625 v 1.109375 h 1.9375 V -1.53125 H 1.46875 V 0 H 0.5 v -4.1875 h 3.15625 v 0.78125 z m 0,0"
           id="path44" />
      </g>
    </g>
  </g>
  <g
     fill="#f58e00"
     fill-opacity="1"
     id="g49"
     transform="translate(-48.044059,-123.70703)">
    <g
       transform="translate(138.98449,217.0687)"
       id="g48">
      <g
         id="g47">
        <path
           d="M 0.5,-4.1875 H 1.46875 V 0 H 0.5 Z m 0,0"
           id="path46" />
      </g>
    </g>
  </g>
  <g
     fill="#f58e00"
     fill-opacity="1"
     id="g52"
     transform="translate(-48.044059,-123.70703)">
    <g
       transform="translate(144.43355,217.0687)"
       id="g51">
      <g
         id="g50">
        <path
           d="M 3.734375,-0.78125 V 0 H 0.5 v -4.1875 h 3.15625 v 0.78125 H 1.453125 V -2.5 H 3.40625 v 0.75 H 1.453125 v 0.96875 z m 0,0"
           id="path49" />
      </g>
    </g>
  </g>
  <g
     fill="#f58e00"
     fill-opacity="1"
     id="g55"
     transform="translate(-48.044059,-123.70703)">
    <g
       transform="translate(151.93423,217.0687)"
       id="g54">
      <g
         id="g53">
        <path
           d="m 0.5,-4.1875 h 0.96875 v 3.390625 H 3.5625 V 0 H 0.5 Z m 0,0"
           id="path52" />
      </g>
    </g>
  </g>
  <g
     fill="#f58e00"
     fill-opacity="1"
     id="g58"
     transform="translate(-48.044059,-123.70703)">
    <g
       transform="translate(159.03416,217.0687)"
       id="g57">
      <g
         id="g56">
        <path
           d="m 0.5,-4.1875 h 1.90625 c 0.445312,0 0.84375,0.089844 1.1875,0.265625 0.351562,0.167969 0.625,0.414063 0.8125,0.734375 0.195312,0.3125 0.296875,0.679688 0.296875,1.09375 0,0.417969 -0.101563,0.789062 -0.296875,1.109375 C 4.21875,-0.671875 3.945312,-0.425781 3.59375,-0.25 3.25,-0.0820312 2.851562,0 2.40625,0 H 0.5 Z m 1.859375,3.390625 c 0.414063,0 0.75,-0.113281 1,-0.34375 0.25,-0.238281 0.375,-0.554687 0.375,-0.953125 0,-0.394531 -0.125,-0.707031 -0.375,-0.9375 -0.25,-0.238281 -0.585937,-0.359375 -1,-0.359375 H 1.46875 v 2.59375 z m 0,0"
           id="path55" />
      </g>
    </g>
  </g>
  <g
     fill="#f58e00"
     fill-opacity="1"
     id="g64"
     transform="translate(-48.044059,-123.70703)">
    <g
       transform="translate(172.64185,217.0687)"
       id="g63">
      <g
         id="g62">
        <path
           d="m 0.5,-4.1875 h 1.90625 c 0.445312,0 0.84375,0.089844 1.1875,0.265625 0.351562,0.167969 0.625,0.414063 0.8125,0.734375 0.195312,0.3125 0.296875,0.679688 0.296875,1.09375 0,0.417969 -0.101563,0.789062 -0.296875,1.109375 C 4.21875,-0.671875 3.945312,-0.425781 3.59375,-0.25 3.25,-0.0820312 2.851562,0 2.40625,0 H 0.5 Z m 1.859375,3.390625 c 0.414063,0 0.75,-0.113281 1,-0.34375 0.25,-0.238281 0.375,-0.554687 0.375,-0.953125 0,-0.394531 -0.125,-0.707031 -0.375,-0.9375 -0.25,-0.238281 -0.585937,-0.359375 -1,-0.359375 H 1.46875 v 2.59375 z m 0,0"
           id="path61" />
      </g>
    </g>
  </g>
  <g
     fill="#f58e00"
     fill-opacity="1"
     id="g67"
     transform="translate(-48.044059,-123.70703)">
    <g
       transform="translate(181.06965,217.0687)"
       id="g66">
      <g
         id="g65">
        <path
           d="M 3.734375,-0.78125 V 0 H 0.5 v -4.1875 h 3.15625 v 0.78125 H 1.453125 V -2.5 H 3.40625 v 0.75 H 1.453125 v 0.96875 z m 0,0"
           id="path64" />
      </g>
    </g>
  </g>
  <g
     fill="#f58e00"
     fill-opacity="1"
     id="g70"
     transform="translate(-48.044059,-123.70703)">
    <g
       transform="translate(188.57033,217.0687)"
       id="g69">
      <g
         id="g68">
        <path
           d="m 2.3125,-4.1875 c 0.363281,0 0.679688,0.0625 0.953125,0.1875 0.28125,0.125 0.492187,0.304688 0.640625,0.53125 0.144531,0.21875 0.21875,0.484375 0.21875,0.796875 0,0.3125 -0.074219,0.585937 -0.21875,0.8125 -0.148438,0.230469 -0.359375,0.40625 -0.640625,0.53125 C 2.992188,-1.210938 2.675781,-1.15625 2.3125,-1.15625 H 1.46875 V 0 H 0.5 v -4.1875 z m -0.0625,2.25 c 0.289062,0 0.507812,-0.0625 0.65625,-0.1875 0.15625,-0.132812 0.234375,-0.316406 0.234375,-0.546875 0,-0.226563 -0.078125,-0.40625 -0.234375,-0.53125 C 2.757812,-3.335938 2.539062,-3.40625 2.25,-3.40625 H 1.46875 v 1.46875 z m 0,0"
           id="path67" />
      </g>
    </g>
  </g>
  <g
     fill="#f58e00"
     fill-opacity="1"
     id="g73"
     transform="translate(-48.044059,-123.70703)">
    <g
       transform="translate(196.43588,217.0687)"
       id="g72">
      <g
         id="g71">
        <path
           d="m 0.5,-4.1875 h 0.96875 v 3.390625 H 3.5625 V 0 H 0.5 Z m 0,0"
           id="path70" />
      </g>
    </g>
  </g>
  <g
     fill="#f58e00"
     fill-opacity="1"
     id="g76"
     transform="translate(-48.044059,-123.70703)">
    <g
       transform="translate(203.5358,217.0687)"
       id="g75">
      <g
         id="g74">
        <path
           d="m 2.53125,0.078125 c -0.4375,0 -0.835938,-0.09375 -1.1875,-0.28125 C 1,-0.390625 0.726562,-0.648438 0.53125,-0.984375 0.332031,-1.316406 0.234375,-1.6875 0.234375,-2.09375 0.234375,-2.5 0.332031,-2.867188 0.53125,-3.203125 0.726562,-3.535156 1,-3.796875 1.34375,-3.984375 c 0.351562,-0.1875 0.75,-0.28125 1.1875,-0.28125 0.425781,0 0.8125,0.09375 1.15625,0.28125 0.351562,0.1875 0.628906,0.449219 0.828125,0.78125 C 4.710938,-2.867188 4.8125,-2.5 4.8125,-2.09375 c 0,0.40625 -0.101562,0.777344 -0.296875,1.109375 -0.199219,0.335937 -0.476563,0.59375 -0.828125,0.78125 -0.34375,0.1875 -0.730469,0.28125 -1.15625,0.28125 z m 0,-0.828125 c 0.238281,0 0.457031,-0.054688 0.65625,-0.171875 0.207031,-0.113281 0.367188,-0.269531 0.484375,-0.46875 0.113281,-0.207031 0.171875,-0.441406 0.171875,-0.703125 0,-0.257812 -0.058594,-0.488281 -0.171875,-0.6875 C 3.554688,-2.988281 3.394531,-3.148438 3.1875,-3.265625 2.988281,-3.378906 2.769531,-3.4375 2.53125,-3.4375 c -0.25,0 -0.476562,0.058594 -0.671875,0.171875 -0.199219,0.117187 -0.355469,0.277344 -0.46875,0.484375 -0.117187,0.199219 -0.171875,0.429688 -0.171875,0.6875 0,0.261719 0.054688,0.496094 0.171875,0.703125 0.113281,0.199219 0.269531,0.355469 0.46875,0.46875 C 2.054688,-0.804688 2.28125,-0.75 2.53125,-0.75 Z m 0,0"
           id="path73" />
      </g>
    </g>
  </g>
  <g
     fill="#f58e00"
     fill-opacity="1"
     id="g79"
     transform="translate(-48.044059,-123.70703)">
    <g
       transform="translate(212.07127,217.0687)"
       id="g78">
      <g
         id="g77">
        <path
           d="M 2.5,-1.484375 V 0 H 1.53125 v -1.5 l -1.609375,-2.6875 h 1.03125 L 2.0625,-2.328125 3.1875,-4.1875 h 0.953125 z m 0,0"
           id="path76" />
      </g>
    </g>
  </g>
  <g
     fill="#f58e00"
     fill-opacity="1"
     id="g82"
     transform="translate(-48.044059,-123.70703)">
    <g
       transform="translate(219.60186,217.0687)"
       id="g81">
      <g
         id="g80">
        <path
           d="M 3.25,-0.890625 H 1.3125 L 0.9375,0 H -0.046875 L 1.8125,-4.1875 H 2.765625 L 4.640625,0 H 3.625 Z m -0.296875,-0.75 -0.671875,-1.59375 -0.65625,1.59375 z m 0,0"
           id="path79" />
      </g>
    </g>
  </g>
  <g
     fill="#f58e00"
     fill-opacity="1"
     id="g85"
     transform="translate(-48.044059,-123.70703)">
    <g
       transform="translate(227.67078,217.0687)"
       id="g84">
      <g
         id="g83">
        <path
           d="m 3.578125,-2.171875 c 0.238281,0.074219 0.425781,0.199219 0.5625,0.375 0.132813,0.179687 0.203125,0.398437 0.203125,0.65625 0,0.367187 -0.148438,0.648437 -0.4375,0.84375 C 3.625,-0.0976562 3.207031,0 2.65625,0 H 0.5 v -4.1875 h 2.046875 c 0.507813,0 0.898437,0.101562 1.171875,0.296875 0.269531,0.1875 0.40625,0.453125 0.40625,0.796875 0,0.199219 -0.046875,0.382812 -0.140625,0.546875 -0.09375,0.15625 -0.230469,0.28125 -0.40625,0.375 z m -2.125,-1.28125 v 0.984375 h 0.96875 c 0.238281,0 0.421875,-0.039062 0.546875,-0.125 0.125,-0.082031 0.1875,-0.207031 0.1875,-0.375 0,-0.164062 -0.0625,-0.285156 -0.1875,-0.359375 -0.125,-0.082031 -0.308594,-0.125 -0.546875,-0.125 z m 1.140625,2.71875 c 0.25,0 0.4375,-0.039063 0.5625,-0.125 0.132812,-0.082031 0.203125,-0.210937 0.203125,-0.390625 0,-0.34375 -0.257813,-0.515625 -0.765625,-0.515625 H 1.453125 v 1.03125 z m 0,0"
           id="path82" />
      </g>
    </g>
  </g>
  <g
     fill="#f58e00"
     fill-opacity="1"
     id="g88"
     transform="translate(-48.044059,-123.70703)">
    <g
       transform="translate(235.73372,217.0687)"
       id="g87">
      <g
         id="g86">
        <path
           d="m 0.5,-4.1875 h 0.96875 v 3.390625 H 3.5625 V 0 H 0.5 Z m 0,0"
           id="path85" />
      </g>
    </g>
  </g>
  <g
     fill="#f58e00"
     fill-opacity="1"
     id="g91"
     transform="translate(-48.044059,-123.70703)">
    <g
       transform="translate(242.83364,217.0687)"
       id="g90">
      <g
         id="g89">
        <path
           d="M 3.734375,-0.78125 V 0 H 0.5 v -4.1875 h 3.15625 v 0.78125 H 1.453125 V -2.5 H 3.40625 v 0.75 H 1.453125 v 0.96875 z m 0,0"
           id="path88" />
      </g>
    </g>
  </g>
  <g
     fill="#f58e00"
     fill-opacity="1"
     id="g97"
     transform="translate(-48.044059,-123.70703)">
    <g
       transform="translate(255.51422,217.0687)"
       id="g96">
      <g
         id="g95">
        <path
           d="M 4.34375,-4.1875 V 0 H 3.546875 L 1.453125,-2.546875 V 0 H 0.5 V -4.1875 H 1.296875 L 3.375,-1.640625 V -4.1875 Z m 0,0"
           id="path94" />
      </g>
    </g>
  </g>
  <g
     fill="#f58e00"
     fill-opacity="1"
     id="g100"
     transform="translate(-48.044059,-123.70703)">
    <g
       transform="translate(263.83436,217.0687)"
       id="g99">
      <g
         id="g98">
        <path
           d="M 3.25,-0.890625 H 1.3125 L 0.9375,0 H -0.046875 L 1.8125,-4.1875 H 2.765625 L 4.640625,0 H 3.625 Z m -0.296875,-0.75 -0.671875,-1.59375 -0.65625,1.59375 z m 0,0"
           id="path97" />
      </g>
    </g>
  </g>
  <g
     fill="#f58e00"
     fill-opacity="1"
     id="g103"
     transform="translate(-48.044059,-123.70703)">
    <g
       transform="translate(271.90327,217.0687)"
       id="g102">
      <g
         id="g101">
        <path
           d="M 4.34375,-4.1875 V 0 H 3.546875 L 1.453125,-2.546875 V 0 H 0.5 V -4.1875 H 1.296875 L 3.375,-1.640625 V -4.1875 Z m 0,0"
           id="path100" />
      </g>
    </g>
  </g>
  <g
     fill="#f58e00"
     fill-opacity="1"
     id="g106"
     transform="translate(-48.044059,-123.70703)">
    <g
       transform="translate(280.22341,217.0687)"
       id="g105">
      <g
         id="g104">
        <path
           d="m 2.53125,0.078125 c -0.4375,0 -0.835938,-0.09375 -1.1875,-0.28125 C 1,-0.390625 0.726562,-0.648438 0.53125,-0.984375 0.332031,-1.316406 0.234375,-1.6875 0.234375,-2.09375 0.234375,-2.5 0.332031,-2.867188 0.53125,-3.203125 0.726562,-3.535156 1,-3.796875 1.34375,-3.984375 c 0.351562,-0.1875 0.75,-0.28125 1.1875,-0.28125 0.425781,0 0.8125,0.09375 1.15625,0.28125 0.351562,0.1875 0.628906,0.449219 0.828125,0.78125 C 4.710938,-2.867188 4.8125,-2.5 4.8125,-2.09375 c 0,0.40625 -0.101562,0.777344 -0.296875,1.109375 -0.199219,0.335937 -0.476563,0.59375 -0.828125,0.78125 -0.34375,0.1875 -0.730469,0.28125 -1.15625,0.28125 z m 0,-0.828125 c 0.238281,0 0.457031,-0.054688 0.65625,-0.171875 0.207031,-0.113281 0.367188,-0.269531 0.484375,-0.46875 0.113281,-0.207031 0.171875,-0.441406 0.171875,-0.703125 0,-0.257812 -0.058594,-0.488281 -0.171875,-0.6875 C 3.554688,-2.988281 3.394531,-3.148438 3.1875,-3.265625 2.988281,-3.378906 2.769531,-3.4375 2.53125,-3.4375 c -0.25,0 -0.476562,0.058594 -0.671875,0.171875 -0.199219,0.117187 -0.355469,0.277344 -0.46875,0.484375 -0.117187,0.199219 -0.171875,0.429688 -0.171875,0.6875 0,0.261719 0.054688,0.496094 0.171875,0.703125 0.113281,0.199219 0.269531,0.355469 0.46875,0.46875 C 2.054688,-0.804688 2.28125,-0.75 2.53125,-0.75 Z m 0,0"
           id="path103" />
      </g>
    </g>
  </g>
  <g
     fill="#f58e00"
     fill-opacity="1"
     id="g109"
     transform="translate(-48.044059,-123.70703)">
    <g
       transform="translate(288.75887,217.0687)"
       id="g108">
      <g
         id="g107">
        <path
           d="m 2.3125,-4.1875 c 0.363281,0 0.679688,0.0625 0.953125,0.1875 0.28125,0.125 0.492187,0.304688 0.640625,0.53125 0.144531,0.21875 0.21875,0.484375 0.21875,0.796875 0,0.3125 -0.074219,0.585937 -0.21875,0.8125 -0.148438,0.230469 -0.359375,0.40625 -0.640625,0.53125 C 2.992188,-1.210938 2.675781,-1.15625 2.3125,-1.15625 H 1.46875 V 0 H 0.5 v -4.1875 z m -0.0625,2.25 c 0.289062,0 0.507812,-0.0625 0.65625,-0.1875 0.15625,-0.132812 0.234375,-0.316406 0.234375,-0.546875 0,-0.226563 -0.078125,-0.40625 -0.234375,-0.53125 C 2.757812,-3.335938 2.539062,-3.40625 2.25,-3.40625 H 1.46875 v 1.46875 z m 0,0"
           id="path106" />
      </g>
    </g>
  </g>
  <g
     fill="#f58e00"
     fill-opacity="1"
     id="g112"
     transform="translate(-48.044059,-123.70703)">
    <g
       transform="translate(296.62442,217.0687)"
       id="g111">
      <g
         id="g110">
        <path
           d="m 2.53125,0.078125 c -0.4375,0 -0.835938,-0.09375 -1.1875,-0.28125 C 1,-0.390625 0.726562,-0.648438 0.53125,-0.984375 0.332031,-1.316406 0.234375,-1.6875 0.234375,-2.09375 0.234375,-2.5 0.332031,-2.867188 0.53125,-3.203125 0.726562,-3.535156 1,-3.796875 1.34375,-3.984375 c 0.351562,-0.1875 0.75,-0.28125 1.1875,-0.28125 0.425781,0 0.8125,0.09375 1.15625,0.28125 0.351562,0.1875 0.628906,0.449219 0.828125,0.78125 C 4.710938,-2.867188 4.8125,-2.5 4.8125,-2.09375 c 0,0.40625 -0.101562,0.777344 -0.296875,1.109375 -0.199219,0.335937 -0.476563,0.59375 -0.828125,0.78125 -0.34375,0.1875 -0.730469,0.28125 -1.15625,0.28125 z m 0,-0.828125 c 0.238281,0 0.457031,-0.054688 0.65625,-0.171875 0.207031,-0.113281 0.367188,-0.269531 0.484375,-0.46875 0.113281,-0.207031 0.171875,-0.441406 0.171875,-0.703125 0,-0.257812 -0.058594,-0.488281 -0.171875,-0.6875 C 3.554688,-2.988281 3.394531,-3.148438 3.1875,-3.265625 2.988281,-3.378906 2.769531,-3.4375 2.53125,-3.4375 c -0.25,0 -0.476562,0.058594 -0.671875,0.171875 -0.199219,0.117187 -0.355469,0.277344 -0.46875,0.484375 -0.117187,0.199219 -0.171875,0.429688 -0.171875,0.6875 0,0.261719 0.054688,0.496094 0.171875,0.703125 0.113281,0.199219 0.269531,0.355469 0.46875,0.46875 C 2.054688,-0.804688 2.28125,-0.75 2.53125,-0.75 Z m 0,0"
           id="path109" />
      </g>
    </g>
  </g>
  <g
     fill="#f58e00"
     fill-opacity="1"
     id="g115"
     transform="translate(-48.044059,-123.70703)">
    <g
       transform="translate(305.15988,217.0687)"
       id="g114">
      <g
         id="g113">
        <path
           d="m 3.171875,0 -0.8125,-1.171875 H 1.46875 V 0 H 0.5 v -4.1875 h 1.8125 c 0.363281,0 0.679688,0.0625 0.953125,0.1875 0.28125,0.125 0.492187,0.304688 0.640625,0.53125 0.144531,0.21875 0.21875,0.484375 0.21875,0.796875 0,0.3125 -0.074219,0.585937 -0.21875,0.8125 -0.148438,0.21875 -0.359375,0.390625 -0.640625,0.515625 L 4.203125,0 Z m -0.03125,-2.671875 c 0,-0.226563 -0.078125,-0.40625 -0.234375,-0.53125 C 2.757812,-3.335938 2.539062,-3.40625 2.25,-3.40625 H 1.46875 V -1.9375 H 2.25 C 2.539062,-1.9375 2.757812,-2 2.90625,-2.125 3.0625,-2.257812 3.140625,-2.441406 3.140625,-2.671875 Z m 0,0"
           id="path112" />
      </g>
    </g>
  </g>
  <g
     fill="#f58e00"
     fill-opacity="1"
     id="g118"
     transform="translate(-48.044059,-123.70703)">
    <g
       transform="translate(313.04338,217.0687)"
       id="g117">
      <g
         id="g116">
        <path
           d="M 3.734375,-0.78125 V 0 H 0.5 v -4.1875 h 3.15625 v 0.78125 H 1.453125 V -2.5 H 3.40625 v 0.75 H 1.453125 v 0.96875 z m 0,0"
           id="path115" />
      </g>
    </g>
  </g>
  <g
     fill="#f58e00"
     fill-opacity="1"
     id="g121"
     transform="translate(-48.044059,-123.70703)">
    <g
       transform="translate(131.67521,225.04388)"
       id="g120">
      <g
         id="g119">
        <path
           d="M 3.328125,-2.15625 H 4.21875 v 1.703125 C 3.988281,-0.285156 3.722656,-0.15625 3.421875,-0.0625 3.117188,0.03125 2.816406,0.078125 2.515625,0.078125 c -0.4375,0 -0.828125,-0.09375 -1.171875,-0.28125 C 1,-0.390625 0.726562,-0.644531 0.53125,-0.96875 0.332031,-1.300781 0.234375,-1.675781 0.234375,-2.09375 c 0,-0.414062 0.097656,-0.785156 0.296875,-1.109375 0.195312,-0.332031 0.46875,-0.59375 0.8125,-0.78125 0.351562,-0.1875 0.75,-0.28125 1.1875,-0.28125 0.375,0 0.707031,0.0625 1,0.1875 0.300781,0.125 0.554688,0.308594 0.765625,0.546875 l -0.625,0.5625 C 3.367188,-3.28125 3.003906,-3.4375 2.578125,-3.4375 c -0.261719,0 -0.496094,0.058594 -0.703125,0.171875 -0.210938,0.117187 -0.371094,0.277344 -0.484375,0.484375 -0.117187,0.199219 -0.171875,0.429688 -0.171875,0.6875 0,0.261719 0.054688,0.496094 0.171875,0.703125 0.113281,0.199219 0.269531,0.355469 0.46875,0.46875 0.207031,0.117187 0.445313,0.171875 0.71875,0.171875 0.269531,0 0.519531,-0.0625 0.75,-0.1875 z m 0,0"
           id="path118" />
      </g>
    </g>
  </g>
  <g
     fill="#f58e00"
     fill-opacity="1"
     id="g124"
     transform="translate(-48.044059,-123.70703)">
    <g
       transform="translate(139.77403,225.04388)"
       id="g123">
      <g
         id="g122">
        <path
           d="M 3.734375,-0.78125 V 0 H 0.5 v -4.1875 h 3.15625 v 0.78125 H 1.453125 V -2.5 H 3.40625 v 0.75 H 1.453125 v 0.96875 z m 0,0"
           id="path121" />
      </g>
    </g>
  </g>
  <g
     fill="#f58e00"
     fill-opacity="1"
     id="g127"
     transform="translate(-48.044059,-123.70703)">
    <g
       transform="translate(147.27472,225.04388)"
       id="g126">
      <g
         id="g125">
        <path
           d="M 4.34375,-4.1875 V 0 H 3.546875 L 1.453125,-2.546875 V 0 H 0.5 V -4.1875 H 1.296875 L 3.375,-1.640625 V -4.1875 Z m 0,0"
           id="path124" />
      </g>
    </g>
  </g>
  <g
     fill="#f58e00"
     fill-opacity="1"
     id="g130"
     transform="translate(-48.044059,-123.70703)">
    <g
       transform="translate(155.59486,225.04388)"
       id="g129">
      <g
         id="g128">
        <path
           d="m 2.53125,0.078125 c -0.4375,0 -0.835938,-0.09375 -1.1875,-0.28125 C 1,-0.390625 0.726562,-0.648438 0.53125,-0.984375 0.332031,-1.316406 0.234375,-1.6875 0.234375,-2.09375 0.234375,-2.5 0.332031,-2.867188 0.53125,-3.203125 0.726562,-3.535156 1,-3.796875 1.34375,-3.984375 c 0.351562,-0.1875 0.75,-0.28125 1.1875,-0.28125 0.425781,0 0.8125,0.09375 1.15625,0.28125 0.351562,0.1875 0.628906,0.449219 0.828125,0.78125 C 4.710938,-2.867188 4.8125,-2.5 4.8125,-2.09375 c 0,0.40625 -0.101562,0.777344 -0.296875,1.109375 -0.199219,0.335937 -0.476563,0.59375 -0.828125,0.78125 -0.34375,0.1875 -0.730469,0.28125 -1.15625,0.28125 z m 0,-0.828125 c 0.238281,0 0.457031,-0.054688 0.65625,-0.171875 0.207031,-0.113281 0.367188,-0.269531 0.484375,-0.46875 0.113281,-0.207031 0.171875,-0.441406 0.171875,-0.703125 0,-0.257812 -0.058594,-0.488281 -0.171875,-0.6875 C 3.554688,-2.988281 3.394531,-3.148438 3.1875,-3.265625 2.988281,-3.378906 2.769531,-3.4375 2.53125,-3.4375 c -0.25,0 -0.476562,0.058594 -0.671875,0.171875 -0.199219,0.117187 -0.355469,0.277344 -0.46875,0.484375 -0.117187,0.199219 -0.171875,0.429688 -0.171875,0.6875 0,0.261719 0.054688,0.496094 0.171875,0.703125 0.113281,0.199219 0.269531,0.355469 0.46875,0.46875 C 2.054688,-0.804688 2.28125,-0.75 2.53125,-0.75 Z m 0,0"
           id="path127" />
      </g>
    </g>
  </g>
  <g
     fill="#f58e00"
     fill-opacity="1"
     id="g133"
     transform="translate(-48.044059,-123.70703)">
    <g
       transform="translate(164.13032,225.04388)"
       id="g132">
      <g
         id="g131">
        <path
           d="M 4.3125,0 4.296875,-2.515625 3.0625,-0.4375 H 2.640625 L 1.40625,-2.453125 V 0 H 0.5 v -4.1875 h 0.796875 l 1.5625,2.609375 L 4.40625,-4.1875 H 5.203125 L 5.21875,0 Z m 0,0"
           id="path130" />
      </g>
    </g>
  </g>
  <g
     fill="#f58e00"
     fill-opacity="1"
     id="g136"
     transform="translate(-48.044059,-123.70703)">
    <g
       transform="translate(173.32973,225.04388)"
       id="g135">
      <g
         id="g134">
        <path
           d="M 0.5,-4.1875 H 1.46875 V 0 H 0.5 Z m 0,0"
           id="path133" />
      </g>
    </g>
  </g>
  <g
     fill="#f58e00"
     fill-opacity="1"
     id="g139"
     transform="translate(-48.044059,-123.70703)">
    <g
       transform="translate(178.77879,225.04388)"
       id="g138">
      <g
         id="g137">
        <path
           d="m 2.5,0.078125 c -0.429688,0 -0.8125,-0.09375 -1.15625,-0.28125 C 1,-0.390625 0.726562,-0.644531 0.53125,-0.96875 0.332031,-1.300781 0.234375,-1.675781 0.234375,-2.09375 c 0,-0.414062 0.097656,-0.785156 0.296875,-1.109375 0.195312,-0.332031 0.46875,-0.59375 0.8125,-0.78125 0.34375,-0.1875 0.726562,-0.28125 1.15625,-0.28125 0.363281,0 0.691406,0.070313 0.984375,0.203125 0.300781,0.125 0.550781,0.308594 0.75,0.546875 l -0.625,0.578125 c -0.28125,-0.332031 -0.632813,-0.5 -1.046875,-0.5 -0.261719,0 -0.496094,0.058594 -0.703125,0.171875 -0.199219,0.117187 -0.355469,0.277344 -0.46875,0.484375 -0.117187,0.199219 -0.171875,0.429688 -0.171875,0.6875 0,0.261719 0.054688,0.496094 0.171875,0.703125 0.113281,0.199219 0.269531,0.355469 0.46875,0.46875 C 2.066406,-0.804688 2.300781,-0.75 2.5625,-0.75 c 0.414062,0 0.765625,-0.164062 1.046875,-0.5 l 0.625,0.578125 c -0.199219,0.242187 -0.449219,0.429687 -0.75,0.5625 -0.292969,0.125 -0.621094,0.1875 -0.984375,0.1875 z m 0,0"
           id="path136" />
      </g>
    </g>
  </g>
  <g
     fill="#f58e00"
     fill-opacity="1"
     id="g145"
     transform="translate(-48.044059,-123.70703)">
    <g
       transform="translate(191.83021,225.04388)"
       id="g144">
      <g
         id="g143">
        <path
           d="M 1.875,0.078125 C 1.539062,0.078125 1.21875,0.03125 0.90625,-0.0625 0.601562,-0.15625 0.359375,-0.269531 0.171875,-0.40625 L 0.5,-1.140625 c 0.175781,0.125 0.390625,0.230469 0.640625,0.3125 0.25,0.085937 0.492187,0.125 0.734375,0.125 0.28125,0 0.484375,-0.039063 0.609375,-0.125 C 2.617188,-0.910156 2.6875,-1.019531 2.6875,-1.15625 2.6875,-1.25 2.644531,-1.328125 2.5625,-1.390625 2.488281,-1.460938 2.390625,-1.519531 2.265625,-1.5625 2.148438,-1.601562 1.988281,-1.644531 1.78125,-1.6875 1.457031,-1.769531 1.191406,-1.847656 0.984375,-1.921875 0.785156,-1.992188 0.613281,-2.113281 0.46875,-2.28125 0.320312,-2.445312 0.25,-2.671875 0.25,-2.953125 c 0,-0.25 0.0625,-0.46875 0.1875,-0.65625 0.132812,-0.195313 0.332031,-0.351563 0.59375,-0.46875 0.269531,-0.125 0.597656,-0.1875 0.984375,-0.1875 0.269531,0 0.53125,0.039063 0.78125,0.109375 0.257813,0.0625 0.484375,0.152344 0.671875,0.265625 L 3.171875,-3.15625 C 2.785156,-3.375 2.398438,-3.484375 2.015625,-3.484375 c -0.273437,0 -0.476563,0.046875 -0.609375,0.140625 -0.125,0.085938 -0.1875,0.199219 -0.1875,0.34375 0,0.148438 0.070312,0.257812 0.21875,0.328125 0.144531,0.0625 0.375,0.125 0.6875,0.1875 0.320312,0.085937 0.582031,0.164063 0.78125,0.234375 0.207031,0.074219 0.382812,0.195312 0.53125,0.359375 0.144531,0.167969 0.21875,0.386719 0.21875,0.65625 0,0.242187 -0.070312,0.460937 -0.203125,0.65625 C 3.316406,-0.378906 3.113281,-0.21875 2.84375,-0.09375 2.582031,0.0195312 2.257812,0.078125 1.875,0.078125 Z m 0,0"
           id="path142" />
      </g>
    </g>
  </g>
  <g
     fill="#f58e00"
     fill-opacity="1"
     id="g148"
     transform="translate(-48.044059,-123.70703)">
    <g
       transform="translate(199.13351,225.04388)"
       id="g147">
      <g
         id="g146">
        <path
           d="m 2.359375,0.078125 c -0.605469,0 -1.074219,-0.1640625 -1.40625,-0.5 -0.335937,-0.332031 -0.5,-0.804687 -0.5,-1.421875 V -4.1875 H 1.4375 v 2.3125 c 0,0.75 0.304688,1.125 0.921875,1.125 0.300781,0 0.53125,-0.085938 0.6875,-0.265625 0.164063,-0.1875 0.25,-0.472656 0.25,-0.859375 V -4.1875 H 4.25 v 2.34375 c 0,0.617188 -0.167969,1.089844 -0.5,1.421875 -0.335938,0.3359375 -0.796875,0.5 -1.390625,0.5 z m 0,0"
           id="path145" />
      </g>
    </g>
  </g>
  <g
     fill="#f58e00"
     fill-opacity="1"
     id="g151"
     transform="translate(-48.044059,-123.70703)">
    <g
       transform="translate(207.33402,225.04388)"
       id="g150">
      <g
         id="g149">
        <path
           d="m 3.171875,0 -0.8125,-1.171875 H 1.46875 V 0 H 0.5 v -4.1875 h 1.8125 c 0.363281,0 0.679688,0.0625 0.953125,0.1875 0.28125,0.125 0.492187,0.304688 0.640625,0.53125 0.144531,0.21875 0.21875,0.484375 0.21875,0.796875 0,0.3125 -0.074219,0.585937 -0.21875,0.8125 -0.148438,0.21875 -0.359375,0.390625 -0.640625,0.515625 L 4.203125,0 Z m -0.03125,-2.671875 c 0,-0.226563 -0.078125,-0.40625 -0.234375,-0.53125 C 2.757812,-3.335938 2.539062,-3.40625 2.25,-3.40625 H 1.46875 V -1.9375 H 2.25 C 2.539062,-1.9375 2.757812,-2 2.90625,-2.125 3.0625,-2.257812 3.140625,-2.441406 3.140625,-2.671875 Z m 0,0"
           id="path148" />
      </g>
    </g>
  </g>
  <g
     fill="#f58e00"
     fill-opacity="1"
     id="g154"
     transform="translate(-48.044059,-123.70703)">
    <g
       transform="translate(215.21751,225.04388)"
       id="g153">
      <g
         id="g152">
        <path
           d="M 4.53125,-4.1875 2.703125,0 H 1.75 L -0.046875,-4.1875 H 1 L 2.265625,-1.203125 3.5625,-4.1875 Z m 0,0"
           id="path151" />
      </g>
    </g>
  </g>
  <g
     fill="#f58e00"
     fill-opacity="1"
     id="g157"
     transform="translate(-48.044059,-123.70703)">
    <g
       transform="translate(223.1668,225.04388)"
       id="g156">
      <g
         id="g155">
        <path
           d="M 3.734375,-0.78125 V 0 H 0.5 v -4.1875 h 3.15625 v 0.78125 H 1.453125 V -2.5 H 3.40625 v 0.75 H 1.453125 v 0.96875 z m 0,0"
           id="path154" />
      </g>
    </g>
  </g>
  <g
     fill="#f58e00"
     fill-opacity="1"
     id="g160"
     transform="translate(-48.044059,-123.70703)">
    <g
       transform="translate(230.66749,225.04388)"
       id="g159">
      <g
         id="g158">
        <path
           d="M 0.5,-4.1875 H 1.46875 V 0 H 0.5 Z m 0,0"
           id="path157" />
      </g>
    </g>
  </g>
  <g
     fill="#f58e00"
     fill-opacity="1"
     id="g163"
     transform="translate(-48.044059,-123.70703)">
    <g
       transform="translate(236.11654,225.04388)"
       id="g162">
      <g
         id="g161">
        <path
           d="m 0.5,-4.1875 h 0.96875 v 3.390625 H 3.5625 V 0 H 0.5 Z m 0,0"
           id="path160" />
      </g>
    </g>
  </g>
  <g
     fill="#f58e00"
     fill-opacity="1"
     id="g166"
     transform="translate(-48.044059,-123.70703)">
    <g
       transform="translate(243.21647,225.04388)"
       id="g165">
      <g
         id="g164">
        <path
           d="m 0.5,-4.1875 h 0.96875 v 3.390625 H 3.5625 V 0 H 0.5 Z m 0,0"
           id="path163" />
      </g>
    </g>
  </g>
  <g
     fill="#f58e00"
     fill-opacity="1"
     id="g169"
     transform="translate(-48.044059,-123.70703)">
    <g
       transform="translate(250.31639,225.04388)"
       id="g168">
      <g
         id="g167">
        <path
           d="M 3.25,-0.890625 H 1.3125 L 0.9375,0 H -0.046875 L 1.8125,-4.1875 H 2.765625 L 4.640625,0 H 3.625 Z m -0.296875,-0.75 -0.671875,-1.59375 -0.65625,1.59375 z m 0,0"
           id="path166" />
      </g>
    </g>
  </g>
  <g
     fill="#f58e00"
     fill-opacity="1"
     id="g172"
     transform="translate(-48.044059,-123.70703)">
    <g
       transform="translate(258.38531,225.04388)"
       id="g171">
      <g
         id="g170">
        <path
           d="M 4.34375,-4.1875 V 0 H 3.546875 L 1.453125,-2.546875 V 0 H 0.5 V -4.1875 H 1.296875 L 3.375,-1.640625 V -4.1875 Z m 0,0"
           id="path169" />
      </g>
    </g>
  </g>
  <g
     fill="#f58e00"
     fill-opacity="1"
     id="g175"
     transform="translate(-48.044059,-123.70703)">
    <g
       transform="translate(266.70545,225.04388)"
       id="g174">
      <g
         id="g173">
        <path
           d="m 2.5,0.078125 c -0.429688,0 -0.8125,-0.09375 -1.15625,-0.28125 C 1,-0.390625 0.726562,-0.644531 0.53125,-0.96875 0.332031,-1.300781 0.234375,-1.675781 0.234375,-2.09375 c 0,-0.414062 0.097656,-0.785156 0.296875,-1.109375 0.195312,-0.332031 0.46875,-0.59375 0.8125,-0.78125 0.34375,-0.1875 0.726562,-0.28125 1.15625,-0.28125 0.363281,0 0.691406,0.070313 0.984375,0.203125 0.300781,0.125 0.550781,0.308594 0.75,0.546875 l -0.625,0.578125 c -0.28125,-0.332031 -0.632813,-0.5 -1.046875,-0.5 -0.261719,0 -0.496094,0.058594 -0.703125,0.171875 -0.199219,0.117187 -0.355469,0.277344 -0.46875,0.484375 -0.117187,0.199219 -0.171875,0.429688 -0.171875,0.6875 0,0.261719 0.054688,0.496094 0.171875,0.703125 0.113281,0.199219 0.269531,0.355469 0.46875,0.46875 C 2.066406,-0.804688 2.300781,-0.75 2.5625,-0.75 c 0.414062,0 0.765625,-0.164062 1.046875,-0.5 l 0.625,0.578125 c -0.199219,0.242187 -0.449219,0.429687 -0.75,0.5625 -0.292969,0.125 -0.621094,0.1875 -0.984375,0.1875 z m 0,0"
           id="path172" />
      </g>
    </g>
  </g>
  <g
     fill="#f58e00"
     fill-opacity="1"
     id="g178"
     transform="translate(-48.044059,-123.70703)">
    <g
       transform="translate(274.57697,225.04388)"
       id="g177">
      <g
         id="g176">
        <path
           d="M 3.734375,-0.78125 V 0 H 0.5 v -4.1875 h 3.15625 v 0.78125 H 1.453125 V -2.5 H 3.40625 v 0.75 H 1.453125 v 0.96875 z m 0,0"
           id="path175" />
      </g>
    </g>
  </g>
</svg>
