<?xml version="1.0" encoding="UTF-8" standalone="no"?>
<svg
   width="355.50342"
   zoomAndPan="magnify"
   viewBox="0 0 266.62756 43.191409"
   height="57.588547"
   preserveAspectRatio="xMidYMid"
   version="1.0"
   id="svg105"
   sodipodi:docname="5.svg"
   xmlns:inkscape="http://www.inkscape.org/namespaces/inkscape"
   xmlns:sodipodi="http://sodipodi.sourceforge.net/DTD/sodipodi-0.dtd"
   xmlns="http://www.w3.org/2000/svg"
   xmlns:svg="http://www.w3.org/2000/svg">
  <sodipodi:namedview
     id="namedview105"
     pagecolor="#ffffff"
     bordercolor="#000000"
     borderopacity="0.25"
     inkscape:showpageshadow="2"
     inkscape:pageopacity="0.0"
     inkscape:pagecheckerboard="0"
     inkscape:deskcolor="#d1d1d1" />
  <defs
     id="defs4">
    <clipPath
       id="7905247e12">
      <path
         d="m 72,154 h 23.46875 v 32 H 72 Z m 0,0"
         clip-rule="nonzero"
         id="path1" />
    </clipPath>
    <clipPath
       id="92a943c08a">
      <path
         d="m 57.582031,180.85156 h 9.8125 v 11.08203 h -9.8125 z m 0,0"
         clip-rule="nonzero"
         id="path2" />
    </clipPath>
    <clipPath
       id="e17eeb2774">
      <path
         d="M 57,148.74219 H 68 V 160 H 57 Z m 0,0"
         clip-rule="nonzero"
         id="path3" />
    </clipPath>
    <clipPath
       id="78655616bb">
      <path
         d="m 57.582031,148.74219 h 20.578125 v 43.1914 H 57.582031 Z m 0,0"
         clip-rule="nonzero"
         id="path4" />
    </clipPath>
  </defs>
  <g
     clip-path="url(#7905247e12)"
     id="g5"
     transform="translate(-37.003906,-148.74219)">
    <path
       fill="#f58e00"
       d="m 91.839844,173.38281 c 0.890625,0.21094 2.660156,-0.63281 3.46875,-1.14453 v -3.79687 C 94.5,167.92969 92.730469,167.08594 91.839844,167.29687 l -0.964844,0.2461 -1.253906,-3.01953 0.859375,-0.51172 c 0.777343,-0.48047 1.433593,-2.32813 1.640625,-3.26172 L 89.4375,158.06641 c -0.933594,0.20703 -2.78125,0.86328 -3.261719,1.64062 l -0.511719,0.85938 -3.019531,-1.25391 0.246094,-0.96484 c 0.210937,-0.89063 -0.632813,-2.66016 -1.144531,-3.46875 H 78.21875 c -0.285156,0.48437 -0.621094,0.95703 -1,1.41796 -0.308594,0.74219 -0.535156,1.53907 -0.414062,2.05079 l 0.246093,0.96484 -3.019531,1.25391 -0.511719,-0.85938 c -0.02344,-0.0352 -0.04687,-0.0703 -0.07422,-0.10547 -0.226562,0.15235 -0.453124,0.30078 -0.683593,0.44922 1.054687,0.67188 2.171875,1.46484 3.152343,2.37109 1.175782,1.08985 2.0625,2.24219 2.671876,3.47266 0.402343,-0.11328 0.824218,-0.17578 1.261718,-0.17578 2.550782,0 4.617188,2.07031 4.617188,4.62109 0,2.55078 -2.066406,4.61719 -4.617188,4.61719 -0.4375,0 -0.859375,-0.0586 -1.261718,-0.17578 -0.609376,1.23437 -1.496094,2.38672 -2.671876,3.47266 -0.980468,0.91015 -2.097656,1.70312 -3.152343,2.375 0.230469,0.14843 0.457031,0.29687 0.683593,0.44921 0.02734,-0.0352 0.05078,-0.0703 0.07422,-0.10546 l 0.511719,-0.85938 3.019531,1.25 -0.246093,0.96875 c -0.121094,0.50781 0.105468,1.30859 0.414062,2.05078 0.378906,0.45703 0.714844,0.92969 1,1.41797 h 3.527344 c 0.511718,-0.80859 1.355468,-2.57812 1.144531,-3.46875 l -0.246094,-0.96875 3.019531,-1.25 0.511719,0.85938 c 0.480469,0.77734 2.328125,1.42968 3.261719,1.64062 l 2.683594,-2.68359 c -0.207032,-0.9336 -0.863282,-2.78125 -1.640625,-3.26172 l -0.859375,-0.51172 1.253906,-3.01953 0.964844,0.24609"
       fill-opacity="1"
       fill-rule="nonzero"
       id="path5" />
  </g>
  <path
     fill="#f58e00"
     d="m 22.824219,29.511721 c -1.800781,-1.66407 -2.929687,-3.48829 -3.410156,-5.52344 -0.8125,1.33594 -2.277344,2.22656 -3.953125,2.22656 -2.550782,0 -4.621094,-2.06641 -4.621094,-4.61719 0,-2.55078 2.070312,-4.62109 4.621094,-4.62109 1.675781,0 3.140625,0.89453 3.953125,2.23047 0.480469,-2.03516 1.609375,-3.85938 3.410156,-5.52735 0.949219,-0.875 2.023437,-1.65234 3.152344,-2.37109 -0.734375,-0.46875 -1.5,-1 -2.230469,-1.5859403 -0.8125,0.3125003 -1.65625,0.7539103 -1.957031,1.2421903 l -0.511719,0.85938 -3.019531,-1.25391 0.246093,-0.9648403 c 0.207032,-0.89063 -0.632812,-2.66016 -1.144531,-3.46875 H 13.5625 c -0.515625,0.80859 -1.355468,2.57812 -1.144531,3.46875 l 0.242187,0.9648403 -3.0195308,1.25391 -0.507812,-0.85938 C 8.6523442,10.187501 6.8046882,9.5312507 5.8710942,9.3242207 l -2.6875,2.6835903 c 0.210938,0.93359 0.867188,2.78125 1.644531,3.26172 l 0.855469,0.51172 -1.25,3.01953 -0.96875,-0.2461 C 2.5781252,18.343751 0.80859419,19.187501 1.9404688e-7,19.699221 v 3.79687 C 0.80859419,24.007811 2.5781252,24.851561 3.4648442,24.640621 l 0.96875,-0.24609 1.25,3.01953 -0.855469,0.51172 c -0.777343,0.48047 -1.433593,2.32812 -1.644531,3.26172 l 2.6875,2.68359 c 0.933594,-0.21094 2.78125,-0.86328 3.261719,-1.64062 l 0.507812,-0.85938 3.0195308,1.25 -0.242187,0.96875 c -0.210937,0.89063 0.628906,2.66016 1.144531,3.46875 h 3.796875 c 0.511719,-0.80859 1.351563,-2.57812 1.144531,-3.46875 l -0.246093,-0.96875 3.019531,-1.25 0.511719,0.85938 c 0.300781,0.48828 1.144531,0.92968 1.957031,1.23828 0.730469,-0.58203 1.496094,-1.11328 2.230469,-1.58203 -1.128907,-0.71875 -2.203125,-1.4961 -3.152344,-2.375"
     fill-opacity="1"
     fill-rule="nonzero"
     id="path6" />
  <path
     fill="#f58e00"
     d="m 23.300782,20.113281 h 15.132812 c -0.08203,-0.34766 -0.199219,-0.6875 -0.351562,-1.01953 H 23.652344 c -0.148438,0.33203 -0.265625,0.67187 -0.351562,1.01953"
     fill-opacity="1"
     fill-rule="nonzero"
     id="path7" />
  <path
     fill="#f58e00"
     d="m 26.085938,16.125001 h 9.566406 c -0.425781,-0.35157 -0.882812,-0.6875 -1.363281,-1.01563 h -6.839844 c -0.484375,0.32813 -0.941406,0.66406 -1.363281,1.01563"
     fill-opacity="1"
     fill-rule="nonzero"
     id="path8" />
  <path
     fill="#f58e00"
     d="m 38.082032,3.5195307 c 0.152343,-0.33203 0.269531,-0.66797 0.351562,-1.01563 H 23.300782 c 0.08594,0.34766 0.203124,0.6836 0.351562,1.01563 h 14.429688"
     fill-opacity="1"
     fill-rule="nonzero"
     id="path9" />
  <path
     fill="#f58e00"
     d="m 34.289063,7.5078107 c 0.480469,-0.32813 0.9375,-0.66406 1.363281,-1.01563 h -9.566406 c 0.421875,0.35157 0.878906,0.6875 1.363281,1.01563 h 6.839844"
     fill-opacity="1"
     fill-rule="nonzero"
     id="path10" />
  <path
     fill="#f58e00"
     d="m 23.652344,24.097651 h 14.429688 c 0.152343,-0.32812 0.269531,-0.66797 0.351562,-1.01562 H 23.300782 c 0.08594,0.34765 0.203124,0.6875 0.351562,1.01562"
     fill-opacity="1"
     fill-rule="nonzero"
     id="path11" />
  <path
     fill="#f58e00"
     d="m 34.289063,28.085931 c 0.480469,-0.32812 0.9375,-0.66406 1.363281,-1.01562 h -9.566406 c 0.421875,0.35156 0.878906,0.6875 1.363281,1.01562 h 6.839844"
     fill-opacity="1"
     fill-rule="nonzero"
     id="path12" />
  <path
     fill="#f58e00"
     d="m 23.652344,39.675781 c -0.148438,0.32812 -0.265625,0.66797 -0.351562,1.01562 h 15.132812 c -0.08203,-0.34765 -0.199219,-0.6875 -0.351562,-1.01562 H 23.652344"
     fill-opacity="1"
     fill-rule="nonzero"
     id="path13" />
  <path
     fill="#f58e00"
     d="m 35.652344,36.703121 c -0.425781,-0.35156 -0.882812,-0.6875 -1.363281,-1.01562 h -6.839844 c -0.484375,0.32812 -0.941406,0.66406 -1.363281,1.01562 h 9.566406"
     fill-opacity="1"
     fill-rule="nonzero"
     id="path14" />
  <path
     fill="#f58e00"
     d="m 31.609375,12.640621 c -0.07422,0.0391 -0.148437,0.082 -0.21875,0.1211 4.097657,2.30078 7.726563,4.63281 7.726563,8.83593 0,4.20313 -3.628906,6.53516 -7.726563,8.83594 0.07031,0.0391 0.144531,0.082 0.21875,0.12109 0.613281,0.33985 1.234375,0.6836 1.847657,1.03907 1.625,-0.94532 3.191406,-1.95703 4.472656,-3.14063 2.167968,-2.00781 3.222656,-4.25 3.222656,-6.85547 0,-2.60547 -1.054688,-4.84765 -3.222656,-6.85547 -1.28125,-1.18359 -2.847656,-2.19531 -4.472656,-3.14062 -0.613282,0.35156 -1.234376,0.69922 -1.847657,1.03906"
     fill-opacity="1"
     fill-rule="nonzero"
     id="path15" />
  <g
     clip-path="url(#92a943c08a)"
     id="g16"
     transform="translate(-37.003906,-148.74219)">
    <path
       fill="#f58e00"
       d="m 67.351562,182.08203 c -0.07422,-0.0391 -0.148437,-0.0781 -0.21875,-0.12109 -0.617187,-0.33985 -1.234374,-0.6836 -1.851562,-1.03907 -1.625,0.94532 -3.191406,1.95704 -4.46875,3.14063 -2.167969,2.00781 -3.222656,4.25 -3.222656,6.85547 0,0.5625 0.453125,1.01562 1.015625,1.01562 0.5625,0 1.015625,-0.45312 1.015625,-1.01562 0,-4.20313 3.628906,-6.53516 7.730468,-8.83594"
       fill-opacity="1"
       fill-rule="nonzero"
       id="path16" />
  </g>
  <g
     clip-path="url(#e17eeb2774)"
     id="g17"
     transform="translate(-37.003906,-148.74219)">
    <path
       fill="#f58e00"
       d="m 65.28125,159.75781 c 0.617188,-0.35547 1.234375,-0.69922 1.851562,-1.03906 0.07422,-0.043 0.144532,-0.082 0.21875,-0.12109 -4.101562,-2.30079 -7.730468,-4.63672 -7.730468,-8.83594 0,-0.5625 -0.453125,-1.01953 -1.015625,-1.01953 -0.5625,0 -1.015625,0.45703 -1.015625,1.01953 0,2.60547 1.054687,4.84765 3.222656,6.85547 1.277344,1.18359 2.84375,2.19531 4.46875,3.14062"
       fill-opacity="1"
       fill-rule="nonzero"
       id="path17" />
  </g>
  <g
     clip-path="url(#78655616bb)"
     id="g18"
     transform="translate(-37.003906,-148.74219)">
    <path
       fill="#f58e00"
       d="m 74.933594,184.0625 c -1.828125,-1.69141 -4.238282,-3.02734 -6.566406,-4.32031 -4.5,-2.4961 -8.746094,-4.85547 -8.746094,-9.40235 0,-4.54687 4.246094,-6.90625 8.746094,-9.40234 2.328124,-1.29297 4.738281,-2.62891 6.566406,-4.32031 2.167968,-2.00782 3.222656,-4.25 3.222656,-6.85547 0,-0.5625 -0.457031,-1.01953 -1.019531,-1.01953 -0.558594,0 -1.015625,0.45703 -1.015625,1.01953 0,4.54687 -4.246094,6.90234 -8.742188,9.39844 -2.332031,1.29687 -4.742187,2.63281 -6.566406,4.32421 -2.167969,2.00782 -3.222656,4.25 -3.222656,6.85547 0,2.60547 1.054687,4.84766 3.222656,6.85547 1.824219,1.69141 4.234375,3.02735 6.566406,4.32422 4.496094,2.49609 8.742188,4.85156 8.742188,9.39844 0,0.5625 0.457031,1.01562 1.015625,1.01562 0.5625,0 1.019531,-0.45312 1.019531,-1.01562 0,-2.60547 -1.054688,-4.84766 -3.222656,-6.85547"
       fill-opacity="1"
       fill-rule="nonzero"
       id="path18" />
  </g>
  <g
     fill="#000000"
     fill-opacity="1"
     id="g21"
     transform="translate(-37.003906,-148.74219)">
    <g
       transform="translate(103.23709,170.49374)"
       id="g20">
      <g
         id="g19">
        <path
           d="M 10.996094,0.226562 C 6.207031,0.257812 2.765625,-1.414062 1.414062,-4.371094 l 5.757813,-1.351562 c 0.578125,1.058594 1.960937,1.671875 3.824219,1.671875 2.15625,0 3.34375,-0.320313 3.34375,-0.902344 0,-1.992187 -13.535156,0.066406 -13.535156,-6.011719 0,-3.472656 3.664062,-5.402344 10.160156,-5.402344 4.789062,0 8.230468,1.671876 9.582031,4.664063 l -5.757813,1.351563 c -0.546874,-1.128907 -1.925781,-1.738282 -3.824218,-1.738282 -2.15625,0 -3.34375,0.320313 -3.34375,0.964844 0,1.734375 13.535156,-0.0625 13.535156,6.011719 0,3.503906 -3.664062,5.402343 -10.160156,5.339843 z m 0,0"
           id="path19" />
      </g>
    </g>
  </g>
  <g
     fill="#000000"
     fill-opacity="1"
     id="g24"
     transform="translate(-37.003906,-148.74219)">
    <g
       transform="translate(127.89176,170.49374)"
       id="g23">
      <g
         id="g22">
        <path
           d="M 15.917969,-2.445312 17.105469,0 h 6.847656 L 15.722656,-16.078125 H 8.585938 L 0.226562,0 h 6.878907 l 1.222656,-2.445312 z m -2.027344,-4.015626 h -3.539063 l 1.800782,-3.988281 z m 0,0"
           id="path21" />
      </g>
    </g>
  </g>
  <g
     fill="#000000"
     fill-opacity="1"
     id="g27"
     transform="translate(-37.003906,-148.74219)">
    <g
       transform="translate(154.57142,170.49374)"
       id="g26">
      <g
         id="g25">
        <path
           d="m 7.652344,-16.078125 4.535156,8.941406 4.628906,-8.941406 h 7.363282 L 15.722656,0 H 8.648438 L 0.320312,-16.078125 Z m 0,0"
           id="path24" />
      </g>
    </g>
  </g>
  <g
     fill="#000000"
     fill-opacity="1"
     id="g30"
     transform="translate(-37.003906,-148.74219)">
    <g
       transform="translate(181.54038,170.49374)"
       id="g29">
      <g
         id="g28">
        <path
           d="M 15.917969,-2.445312 17.105469,0 h 6.847656 L 15.722656,-16.078125 H 8.585938 L 0.226562,0 h 6.878907 l 1.222656,-2.445312 z m -2.027344,-4.015626 h -3.539063 l 1.800782,-3.988281 z m 0,0"
           id="path27" />
      </g>
    </g>
  </g>
  <g
     fill="#000000"
     fill-opacity="1"
     id="g33"
     transform="translate(-37.003906,-148.74219)">
    <g
       transform="translate(208.22005,170.49374)"
       id="g32">
      <g
         id="g31">
        <path
           d="M 1.316406,0 H 8.457031 V -7.363281 L 14.308594,-0.03125 20.386719,0 V -16.078125 H 13.28125 v 7.300781 L 7.394531,-16.109375 H 1.316406 Z m 0,0"
           id="path30" />
      </g>
    </g>
  </g>
  <g
     fill="#000000"
     fill-opacity="1"
     id="g36"
     transform="translate(-37.003906,-148.74219)">
    <g
       transform="translate(232.39257,170.49374)"
       id="g35">
      <g
         id="g34">
        <path
           d="M 1.316406,0 H 8.457031 V -7.363281 L 14.308594,-0.03125 20.386719,0 V -16.078125 H 13.28125 v 7.300781 L 7.394531,-16.109375 H 1.316406 Z m 0,0"
           id="path33" />
      </g>
    </g>
  </g>
  <g
     fill="#000000"
     fill-opacity="1"
     id="g39"
     transform="translate(-37.003906,-148.74219)">
    <g
       transform="translate(256.56508,170.49374)"
       id="g38">
      <g
         id="g37">
        <path
           d="M 15.917969,-2.445312 17.105469,0 h 6.847656 L 15.722656,-16.078125 H 8.585938 L 0.226562,0 h 6.878907 l 1.222656,-2.445312 z m -2.027344,-4.015626 h -3.539063 l 1.800782,-3.988281 z m 0,0"
           id="path36" />
      </g>
    </g>
  </g>
  <g
     fill="#000000"
     fill-opacity="1"
     id="g42"
     transform="translate(-37.003906,-148.74219)">
    <g
       transform="translate(283.24475,170.49374)"
       id="g41">
      <g
         id="g40">
        <path
           d="M 20.386719,-16.078125 H 13.28125 v 5.53125 H 8.457031 v -5.53125 H 1.316406 V 0 H 8.457031 V -5.5625 H 13.28125 V 0 h 7.105469 z m 0,0"
           id="path39" />
      </g>
    </g>
  </g>
  <g
     fill="#f58e00"
     fill-opacity="1"
     id="g45"
     transform="translate(-37.003906,-148.74219)">
    <g
       transform="translate(103.98709,185.60574)"
       id="g44">
      <g
         id="g43">
        <path
           d="M 4.34375,-4.1875 V 0 H 3.375 V -1.71875 H 1.46875 V 0 H 0.5 v -4.1875 h 0.96875 v 1.65625 H 3.375 V -4.1875 Z m 0,0"
           id="path42" />
      </g>
    </g>
  </g>
  <g
     fill="#f58e00"
     fill-opacity="1"
     id="g48"
     transform="translate(-37.003906,-148.74219)">
    <g
       transform="translate(112.30725,185.60574)"
       id="g47">
      <g
         id="g46">
        <path
           d="M 0.5,-4.1875 H 1.46875 V 0 H 0.5 Z m 0,0"
           id="path45" />
      </g>
    </g>
  </g>
  <g
     fill="#f58e00"
     fill-opacity="1"
     id="g51"
     transform="translate(-37.003906,-148.74219)">
    <g
       transform="translate(117.75631,185.60574)"
       id="g50">
      <g
         id="g49">
        <path
           d="M 3.328125,-2.15625 H 4.21875 v 1.703125 C 3.988281,-0.285156 3.722656,-0.15625 3.421875,-0.0625 3.117188,0.03125 2.816406,0.078125 2.515625,0.078125 c -0.4375,0 -0.828125,-0.09375 -1.171875,-0.28125 C 1,-0.390625 0.726562,-0.644531 0.53125,-0.96875 0.332031,-1.300781 0.234375,-1.675781 0.234375,-2.09375 c 0,-0.414062 0.097656,-0.785156 0.296875,-1.109375 0.195312,-0.332031 0.46875,-0.59375 0.8125,-0.78125 0.351562,-0.1875 0.75,-0.28125 1.1875,-0.28125 0.375,0 0.707031,0.0625 1,0.1875 0.300781,0.125 0.554688,0.308594 0.765625,0.546875 l -0.625,0.5625 C 3.367188,-3.28125 3.003906,-3.4375 2.578125,-3.4375 c -0.261719,0 -0.496094,0.058594 -0.703125,0.171875 -0.210938,0.117187 -0.371094,0.277344 -0.484375,0.484375 -0.117187,0.199219 -0.171875,0.429688 -0.171875,0.6875 0,0.261719 0.054688,0.496094 0.171875,0.703125 0.113281,0.199219 0.269531,0.355469 0.46875,0.46875 0.207031,0.117187 0.445313,0.171875 0.71875,0.171875 0.269531,0 0.519531,-0.0625 0.75,-0.1875 z m 0,0"
           id="path48" />
      </g>
    </g>
  </g>
  <g
     fill="#f58e00"
     fill-opacity="1"
     id="g54"
     transform="translate(-37.003906,-148.74219)">
    <g
       transform="translate(125.85515,185.60574)"
       id="g53">
      <g
         id="g52">
        <path
           d="M 4.34375,-4.1875 V 0 H 3.375 V -1.71875 H 1.46875 V 0 H 0.5 v -4.1875 h 0.96875 v 1.65625 H 3.375 V -4.1875 Z m 0,0"
           id="path51" />
      </g>
    </g>
  </g>
  <g
     fill="#f58e00"
     fill-opacity="1"
     id="g60"
     transform="translate(-37.003906,-148.74219)">
    <g
       transform="translate(139.3552,185.60574)"
       id="g59">
      <g
         id="g58">
        <path
           d="M 3.25,-0.890625 H 1.3125 L 0.9375,0 H -0.046875 L 1.8125,-4.1875 H 2.765625 L 4.640625,0 H 3.625 Z m -0.296875,-0.75 -0.671875,-1.59375 -0.65625,1.59375 z m 0,0"
           id="path57" />
      </g>
    </g>
  </g>
  <g
     fill="#f58e00"
     fill-opacity="1"
     id="g63"
     transform="translate(-37.003906,-148.74219)">
    <g
       transform="translate(147.42413,185.60574)"
       id="g62">
      <g
         id="g61">
        <path
           d="m 2.5,0.078125 c -0.429688,0 -0.8125,-0.09375 -1.15625,-0.28125 C 1,-0.390625 0.726562,-0.644531 0.53125,-0.96875 0.332031,-1.300781 0.234375,-1.675781 0.234375,-2.09375 c 0,-0.414062 0.097656,-0.785156 0.296875,-1.109375 0.195312,-0.332031 0.46875,-0.59375 0.8125,-0.78125 0.34375,-0.1875 0.726562,-0.28125 1.15625,-0.28125 0.363281,0 0.691406,0.070313 0.984375,0.203125 0.300781,0.125 0.550781,0.308594 0.75,0.546875 l -0.625,0.578125 c -0.28125,-0.332031 -0.632813,-0.5 -1.046875,-0.5 -0.261719,0 -0.496094,0.058594 -0.703125,0.171875 -0.199219,0.117187 -0.355469,0.277344 -0.46875,0.484375 -0.117187,0.199219 -0.171875,0.429688 -0.171875,0.6875 0,0.261719 0.054688,0.496094 0.171875,0.703125 0.113281,0.199219 0.269531,0.355469 0.46875,0.46875 C 2.066406,-0.804688 2.300781,-0.75 2.5625,-0.75 c 0.414062,0 0.765625,-0.164062 1.046875,-0.5 l 0.625,0.578125 c -0.199219,0.242187 -0.449219,0.429687 -0.75,0.5625 -0.292969,0.125 -0.621094,0.1875 -0.984375,0.1875 z m 0,0"
           id="path60" />
      </g>
    </g>
  </g>
  <g
     fill="#f58e00"
     fill-opacity="1"
     id="g66"
     transform="translate(-37.003906,-148.74219)">
    <g
       transform="translate(155.29568,185.60574)"
       id="g65">
      <g
         id="g64">
        <path
           d="m 2.359375,0.078125 c -0.605469,0 -1.074219,-0.1640625 -1.40625,-0.5 -0.335937,-0.332031 -0.5,-0.804687 -0.5,-1.421875 V -4.1875 H 1.4375 v 2.3125 c 0,0.75 0.304688,1.125 0.921875,1.125 0.300781,0 0.53125,-0.085938 0.6875,-0.265625 0.164063,-0.1875 0.25,-0.472656 0.25,-0.859375 V -4.1875 H 4.25 v 2.34375 c 0,0.617188 -0.167969,1.089844 -0.5,1.421875 -0.335938,0.3359375 -0.796875,0.5 -1.390625,0.5 z m 0,0"
           id="path63" />
      </g>
    </g>
  </g>
  <g
     fill="#f58e00"
     fill-opacity="1"
     id="g69"
     transform="translate(-37.003906,-148.74219)">
    <g
       transform="translate(163.4962,185.60574)"
       id="g68">
      <g
         id="g67">
        <path
           d="m 3.171875,0 -0.8125,-1.171875 H 1.46875 V 0 H 0.5 v -4.1875 h 1.8125 c 0.363281,0 0.679688,0.0625 0.953125,0.1875 0.28125,0.125 0.492187,0.304688 0.640625,0.53125 0.144531,0.21875 0.21875,0.484375 0.21875,0.796875 0,0.3125 -0.074219,0.585937 -0.21875,0.8125 -0.148438,0.21875 -0.359375,0.390625 -0.640625,0.515625 L 4.203125,0 Z m -0.03125,-2.671875 c 0,-0.226563 -0.078125,-0.40625 -0.234375,-0.53125 C 2.757812,-3.335938 2.539062,-3.40625 2.25,-3.40625 H 1.46875 V -1.9375 H 2.25 C 2.539062,-1.9375 2.757812,-2 2.90625,-2.125 3.0625,-2.257812 3.140625,-2.441406 3.140625,-2.671875 Z m 0,0"
           id="path66" />
      </g>
    </g>
  </g>
  <g
     fill="#f58e00"
     fill-opacity="1"
     id="g72"
     transform="translate(-37.003906,-148.74219)">
    <g
       transform="translate(171.37971,185.60574)"
       id="g71">
      <g
         id="g70">
        <path
           d="M 3.25,-0.890625 H 1.3125 L 0.9375,0 H -0.046875 L 1.8125,-4.1875 H 2.765625 L 4.640625,0 H 3.625 Z m -0.296875,-0.75 -0.671875,-1.59375 -0.65625,1.59375 z m 0,0"
           id="path69" />
      </g>
    </g>
  </g>
  <g
     fill="#f58e00"
     fill-opacity="1"
     id="g75"
     transform="translate(-37.003906,-148.74219)">
    <g
       transform="translate(179.44864,185.60574)"
       id="g74">
      <g
         id="g73">
        <path
           d="m 2.5,0.078125 c -0.429688,0 -0.8125,-0.09375 -1.15625,-0.28125 C 1,-0.390625 0.726562,-0.644531 0.53125,-0.96875 0.332031,-1.300781 0.234375,-1.675781 0.234375,-2.09375 c 0,-0.414062 0.097656,-0.785156 0.296875,-1.109375 0.195312,-0.332031 0.46875,-0.59375 0.8125,-0.78125 0.34375,-0.1875 0.726562,-0.28125 1.15625,-0.28125 0.363281,0 0.691406,0.070313 0.984375,0.203125 0.300781,0.125 0.550781,0.308594 0.75,0.546875 l -0.625,0.578125 c -0.28125,-0.332031 -0.632813,-0.5 -1.046875,-0.5 -0.261719,0 -0.496094,0.058594 -0.703125,0.171875 -0.199219,0.117187 -0.355469,0.277344 -0.46875,0.484375 -0.117187,0.199219 -0.171875,0.429688 -0.171875,0.6875 0,0.261719 0.054688,0.496094 0.171875,0.703125 0.113281,0.199219 0.269531,0.355469 0.46875,0.46875 C 2.066406,-0.804688 2.300781,-0.75 2.5625,-0.75 c 0.414062,0 0.765625,-0.164062 1.046875,-0.5 l 0.625,0.578125 c -0.199219,0.242187 -0.449219,0.429687 -0.75,0.5625 -0.292969,0.125 -0.621094,0.1875 -0.984375,0.1875 z m 0,0"
           id="path72" />
      </g>
    </g>
  </g>
  <g
     fill="#f58e00"
     fill-opacity="1"
     id="g78"
     transform="translate(-37.003906,-148.74219)">
    <g
       transform="translate(187.32018,185.60574)"
       id="g77">
      <g
         id="g76">
        <path
           d="M 2.5,-1.484375 V 0 H 1.53125 v -1.5 l -1.609375,-2.6875 h 1.03125 L 2.0625,-2.328125 3.1875,-4.1875 h 0.953125 z m 0,0"
           id="path75" />
      </g>
    </g>
  </g>
  <g
     fill="#f58e00"
     fill-opacity="1"
     id="g84"
     transform="translate(-37.003906,-148.74219)">
    <g
       transform="translate(200.03069,185.60574)"
       id="g83">
      <g
         id="g82">
        <path
           d="M 3.25,-0.890625 H 1.3125 L 0.9375,0 H -0.046875 L 1.8125,-4.1875 H 2.765625 L 4.640625,0 H 3.625 Z m -0.296875,-0.75 -0.671875,-1.59375 -0.65625,1.59375 z m 0,0"
           id="path81" />
      </g>
    </g>
  </g>
  <g
     fill="#f58e00"
     fill-opacity="1"
     id="g87"
     transform="translate(-37.003906,-148.74219)">
    <g
       transform="translate(208.09962,185.60574)"
       id="g86">
      <g
         id="g85">
        <path
           d="M 4.34375,-4.1875 V 0 H 3.546875 L 1.453125,-2.546875 V 0 H 0.5 V -4.1875 H 1.296875 L 3.375,-1.640625 V -4.1875 Z m 0,0"
           id="path84" />
      </g>
    </g>
  </g>
  <g
     fill="#f58e00"
     fill-opacity="1"
     id="g90"
     transform="translate(-37.003906,-148.74219)">
    <g
       transform="translate(216.41977,185.60574)"
       id="g89">
      <g
         id="g88">
        <path
           d="M 3.25,-0.890625 H 1.3125 L 0.9375,0 H -0.046875 L 1.8125,-4.1875 H 2.765625 L 4.640625,0 H 3.625 Z m -0.296875,-0.75 -0.671875,-1.59375 -0.65625,1.59375 z m 0,0"
           id="path87" />
      </g>
    </g>
  </g>
  <g
     fill="#f58e00"
     fill-opacity="1"
     id="g93"
     transform="translate(-37.003906,-148.74219)">
    <g
       transform="translate(224.4887,185.60574)"
       id="g92">
      <g
         id="g91">
        <path
           d="m 0.5,-4.1875 h 0.96875 v 3.390625 H 3.5625 V 0 H 0.5 Z m 0,0"
           id="path90" />
      </g>
    </g>
  </g>
  <g
     fill="#f58e00"
     fill-opacity="1"
     id="g96"
     transform="translate(-37.003906,-148.74219)">
    <g
       transform="translate(231.58864,185.60574)"
       id="g95">
      <g
         id="g94">
        <path
           d="M 2.5,-1.484375 V 0 H 1.53125 v -1.5 l -1.609375,-2.6875 h 1.03125 L 2.0625,-2.328125 3.1875,-4.1875 h 0.953125 z m 0,0"
           id="path93" />
      </g>
    </g>
  </g>
  <g
     fill="#f58e00"
     fill-opacity="1"
     id="g99"
     transform="translate(-37.003906,-148.74219)">
    <g
       transform="translate(239.11923,185.60574)"
       id="g98">
      <g
         id="g97">
        <path
           d="M 1.875,0.078125 C 1.539062,0.078125 1.21875,0.03125 0.90625,-0.0625 0.601562,-0.15625 0.359375,-0.269531 0.171875,-0.40625 L 0.5,-1.140625 c 0.175781,0.125 0.390625,0.230469 0.640625,0.3125 0.25,0.085937 0.492187,0.125 0.734375,0.125 0.28125,0 0.484375,-0.039063 0.609375,-0.125 C 2.617188,-0.910156 2.6875,-1.019531 2.6875,-1.15625 2.6875,-1.25 2.644531,-1.328125 2.5625,-1.390625 2.488281,-1.460938 2.390625,-1.519531 2.265625,-1.5625 2.148438,-1.601562 1.988281,-1.644531 1.78125,-1.6875 1.457031,-1.769531 1.191406,-1.847656 0.984375,-1.921875 0.785156,-1.992188 0.613281,-2.113281 0.46875,-2.28125 0.320312,-2.445312 0.25,-2.671875 0.25,-2.953125 c 0,-0.25 0.0625,-0.46875 0.1875,-0.65625 0.132812,-0.195313 0.332031,-0.351563 0.59375,-0.46875 0.269531,-0.125 0.597656,-0.1875 0.984375,-0.1875 0.269531,0 0.53125,0.039063 0.78125,0.109375 0.257813,0.0625 0.484375,0.152344 0.671875,0.265625 L 3.171875,-3.15625 C 2.785156,-3.375 2.398438,-3.484375 2.015625,-3.484375 c -0.273437,0 -0.476563,0.046875 -0.609375,0.140625 -0.125,0.085938 -0.1875,0.199219 -0.1875,0.34375 0,0.148438 0.070312,0.257812 0.21875,0.328125 0.144531,0.0625 0.375,0.125 0.6875,0.1875 0.320312,0.085937 0.582031,0.164063 0.78125,0.234375 0.207031,0.074219 0.382812,0.195312 0.53125,0.359375 0.144531,0.167969 0.21875,0.386719 0.21875,0.65625 0,0.242187 -0.070312,0.460937 -0.203125,0.65625 C 3.316406,-0.378906 3.113281,-0.21875 2.84375,-0.09375 2.582031,0.0195312 2.257812,0.078125 1.875,0.078125 Z m 0,0"
           id="path96" />
      </g>
    </g>
  </g>
  <g
     fill="#f58e00"
     fill-opacity="1"
     id="g102"
     transform="translate(-37.003906,-148.74219)">
    <g
       transform="translate(246.42253,185.60574)"
       id="g101">
      <g
         id="g100">
        <path
           d="M 0.5,-4.1875 H 1.46875 V 0 H 0.5 Z m 0,0"
           id="path99" />
      </g>
    </g>
  </g>
  <g
     fill="#f58e00"
     fill-opacity="1"
     id="g105"
     transform="translate(-37.003906,-148.74219)">
    <g
       transform="translate(251.8716,185.60574)"
       id="g104">
      <g
         id="g103">
        <path
           d="M 1.875,0.078125 C 1.539062,0.078125 1.21875,0.03125 0.90625,-0.0625 0.601562,-0.15625 0.359375,-0.269531 0.171875,-0.40625 L 0.5,-1.140625 c 0.175781,0.125 0.390625,0.230469 0.640625,0.3125 0.25,0.085937 0.492187,0.125 0.734375,0.125 0.28125,0 0.484375,-0.039063 0.609375,-0.125 C 2.617188,-0.910156 2.6875,-1.019531 2.6875,-1.15625 2.6875,-1.25 2.644531,-1.328125 2.5625,-1.390625 2.488281,-1.460938 2.390625,-1.519531 2.265625,-1.5625 2.148438,-1.601562 1.988281,-1.644531 1.78125,-1.6875 1.457031,-1.769531 1.191406,-1.847656 0.984375,-1.921875 0.785156,-1.992188 0.613281,-2.113281 0.46875,-2.28125 0.320312,-2.445312 0.25,-2.671875 0.25,-2.953125 c 0,-0.25 0.0625,-0.46875 0.1875,-0.65625 0.132812,-0.195313 0.332031,-0.351563 0.59375,-0.46875 0.269531,-0.125 0.597656,-0.1875 0.984375,-0.1875 0.269531,0 0.53125,0.039063 0.78125,0.109375 0.257813,0.0625 0.484375,0.152344 0.671875,0.265625 L 3.171875,-3.15625 C 2.785156,-3.375 2.398438,-3.484375 2.015625,-3.484375 c -0.273437,0 -0.476563,0.046875 -0.609375,0.140625 -0.125,0.085938 -0.1875,0.199219 -0.1875,0.34375 0,0.148438 0.070312,0.257812 0.21875,0.328125 0.144531,0.0625 0.375,0.125 0.6875,0.1875 0.320312,0.085937 0.582031,0.164063 0.78125,0.234375 0.207031,0.074219 0.382812,0.195312 0.53125,0.359375 0.144531,0.167969 0.21875,0.386719 0.21875,0.65625 0,0.242187 -0.070312,0.460937 -0.203125,0.65625 C 3.316406,-0.378906 3.113281,-0.21875 2.84375,-0.09375 2.582031,0.0195312 2.257812,0.078125 1.875,0.078125 Z m 0,0"
           id="path102" />
      </g>
    </g>
  </g>
</svg>
