<?xml version="1.0" encoding="UTF-8" standalone="no"?>
<svg
   width="359.81934"
   zoomAndPan="magnify"
   viewBox="0 0 269.8645 45.609362"
   height="60.812485"
   preserveAspectRatio="xMidYMid"
   version="1.0"
   id="svg122"
   sodipodi:docname="2.svg"
   xmlns:inkscape="http://www.inkscape.org/namespaces/inkscape"
   xmlns:sodipodi="http://sodipodi.sourceforge.net/DTD/sodipodi-0.dtd"
   xmlns="http://www.w3.org/2000/svg"
   xmlns:svg="http://www.w3.org/2000/svg">
  <sodipodi:namedview
     id="namedview122"
     pagecolor="#ffffff"
     bordercolor="#000000"
     borderopacity="0.25"
     inkscape:showpageshadow="2"
     inkscape:pageopacity="0.0"
     inkscape:pagecheckerboard="0"
     inkscape:deskcolor="#d1d1d1" />
  <defs
     id="defs3">
    <clipPath
       id="302ab4312e">
      <path
         d="m 61,167.46875 h 39 v 45.75 H 61 Z m 0,0"
         clip-rule="nonzero"
         id="path1" />
    </clipPath>
    <clipPath
       id="68d96cc7e8">
      <path
         d="M 57.230469,167.46875 H 77 V 196 H 57.230469 Z m 0,0"
         clip-rule="nonzero"
         id="path2" />
    </clipPath>
    <clipPath
       id="74172f1665">
      <path
         d="m 84,167.46875 h 18.98047 V 196 H 84 Z m 0,0"
         clip-rule="nonzero"
         id="path3" />
    </clipPath>
  </defs>
  <path
     fill="#f58e00"
     d="m 19.003907,7.601558 h 7.601563 v 1.51953 h -7.601563 z m 0,0"
     fill-opacity="1"
     fill-rule="nonzero"
     id="path4" />
  <path
     fill="#f58e00"
     d="m 19.003907,10.644528 h 7.601563 v 1.51953 h -7.601563 z m 0,0"
     fill-opacity="1"
     fill-rule="nonzero"
     id="path5" />
  <g
     clip-path="url(#302ab4312e)"
     id="g6"
     transform="translate(-57.230468,-167.46875)">
    <path
       fill="#f58e00"
       d="m 99.039062,206.99609 v -6.07812 c 0,-0.33985 -0.222656,-0.63672 -0.550781,-0.73047 l -17.695312,-5.16406 v -9.3086 h 5.320312 c 0.421875,0 0.761719,-0.34375 0.761719,-0.76172 v -12.16406 c 0,-0.19922 -0.08203,-0.39453 -0.222656,-0.53515 l -4.5625,-4.5625 c -0.140625,-0.14063 -0.335938,-0.22266 -0.535156,-0.22266 h -7.601563 c -0.421875,0 -0.761719,0.33984 -0.761719,0.76172 v 16.72265 c 0,0.41797 0.339844,0.76172 0.761719,0.76172 h 5.320313 v 9.3086 l -17.695313,5.16406 c -0.324219,0.0937 -0.546875,0.39062 -0.546875,0.73047 v 6.07812 c 0,0.33985 0.222656,0.63672 0.546875,0.73047 l 18.242187,5.32031 c 0.07031,0.0234 0.140626,0.0312 0.214844,0.0312 0.07031,0 0.140625,-0.008 0.210938,-0.0312 l 18.242187,-5.32031 c 0.328125,-0.0937 0.550781,-0.39062 0.550781,-0.73047 z M 82.3125,170.06641 l 1.96875,1.96484 H 82.3125 Z m -7.601562,-1.07813 h 6.082031 v 3.80078 c 0,0.42188 0.339843,0.76172 0.761719,0.76172 h 3.800781 v 10.64063 H 74.710938 Z m 4.5625,27.62109 v 3.99219 l -1.742188,-1.74219 -1.074219,1.07422 3.039063,3.03907 c 0.148437,0.14843 0.34375,0.22265 0.539062,0.22265 0.191406,0 0.386719,-0.0742 0.535156,-0.22265 l 3.042969,-3.03907 -1.078125,-1.07422 -1.742187,1.74219 v -3.99219 l 14.769531,4.3086 -15.527344,4.52734 -15.53125,-4.52734 z m -16.722657,5.32032 16.722657,4.8789 v 4.4961 l -16.722657,-4.87891 z m 18.242188,9.375 v -4.4961 l 16.722656,-4.8789 v 4.49609 z m 0,0"
       fill-opacity="1"
       fill-rule="nonzero"
       id="path6" />
  </g>
  <path
     fill="#f58e00"
     d="m 19.003907,4.562498 h 3.039063 v 1.51953 h -3.039063 z m 0,0"
     fill-opacity="1"
     fill-rule="nonzero"
     id="path7" />
  <g
     clip-path="url(#68d96cc7e8)"
     id="g8"
     transform="translate(-57.230468,-167.46875)">
    <path
       fill="#f58e00"
       d="m 57.988281,185.71484 h 5.320313 c 0,2.09375 1.707031,3.80078 3.800781,3.80078 h 2.28125 c 1.257813,0 2.28125,1.02344 2.28125,2.27735 V 193 l -1.742187,-1.74219 -1.074219,1.07422 3.039062,3.03906 c 0.148438,0.14844 0.34375,0.22266 0.539063,0.22266 0.191406,0 0.386718,-0.0742 0.535156,-0.22266 l 3.042969,-3.03906 -1.078125,-1.07422 L 73.191406,193 v -1.20703 c 0,-2.09375 -1.703125,-3.80078 -3.800781,-3.80078 h -2.28125 c -1.257813,0 -2.277344,-1.02344 -2.277344,-2.27735 h 5.320313 c 0.417968,0 0.757812,-0.34375 0.757812,-0.76172 v -12.16406 c 0,-0.19922 -0.07813,-0.39453 -0.222656,-0.53515 l -4.558594,-4.5625 c -0.144531,-0.14063 -0.335937,-0.22266 -0.539062,-0.22266 h -7.601563 c -0.417969,0 -0.757812,0.33984 -0.757812,0.76172 v 16.72265 c 0,0.41797 0.339843,0.76172 0.757812,0.76172 z m 8.363281,-15.64843 1.964844,1.96484 H 66.351562 Z M 58.75,168.98828 h 6.082031 v 3.80078 c 0,0.42188 0.339844,0.76172 0.757813,0.76172 h 3.800781 v 10.64063 H 58.75 Z m 0,0"
       fill-opacity="1"
       fill-rule="nonzero"
       id="path8" />
  </g>
  <path
     fill="#f58e00"
     d="m 3.0390629,7.601558 h 7.6015631 v 1.51953 H 3.0390629 Z m 0,0"
     fill-opacity="1"
     fill-rule="nonzero"
     id="path9" />
  <path
     fill="#f58e00"
     d="m 3.0390629,10.644528 h 7.6015631 v 1.51953 H 3.0390629 Z m 0,0"
     fill-opacity="1"
     fill-rule="nonzero"
     id="path10" />
  <path
     fill="#f58e00"
     d="m 3.0390629,13.683588 h 7.6015631 v 1.51953 H 3.0390629 Z m 0,0"
     fill-opacity="1"
     fill-rule="nonzero"
     id="path11" />
  <path
     fill="#f58e00"
     d="m 3.0390629,4.562498 h 3.039063 v 1.51953 h -3.039063 z m 0,0"
     fill-opacity="1"
     fill-rule="nonzero"
     id="path12" />
  <g
     clip-path="url(#74172f1665)"
     id="g13"
     transform="translate(-57.230468,-167.46875)">
    <path
       fill="#f58e00"
       d="m 102.83984,184.95312 v -12.16406 c 0,-0.19922 -0.082,-0.39453 -0.22265,-0.53515 l -4.562502,-4.5625 c -0.140626,-0.14063 -0.335938,-0.22266 -0.539063,-0.22266 h -7.601563 c -0.417968,0 -0.757812,0.33984 -0.757812,0.76172 v 16.72265 c 0,0.41797 0.339844,0.76172 0.757812,0.76172 h 5.324219 c 0,1.25391 -1.023437,2.27735 -2.28125,2.27735 h -2.28125 c -2.097656,0 -3.800781,1.70703 -3.800781,3.80078 V 193 l -1.742188,-1.74219 -1.074218,1.07422 3.039062,3.03906 c 0.148438,0.14844 0.34375,0.22266 0.539063,0.22266 0.191406,0 0.386719,-0.0742 0.535156,-0.22266 l 3.042969,-3.03906 -1.078125,-1.07422 L 88.394531,193 v -1.20703 c 0,-1.25391 1.023438,-2.27735 2.28125,-2.27735 h 2.28125 c 2.09375,0 3.800781,-1.70703 3.800781,-3.80078 h 5.320318 c 0.42187,0 0.76171,-0.34375 0.76171,-0.76172 z m -4.562496,-14.88671 1.964846,1.96484 h -1.964846 z m -7.601563,14.125 v -15.20313 h 6.082031 v 3.80078 c 0,0.42188 0.339844,0.76172 0.757813,0.76172 h 3.800785 v 10.64063 z m 0,0"
       fill-opacity="1"
       fill-rule="nonzero"
       id="path13" />
  </g>
  <path
     fill="#f58e00"
     d="m 34.964844,7.601558 h 7.601563 v 1.51953 h -7.601563 z m 0,0"
     fill-opacity="1"
     fill-rule="nonzero"
     id="path14" />
  <path
     fill="#f58e00"
     d="m 34.964844,10.644528 h 7.601563 v 1.51953 h -7.601563 z m 0,0"
     fill-opacity="1"
     fill-rule="nonzero"
     id="path15" />
  <path
     fill="#f58e00"
     d="m 34.964844,13.683588 h 7.601563 v 1.51953 h -7.601563 z m 0,0"
     fill-opacity="1"
     fill-rule="nonzero"
     id="path16" />
  <path
     fill="#f58e00"
     d="m 34.964844,4.562498 h 3.042969 v 1.51953 h -3.042969 z m 0,0"
     fill-opacity="1"
     fill-rule="nonzero"
     id="path17" />
  <path
     fill="#f58e00"
     d="m 19.003907,13.683588 h 1.519531 v 1.51953 h -1.519531 z m 0,0"
     fill-opacity="1"
     fill-rule="nonzero"
     id="path18" />
  <path
     fill="#f58e00"
     d="m 22.04297,13.683588 h 1.519531 v 1.51953 H 22.04297 Z m 0,0"
     fill-opacity="1"
     fill-rule="nonzero"
     id="path19" />
  <path
     fill="#f58e00"
     d="m 25.082032,13.683588 h 1.523438 v 1.51953 h -1.523438 z m 0,0"
     fill-opacity="1"
     fill-rule="nonzero"
     id="path20" />
  <g
     fill="#000000"
     fill-opacity="1"
     id="g23"
     transform="translate(-57.230468,-167.46875)">
    <g
       transform="translate(109.80155,189.96954)"
       id="g22">
      <g
         id="g21">
        <path
           d="m 29.78125,-15.675781 h -6.238281 l -2.976563,8.621093 -3.011718,-8.589843 -5.015626,-0.03125 L 9.5625,-7.054688 6.519531,-15.675781 H 0.3125 L 6.707031,0 h 5.613281 L 15.046875,-7.929688 17.742188,0 h 5.644531 z m 0,0"
           id="path21" />
      </g>
    </g>
  </g>
  <g
     fill="#000000"
     fill-opacity="1"
     id="g26"
     transform="translate(-57.230468,-167.46875)">
    <g
       transform="translate(142.30153,189.96954)"
       id="g25">
      <g
         id="g24">
        <path
           d="M 15.519531,-2.382812 16.679688,0 h 6.675781 L 15.332031,-15.675781 H 8.371094 L 0.21875,0 H 6.929688 L 8.121094,-2.382812 Z M 13.542969,-6.300781 H 10.09375 l 1.757812,-3.886719 z m 0,0"
           id="path23" />
      </g>
    </g>
  </g>
  <g
     fill="#000000"
     fill-opacity="1"
     id="g29"
     transform="translate(-57.230468,-167.46875)">
    <g
       transform="translate(168.31429,189.96954)"
       id="g28">
      <g
         id="g27">
        <path
           d="M 17.742188,-6.773438 C 19.125,-7.585938 19.875,-8.902344 19.875,-10.660156 c 0,-3.195313 -2.320312,-5.015625 -6.457031,-5.015625 H 1.285156 V 0 h 6.960938 v -5.738281 h 2.820312 c 1.566406,0.125 2.445313,0.910156 2.445313,2.195312 V 0 H 19.75 v -2.570312 c 0,-1.882813 -0.6875,-3.324219 -2.007812,-4.203126 z M 12.007812,-9.65625 H 8.246094 v -1.878906 h 3.761718 c 1.066407,0 1.660157,0.34375 1.660157,0.96875 0,0.597656 -0.59375,0.910156 -1.660157,0.910156 z m 0,0"
           id="path26" />
      </g>
    </g>
  </g>
  <g
     fill="#000000"
     fill-opacity="1"
     id="g32"
     transform="translate(-57.230468,-167.46875)">
    <g
       transform="translate(191.69455,189.96954)"
       id="g31">
      <g
         id="g30">
        <path
           d="m 8.246094,-11.535156 h 9.65625 v -4.140625 H 1.285156 V 0 h 16.617188 v -4.167969 h -9.65625 v -1.726562 h 9.65625 V -9.8125 h -9.65625 z m 0,0"
           id="path29" />
      </g>
    </g>
  </g>
  <g
     fill="#f58e00"
     fill-opacity="1"
     id="g35"
     transform="translate(-57.230468,-167.46875)">
    <g
       transform="translate(213.28982,189.96954)"
       id="g34">
      <g
         id="g33">
        <path
           d="m 19.875,-15.675781 h -6.925781 v 5.394531 H 8.246094 v -5.394531 H 1.285156 V 0 h 6.960938 v -5.421875 h 4.703125 V 0 H 19.875 Z m 0,0"
           id="path32" />
      </g>
    </g>
  </g>
  <g
     fill="#f58e00"
     fill-opacity="1"
     id="g38"
     transform="translate(-57.230468,-167.46875)">
    <g
       transform="translate(236.85811,189.96954)"
       id="g37">
      <g
         id="g36">
        <path
           d="m 11.160156,0.28125 c 6.457032,0 10.09375,-2.945312 10.09375,-8.117188 0,-5.175781 -3.636718,-8.121093 -10.09375,-8.121093 -6.457031,0 -10.125,2.945312 -10.125,8.121093 0,5.171876 3.667969,8.117188 10.125,8.117188 z m 0.03125,-4.859375 c -2.101562,0 -3.261718,-1.160156 -3.261718,-3.257813 0,-2.101562 1.160156,-3.261718 3.261718,-3.261718 2.039063,0 3.167969,1.160156 3.167969,3.261718 0,2.097657 -1.128906,3.257813 -3.167969,3.257813 z m 0,0"
           id="path35" />
      </g>
    </g>
  </g>
  <g
     fill="#f58e00"
     fill-opacity="1"
     id="g41"
     transform="translate(-57.230468,-167.46875)">
    <g
       transform="translate(261.58595,189.96954)"
       id="g40">
      <g
         id="g39">
        <path
           d="m 1.285156,-15.675781 v 8.214843 c 0,4.953126 3.355469,7.742188 9.3125,7.742188 5.921875,0 9.277344,-2.789062 9.277344,-7.742188 v -8.214843 h -6.925781 v 8.214843 c 0,1.847657 -0.847657,2.882813 -2.351563,2.882813 -1.507812,0 -2.351562,-1.035156 -2.351562,-2.882813 v -8.214843 z m 0,0"
           id="path38" />
      </g>
    </g>
  </g>
  <g
     fill="#f58e00"
     fill-opacity="1"
     id="g44"
     transform="translate(-57.230468,-167.46875)">
    <g
       transform="translate(285.15424,189.96954)"
       id="g43">
      <g
         id="g42">
        <path
           d="M 10.722656,0.21875 C 6.050781,0.25 2.695312,-1.378906 1.378906,-4.261719 l 5.613282,-1.320312 c 0.5625,1.035156 1.910156,1.632812 3.730468,1.632812 2.097656,0 3.257813,-0.3125 3.257813,-0.878906 0,-1.945313 -13.195313,0.0625 -13.195313,-5.863281 0,-3.382813 3.574219,-5.265625 9.90625,-5.265625 4.671875,0 8.023438,1.628906 9.339844,4.546875 l -5.609375,1.316406 c -0.535156,-1.097656 -1.882813,-1.695312 -3.730469,-1.695312 -2.101562,0 -3.261718,0.316406 -3.261718,0.941406 0,1.695312 13.199218,-0.0625 13.199218,5.863281 0,3.417969 -3.574218,5.265625 -9.90625,5.203125 z m 0,0"
           id="path41" />
      </g>
    </g>
  </g>
  <g
     fill="#f58e00"
     fill-opacity="1"
     id="g47"
     transform="translate(-57.230468,-167.46875)">
    <g
       transform="translate(309.19261,189.96954)"
       id="g46">
      <g
         id="g45">
        <path
           d="m 8.246094,-11.535156 h 9.65625 v -4.140625 H 1.285156 V 0 h 16.617188 v -4.167969 h -9.65625 v -1.726562 h 9.65625 V -9.8125 h -9.65625 z m 0,0"
           id="path44" />
      </g>
    </g>
  </g>
  <g
     fill="#f58e00"
     fill-opacity="1"
     id="g50"
     transform="translate(-57.230468,-167.46875)">
    <g
       transform="translate(112.39911,204.31868)"
       id="g49">
      <g
         id="g48">
        <path
           d="m 0.5,-4.1875 h 1.90625 c 0.445312,0 0.84375,0.089844 1.1875,0.265625 0.351562,0.167969 0.625,0.414063 0.8125,0.734375 0.195312,0.3125 0.296875,0.679688 0.296875,1.09375 0,0.417969 -0.101563,0.789062 -0.296875,1.109375 C 4.21875,-0.671875 3.945312,-0.425781 3.59375,-0.25 3.25,-0.0820312 2.851562,0 2.40625,0 H 0.5 Z m 1.859375,3.390625 c 0.414063,0 0.75,-0.113281 1,-0.34375 0.25,-0.238281 0.375,-0.554687 0.375,-0.953125 0,-0.394531 -0.125,-0.707031 -0.375,-0.9375 -0.25,-0.238281 -0.585937,-0.359375 -1,-0.359375 H 1.46875 v 2.59375 z m 0,0"
           id="path47" />
      </g>
    </g>
  </g>
  <g
     fill="#f58e00"
     fill-opacity="1"
     id="g53"
     transform="translate(-57.230468,-167.46875)">
    <g
       transform="translate(120.82687,204.31868)"
       id="g52">
      <g
         id="g51">
        <path
           d="M 3.25,-0.890625 H 1.3125 L 0.9375,0 H -0.046875 L 1.8125,-4.1875 H 2.765625 L 4.640625,0 H 3.625 Z m -0.296875,-0.75 -0.671875,-1.59375 -0.65625,1.59375 z m 0,0"
           id="path50" />
      </g>
    </g>
  </g>
  <g
     fill="#f58e00"
     fill-opacity="1"
     id="g56"
     transform="translate(-57.230468,-167.46875)">
    <g
       transform="translate(128.89575,204.31868)"
       id="g55">
      <g
         id="g54">
        <path
           d="M 1.359375,-3.40625 H 0.03125 V -4.1875 h 3.640625 v 0.78125 H 2.328125 V 0 h -0.96875 z m 0,0"
           id="path53" />
      </g>
    </g>
  </g>
  <g
     fill="#f58e00"
     fill-opacity="1"
     id="g59"
     transform="translate(-57.230468,-167.46875)">
    <g
       transform="translate(136.07938,204.31868)"
       id="g58">
      <g
         id="g57">
        <path
           d="M 3.25,-0.890625 H 1.3125 L 0.9375,0 H -0.046875 L 1.8125,-4.1875 H 2.765625 L 4.640625,0 H 3.625 Z m -0.296875,-0.75 -0.671875,-1.59375 -0.65625,1.59375 z m 0,0"
           id="path56" />
      </g>
    </g>
  </g>
  <g
     fill="#f58e00"
     fill-opacity="1"
     id="g65"
     transform="translate(-57.230468,-167.46875)">
    <g
       transform="translate(149.32813,204.31868)"
       id="g64">
      <g
         id="g63">
        <path
           d="m 2.3125,-4.1875 c 0.363281,0 0.679688,0.0625 0.953125,0.1875 0.28125,0.125 0.492187,0.304688 0.640625,0.53125 0.144531,0.21875 0.21875,0.484375 0.21875,0.796875 0,0.3125 -0.074219,0.585937 -0.21875,0.8125 -0.148438,0.230469 -0.359375,0.40625 -0.640625,0.53125 C 2.992188,-1.210938 2.675781,-1.15625 2.3125,-1.15625 H 1.46875 V 0 H 0.5 v -4.1875 z m -0.0625,2.25 c 0.289062,0 0.507812,-0.0625 0.65625,-0.1875 0.15625,-0.132812 0.234375,-0.316406 0.234375,-0.546875 0,-0.226563 -0.078125,-0.40625 -0.234375,-0.53125 C 2.757812,-3.335938 2.539062,-3.40625 2.25,-3.40625 H 1.46875 v 1.46875 z m 0,0"
           id="path62" />
      </g>
    </g>
  </g>
  <g
     fill="#f58e00"
     fill-opacity="1"
     id="g68"
     transform="translate(-57.230468,-167.46875)">
    <g
       transform="translate(157.19365,204.31868)"
       id="g67">
      <g
         id="g66">
        <path
           d="m 3.171875,0 -0.8125,-1.171875 H 1.46875 V 0 H 0.5 v -4.1875 h 1.8125 c 0.363281,0 0.679688,0.0625 0.953125,0.1875 0.28125,0.125 0.492187,0.304688 0.640625,0.53125 0.144531,0.21875 0.21875,0.484375 0.21875,0.796875 0,0.3125 -0.074219,0.585937 -0.21875,0.8125 -0.148438,0.21875 -0.359375,0.390625 -0.640625,0.515625 L 4.203125,0 Z m -0.03125,-2.671875 c 0,-0.226563 -0.078125,-0.40625 -0.234375,-0.53125 C 2.757812,-3.335938 2.539062,-3.40625 2.25,-3.40625 H 1.46875 V -1.9375 H 2.25 C 2.539062,-1.9375 2.757812,-2 2.90625,-2.125 3.0625,-2.257812 3.140625,-2.441406 3.140625,-2.671875 Z m 0,0"
           id="path65" />
      </g>
    </g>
  </g>
  <g
     fill="#f58e00"
     fill-opacity="1"
     id="g71"
     transform="translate(-57.230468,-167.46875)">
    <g
       transform="translate(165.07711,204.31868)"
       id="g70">
      <g
         id="g69">
        <path
           d="m 2.53125,0.078125 c -0.4375,0 -0.835938,-0.09375 -1.1875,-0.28125 C 1,-0.390625 0.726562,-0.648438 0.53125,-0.984375 0.332031,-1.316406 0.234375,-1.6875 0.234375,-2.09375 0.234375,-2.5 0.332031,-2.867188 0.53125,-3.203125 0.726562,-3.535156 1,-3.796875 1.34375,-3.984375 c 0.351562,-0.1875 0.75,-0.28125 1.1875,-0.28125 0.425781,0 0.8125,0.09375 1.15625,0.28125 0.351562,0.1875 0.628906,0.449219 0.828125,0.78125 C 4.710938,-2.867188 4.8125,-2.5 4.8125,-2.09375 c 0,0.40625 -0.101562,0.777344 -0.296875,1.109375 -0.199219,0.335937 -0.476563,0.59375 -0.828125,0.78125 -0.34375,0.1875 -0.730469,0.28125 -1.15625,0.28125 z m 0,-0.828125 c 0.238281,0 0.457031,-0.054688 0.65625,-0.171875 0.207031,-0.113281 0.367188,-0.269531 0.484375,-0.46875 0.113281,-0.207031 0.171875,-0.441406 0.171875,-0.703125 0,-0.257812 -0.058594,-0.488281 -0.171875,-0.6875 C 3.554688,-2.988281 3.394531,-3.148438 3.1875,-3.265625 2.988281,-3.378906 2.769531,-3.4375 2.53125,-3.4375 c -0.25,0 -0.476562,0.058594 -0.671875,0.171875 -0.199219,0.117187 -0.355469,0.277344 -0.46875,0.484375 -0.117187,0.199219 -0.171875,0.429688 -0.171875,0.6875 0,0.261719 0.054688,0.496094 0.171875,0.703125 0.113281,0.199219 0.269531,0.355469 0.46875,0.46875 C 2.054688,-0.804688 2.28125,-0.75 2.53125,-0.75 Z m 0,0"
           id="path68" />
      </g>
    </g>
  </g>
  <g
     fill="#f58e00"
     fill-opacity="1"
     id="g74"
     transform="translate(-57.230468,-167.46875)">
    <g
       transform="translate(173.61254,204.31868)"
       id="g73">
      <g
         id="g72">
        <path
           d="m 2.5,0.078125 c -0.429688,0 -0.8125,-0.09375 -1.15625,-0.28125 C 1,-0.390625 0.726562,-0.644531 0.53125,-0.96875 0.332031,-1.300781 0.234375,-1.675781 0.234375,-2.09375 c 0,-0.414062 0.097656,-0.785156 0.296875,-1.109375 0.195312,-0.332031 0.46875,-0.59375 0.8125,-0.78125 0.34375,-0.1875 0.726562,-0.28125 1.15625,-0.28125 0.363281,0 0.691406,0.070313 0.984375,0.203125 0.300781,0.125 0.550781,0.308594 0.75,0.546875 l -0.625,0.578125 c -0.28125,-0.332031 -0.632813,-0.5 -1.046875,-0.5 -0.261719,0 -0.496094,0.058594 -0.703125,0.171875 -0.199219,0.117187 -0.355469,0.277344 -0.46875,0.484375 -0.117187,0.199219 -0.171875,0.429688 -0.171875,0.6875 0,0.261719 0.054688,0.496094 0.171875,0.703125 0.113281,0.199219 0.269531,0.355469 0.46875,0.46875 C 2.066406,-0.804688 2.300781,-0.75 2.5625,-0.75 c 0.414062,0 0.765625,-0.164062 1.046875,-0.5 l 0.625,0.578125 c -0.199219,0.242187 -0.449219,0.429687 -0.75,0.5625 -0.292969,0.125 -0.621094,0.1875 -0.984375,0.1875 z m 0,0"
           id="path71" />
      </g>
    </g>
  </g>
  <g
     fill="#f58e00"
     fill-opacity="1"
     id="g77"
     transform="translate(-57.230468,-167.46875)">
    <g
       transform="translate(181.48403,204.31868)"
       id="g76">
      <g
         id="g75">
        <path
           d="M 3.734375,-0.78125 V 0 H 0.5 v -4.1875 h 3.15625 v 0.78125 H 1.453125 V -2.5 H 3.40625 v 0.75 H 1.453125 v 0.96875 z m 0,0"
           id="path74" />
      </g>
    </g>
  </g>
  <g
     fill="#f58e00"
     fill-opacity="1"
     id="g80"
     transform="translate(-57.230468,-167.46875)">
    <g
       transform="translate(188.98469,204.31868)"
       id="g79">
      <g
         id="g78">
        <path
           d="M 1.875,0.078125 C 1.539062,0.078125 1.21875,0.03125 0.90625,-0.0625 0.601562,-0.15625 0.359375,-0.269531 0.171875,-0.40625 L 0.5,-1.140625 c 0.175781,0.125 0.390625,0.230469 0.640625,0.3125 0.25,0.085937 0.492187,0.125 0.734375,0.125 0.28125,0 0.484375,-0.039063 0.609375,-0.125 C 2.617188,-0.910156 2.6875,-1.019531 2.6875,-1.15625 2.6875,-1.25 2.644531,-1.328125 2.5625,-1.390625 2.488281,-1.460938 2.390625,-1.519531 2.265625,-1.5625 2.148438,-1.601562 1.988281,-1.644531 1.78125,-1.6875 1.457031,-1.769531 1.191406,-1.847656 0.984375,-1.921875 0.785156,-1.992188 0.613281,-2.113281 0.46875,-2.28125 0.320312,-2.445312 0.25,-2.671875 0.25,-2.953125 c 0,-0.25 0.0625,-0.46875 0.1875,-0.65625 0.132812,-0.195313 0.332031,-0.351563 0.59375,-0.46875 0.269531,-0.125 0.597656,-0.1875 0.984375,-0.1875 0.269531,0 0.53125,0.039063 0.78125,0.109375 0.257813,0.0625 0.484375,0.152344 0.671875,0.265625 L 3.171875,-3.15625 C 2.785156,-3.375 2.398438,-3.484375 2.015625,-3.484375 c -0.273437,0 -0.476563,0.046875 -0.609375,0.140625 -0.125,0.085938 -0.1875,0.199219 -0.1875,0.34375 0,0.148438 0.070312,0.257812 0.21875,0.328125 0.144531,0.0625 0.375,0.125 0.6875,0.1875 0.320312,0.085937 0.582031,0.164063 0.78125,0.234375 0.207031,0.074219 0.382812,0.195312 0.53125,0.359375 0.144531,0.167969 0.21875,0.386719 0.21875,0.65625 0,0.242187 -0.070312,0.460937 -0.203125,0.65625 C 3.316406,-0.378906 3.113281,-0.21875 2.84375,-0.09375 2.582031,0.0195312 2.257812,0.078125 1.875,0.078125 Z m 0,0"
           id="path77" />
      </g>
    </g>
  </g>
  <g
     fill="#f58e00"
     fill-opacity="1"
     id="g83"
     transform="translate(-57.230468,-167.46875)">
    <g
       transform="translate(196.28795,204.31868)"
       id="g82">
      <g
         id="g81">
        <path
           d="M 1.875,0.078125 C 1.539062,0.078125 1.21875,0.03125 0.90625,-0.0625 0.601562,-0.15625 0.359375,-0.269531 0.171875,-0.40625 L 0.5,-1.140625 c 0.175781,0.125 0.390625,0.230469 0.640625,0.3125 0.25,0.085937 0.492187,0.125 0.734375,0.125 0.28125,0 0.484375,-0.039063 0.609375,-0.125 C 2.617188,-0.910156 2.6875,-1.019531 2.6875,-1.15625 2.6875,-1.25 2.644531,-1.328125 2.5625,-1.390625 2.488281,-1.460938 2.390625,-1.519531 2.265625,-1.5625 2.148438,-1.601562 1.988281,-1.644531 1.78125,-1.6875 1.457031,-1.769531 1.191406,-1.847656 0.984375,-1.921875 0.785156,-1.992188 0.613281,-2.113281 0.46875,-2.28125 0.320312,-2.445312 0.25,-2.671875 0.25,-2.953125 c 0,-0.25 0.0625,-0.46875 0.1875,-0.65625 0.132812,-0.195313 0.332031,-0.351563 0.59375,-0.46875 0.269531,-0.125 0.597656,-0.1875 0.984375,-0.1875 0.269531,0 0.53125,0.039063 0.78125,0.109375 0.257813,0.0625 0.484375,0.152344 0.671875,0.265625 L 3.171875,-3.15625 C 2.785156,-3.375 2.398438,-3.484375 2.015625,-3.484375 c -0.273437,0 -0.476563,0.046875 -0.609375,0.140625 -0.125,0.085938 -0.1875,0.199219 -0.1875,0.34375 0,0.148438 0.070312,0.257812 0.21875,0.328125 0.144531,0.0625 0.375,0.125 0.6875,0.1875 0.320312,0.085937 0.582031,0.164063 0.78125,0.234375 0.207031,0.074219 0.382812,0.195312 0.53125,0.359375 0.144531,0.167969 0.21875,0.386719 0.21875,0.65625 0,0.242187 -0.070312,0.460937 -0.203125,0.65625 C 3.316406,-0.378906 3.113281,-0.21875 2.84375,-0.09375 2.582031,0.0195312 2.257812,0.078125 1.875,0.078125 Z m 0,0"
           id="path80" />
      </g>
    </g>
  </g>
  <g
     fill="#f58e00"
     fill-opacity="1"
     id="g86"
     transform="translate(-57.230468,-167.46875)">
    <g
       transform="translate(203.59121,204.31868)"
       id="g85">
      <g
         id="g84">
        <path
           d="M 0.5,-4.1875 H 1.46875 V 0 H 0.5 Z m 0,0"
           id="path83" />
      </g>
    </g>
  </g>
  <g
     fill="#f58e00"
     fill-opacity="1"
     id="g89"
     transform="translate(-57.230468,-167.46875)">
    <g
       transform="translate(209.04025,204.31868)"
       id="g88">
      <g
         id="g87">
        <path
           d="M 4.34375,-4.1875 V 0 H 3.546875 L 1.453125,-2.546875 V 0 H 0.5 V -4.1875 H 1.296875 L 3.375,-1.640625 V -4.1875 Z m 0,0"
           id="path86" />
      </g>
    </g>
  </g>
  <g
     fill="#f58e00"
     fill-opacity="1"
     id="g92"
     transform="translate(-57.230468,-167.46875)">
    <g
       transform="translate(217.36035,204.31868)"
       id="g91">
      <g
         id="g90">
        <path
           d="M 3.328125,-2.15625 H 4.21875 v 1.703125 C 3.988281,-0.285156 3.722656,-0.15625 3.421875,-0.0625 3.117188,0.03125 2.816406,0.078125 2.515625,0.078125 c -0.4375,0 -0.828125,-0.09375 -1.171875,-0.28125 C 1,-0.390625 0.726562,-0.644531 0.53125,-0.96875 0.332031,-1.300781 0.234375,-1.675781 0.234375,-2.09375 c 0,-0.414062 0.097656,-0.785156 0.296875,-1.109375 0.195312,-0.332031 0.46875,-0.59375 0.8125,-0.78125 0.351562,-0.1875 0.75,-0.28125 1.1875,-0.28125 0.375,0 0.707031,0.0625 1,0.1875 0.300781,0.125 0.554688,0.308594 0.765625,0.546875 l -0.625,0.5625 C 3.367188,-3.28125 3.003906,-3.4375 2.578125,-3.4375 c -0.261719,0 -0.496094,0.058594 -0.703125,0.171875 -0.210938,0.117187 -0.371094,0.277344 -0.484375,0.484375 -0.117187,0.199219 -0.171875,0.429688 -0.171875,0.6875 0,0.261719 0.054688,0.496094 0.171875,0.703125 0.113281,0.199219 0.269531,0.355469 0.46875,0.46875 0.207031,0.117187 0.445313,0.171875 0.71875,0.171875 0.269531,0 0.519531,-0.0625 0.75,-0.1875 z m 0,0"
           id="path89" />
      </g>
    </g>
  </g>
  <g
     fill="#f58e00"
     fill-opacity="1"
     id="g98"
     transform="translate(-57.230468,-167.46875)">
    <g
       transform="translate(230.63901,204.31868)"
       id="g97">
      <g
         id="g96">
        <path
           d="m 3.71875,0.078125 -0.5,-0.46875 c -0.40625,0.3125 -0.875,0.46875 -1.40625,0.46875 -0.304688,0 -0.578125,-0.046875 -0.828125,-0.140625 -0.242187,-0.101562 -0.429687,-0.242188 -0.5625,-0.421875 -0.136719,-0.175781 -0.203125,-0.375 -0.203125,-0.59375 0,-0.257813 0.070312,-0.488281 0.21875,-0.6875 0.144531,-0.195313 0.378906,-0.382813 0.703125,-0.5625 -0.15625,-0.15625 -0.273437,-0.300781 -0.34375,-0.4375 -0.0625,-0.144531 -0.09375,-0.296875 -0.09375,-0.453125 0,-0.195312 0.050781,-0.375 0.15625,-0.53125 0.113281,-0.15625 0.269531,-0.273438 0.46875,-0.359375 C 1.523438,-4.203125 1.753906,-4.25 2.015625,-4.25 c 0.363281,0 0.65625,0.089844 0.875,0.265625 0.21875,0.179687 0.328125,0.414063 0.328125,0.703125 0,0.21875 -0.070312,0.414062 -0.203125,0.578125 -0.125,0.167969 -0.335937,0.328125 -0.625,0.484375 L 3.15625,-1.515625 C 3.25,-1.703125 3.320312,-1.914062 3.375,-2.15625 l 0.75,0.234375 C 4.039062,-1.554688 3.910156,-1.238281 3.734375,-0.96875 l 0.484375,0.453125 z m -1.703125,-3.6875 c -0.148437,0 -0.261719,0.039063 -0.34375,0.109375 -0.074219,0.074219 -0.109375,0.167969 -0.109375,0.28125 0,0.085938 0.019531,0.164062 0.0625,0.234375 0.039062,0.074219 0.125,0.171875 0.25,0.296875 0.207031,-0.113281 0.347656,-0.210938 0.421875,-0.296875 0.082031,-0.082031 0.125,-0.175781 0.125,-0.28125 0,-0.101563 -0.039063,-0.1875 -0.109375,-0.25 -0.074219,-0.0625 -0.171875,-0.09375 -0.296875,-0.09375 z M 1.875,-0.65625 c 0.289062,0 0.550781,-0.082031 0.78125,-0.25 l -1,-0.9375 c -0.1875,0.105469 -0.324219,0.210938 -0.40625,0.3125 -0.085938,0.105469 -0.125,0.226562 -0.125,0.359375 0,0.148437 0.066406,0.273437 0.203125,0.375 0.132813,0.09375 0.316406,0.140625 0.546875,0.140625 z m 0,0"
           id="path95" />
      </g>
    </g>
  </g>
  <g
     fill="#f58e00"
     fill-opacity="1"
     id="g104"
     transform="translate(-57.230468,-167.46875)">
    <g
       transform="translate(243.66047,204.31868)"
       id="g103">
      <g
         id="g102">
        <path
           d="M 1.875,0.078125 C 1.539062,0.078125 1.21875,0.03125 0.90625,-0.0625 0.601562,-0.15625 0.359375,-0.269531 0.171875,-0.40625 L 0.5,-1.140625 c 0.175781,0.125 0.390625,0.230469 0.640625,0.3125 0.25,0.085937 0.492187,0.125 0.734375,0.125 0.28125,0 0.484375,-0.039063 0.609375,-0.125 C 2.617188,-0.910156 2.6875,-1.019531 2.6875,-1.15625 2.6875,-1.25 2.644531,-1.328125 2.5625,-1.390625 2.488281,-1.460938 2.390625,-1.519531 2.265625,-1.5625 2.148438,-1.601562 1.988281,-1.644531 1.78125,-1.6875 1.457031,-1.769531 1.191406,-1.847656 0.984375,-1.921875 0.785156,-1.992188 0.613281,-2.113281 0.46875,-2.28125 0.320312,-2.445312 0.25,-2.671875 0.25,-2.953125 c 0,-0.25 0.0625,-0.46875 0.1875,-0.65625 0.132812,-0.195313 0.332031,-0.351563 0.59375,-0.46875 0.269531,-0.125 0.597656,-0.1875 0.984375,-0.1875 0.269531,0 0.53125,0.039063 0.78125,0.109375 0.257813,0.0625 0.484375,0.152344 0.671875,0.265625 L 3.171875,-3.15625 C 2.785156,-3.375 2.398438,-3.484375 2.015625,-3.484375 c -0.273437,0 -0.476563,0.046875 -0.609375,0.140625 -0.125,0.085938 -0.1875,0.199219 -0.1875,0.34375 0,0.148438 0.070312,0.257812 0.21875,0.328125 0.144531,0.0625 0.375,0.125 0.6875,0.1875 0.320312,0.085937 0.582031,0.164063 0.78125,0.234375 0.207031,0.074219 0.382812,0.195312 0.53125,0.359375 0.144531,0.167969 0.21875,0.386719 0.21875,0.65625 0,0.242187 -0.070312,0.460937 -0.203125,0.65625 C 3.316406,-0.378906 3.113281,-0.21875 2.84375,-0.09375 2.582031,0.0195312 2.257812,0.078125 1.875,0.078125 Z m 0,0"
           id="path101" />
      </g>
    </g>
  </g>
  <g
     fill="#f58e00"
     fill-opacity="1"
     id="g107"
     transform="translate(-57.230468,-167.46875)">
    <g
       transform="translate(250.96373,204.31868)"
       id="g106">
      <g
         id="g105">
        <path
           d="m 2.359375,0.078125 c -0.605469,0 -1.074219,-0.1640625 -1.40625,-0.5 -0.335937,-0.332031 -0.5,-0.804687 -0.5,-1.421875 V -4.1875 H 1.4375 v 2.3125 c 0,0.75 0.304688,1.125 0.921875,1.125 0.300781,0 0.53125,-0.085938 0.6875,-0.265625 0.164063,-0.1875 0.25,-0.472656 0.25,-0.859375 V -4.1875 H 4.25 v 2.34375 c 0,0.617188 -0.167969,1.089844 -0.5,1.421875 -0.335938,0.3359375 -0.796875,0.5 -1.390625,0.5 z m 0,0"
           id="path104" />
      </g>
    </g>
  </g>
  <g
     fill="#f58e00"
     fill-opacity="1"
     id="g110"
     transform="translate(-57.230468,-167.46875)">
    <g
       transform="translate(259.1642,204.31868)"
       id="g109">
      <g
         id="g108">
        <path
           d="M 4.3125,0 4.296875,-2.515625 3.0625,-0.4375 H 2.640625 L 1.40625,-2.453125 V 0 H 0.5 v -4.1875 h 0.796875 l 1.5625,2.609375 L 4.40625,-4.1875 H 5.203125 L 5.21875,0 Z m 0,0"
           id="path107" />
      </g>
    </g>
  </g>
  <g
     fill="#f58e00"
     fill-opacity="1"
     id="g113"
     transform="translate(-57.230468,-167.46875)">
    <g
       transform="translate(268.36356,204.31868)"
       id="g112">
      <g
         id="g111">
        <path
           d="M 4.3125,0 4.296875,-2.515625 3.0625,-0.4375 H 2.640625 L 1.40625,-2.453125 V 0 H 0.5 v -4.1875 h 0.796875 l 1.5625,2.609375 L 4.40625,-4.1875 H 5.203125 L 5.21875,0 Z m 0,0"
           id="path110" />
      </g>
    </g>
  </g>
  <g
     fill="#f58e00"
     fill-opacity="1"
     id="g116"
     transform="translate(-57.230468,-167.46875)">
    <g
       transform="translate(277.56293,204.31868)"
       id="g115">
      <g
         id="g114">
        <path
           d="M 3.25,-0.890625 H 1.3125 L 0.9375,0 H -0.046875 L 1.8125,-4.1875 H 2.765625 L 4.640625,0 H 3.625 Z m -0.296875,-0.75 -0.671875,-1.59375 -0.65625,1.59375 z m 0,0"
           id="path113" />
      </g>
    </g>
  </g>
  <g
     fill="#f58e00"
     fill-opacity="1"
     id="g119"
     transform="translate(-57.230468,-167.46875)">
    <g
       transform="translate(285.63181,204.31868)"
       id="g118">
      <g
         id="g117">
        <path
           d="m 3.171875,0 -0.8125,-1.171875 H 1.46875 V 0 H 0.5 v -4.1875 h 1.8125 c 0.363281,0 0.679688,0.0625 0.953125,0.1875 0.28125,0.125 0.492187,0.304688 0.640625,0.53125 0.144531,0.21875 0.21875,0.484375 0.21875,0.796875 0,0.3125 -0.074219,0.585937 -0.21875,0.8125 -0.148438,0.21875 -0.359375,0.390625 -0.640625,0.515625 L 4.203125,0 Z m -0.03125,-2.671875 c 0,-0.226563 -0.078125,-0.40625 -0.234375,-0.53125 C 2.757812,-3.335938 2.539062,-3.40625 2.25,-3.40625 H 1.46875 V -1.9375 H 2.25 C 2.539062,-1.9375 2.757812,-2 2.90625,-2.125 3.0625,-2.257812 3.140625,-2.441406 3.140625,-2.671875 Z m 0,0"
           id="path116" />
      </g>
    </g>
  </g>
  <g
     fill="#f58e00"
     fill-opacity="1"
     id="g122"
     transform="translate(-57.230468,-167.46875)">
    <g
       transform="translate(293.51527,204.31868)"
       id="g121">
      <g
         id="g120">
        <path
           d="M 2.5,-1.484375 V 0 H 1.53125 v -1.5 l -1.609375,-2.6875 h 1.03125 L 2.0625,-2.328125 3.1875,-4.1875 h 0.953125 z m 0,0"
           id="path119" />
      </g>
    </g>
  </g>
</svg>
